<svg width="516" height="351" viewBox="0 0 516 351" fill="none" xmlns="http://www.w3.org/2000/svg">
<g filter="url(#filter0_d_2447_340)">
<path d="M8 0H508V315C508 326.046 499.046 335 488 335H28C16.9543 335 8 326.046 8 315V0Z" fill="#CCE2FF"/>
<path d="M205.24 77.288C203.544 77.288 202.088 76.928 200.872 76.208C199.656 75.472 198.72 74.456 198.064 73.16C197.408 71.848 197.08 70.336 197.08 68.624C197.08 66.912 197.408 65.4 198.064 64.088C198.72 62.776 199.656 61.752 200.872 61.016C202.088 60.28 203.544 59.912 205.24 59.912C207.256 59.912 208.904 60.416 210.184 61.424C211.48 62.416 212.288 63.816 212.608 65.624H209.224C209.016 64.712 208.568 64 207.88 63.488C207.208 62.96 206.312 62.696 205.192 62.696C203.64 62.696 202.424 63.224 201.544 64.28C200.664 65.336 200.224 66.784 200.224 68.624C200.224 70.464 200.664 71.912 201.544 72.968C202.424 74.008 203.64 74.528 205.192 74.528C206.312 74.528 207.208 74.288 207.88 73.808C208.568 73.312 209.016 72.632 209.224 71.768H212.608C212.288 73.496 211.48 74.848 210.184 75.824C208.904 76.8 207.256 77.288 205.24 77.288ZM219.359 77.288C218.335 77.288 217.495 77.128 216.839 76.808C216.183 76.472 215.695 76.032 215.375 75.488C215.055 74.944 214.895 74.344 214.895 73.688C214.895 72.584 215.327 71.688 216.191 71C217.055 70.312 218.351 69.968 220.079 69.968H223.103V69.68C223.103 68.864 222.871 68.264 222.407 67.88C221.943 67.496 221.367 67.304 220.679 67.304C220.055 67.304 219.511 67.456 219.047 67.76C218.583 68.048 218.295 68.48 218.183 69.056H215.183C215.263 68.192 215.551 67.44 216.047 66.8C216.559 66.16 217.215 65.672 218.015 65.336C218.815 64.984 219.711 64.808 220.703 64.808C222.399 64.808 223.735 65.232 224.711 66.08C225.687 66.928 226.175 68.128 226.175 69.68V77H223.559L223.271 75.08C222.919 75.72 222.423 76.248 221.783 76.664C221.159 77.08 220.351 77.288 219.359 77.288ZM220.055 74.888C220.935 74.888 221.615 74.6 222.095 74.024C222.591 73.448 222.903 72.736 223.031 71.888H220.415C219.599 71.888 219.015 72.04 218.663 72.344C218.311 72.632 218.135 72.992 218.135 73.424C218.135 73.888 218.311 74.248 218.663 74.504C219.015 74.76 219.479 74.888 220.055 74.888ZM229.107 82.28V65.096H231.843L232.179 66.8C232.563 66.272 233.067 65.808 233.691 65.408C234.331 65.008 235.155 64.808 236.163 64.808C237.283 64.808 238.283 65.08 239.163 65.624C240.043 66.168 240.739 66.912 241.251 67.856C241.763 68.8 242.019 69.872 242.019 71.072C242.019 72.272 241.763 73.344 241.251 74.288C240.739 75.216 240.043 75.952 239.163 76.496C238.283 77.024 237.283 77.288 236.163 77.288C235.267 77.288 234.483 77.12 233.811 76.784C233.139 76.448 232.595 75.976 232.179 75.368V82.28H229.107ZM235.515 74.6C236.491 74.6 237.299 74.272 237.939 73.616C238.579 72.96 238.899 72.112 238.899 71.072C238.899 70.032 238.579 69.176 237.939 68.504C237.299 67.832 236.491 67.496 235.515 67.496C234.523 67.496 233.707 67.832 233.067 68.504C232.443 69.16 232.131 70.008 232.131 71.048C232.131 72.088 232.443 72.944 233.067 73.616C233.707 74.272 234.523 74.6 235.515 74.6ZM246.419 63.248C245.859 63.248 245.395 63.08 245.027 62.744C244.675 62.408 244.499 61.984 244.499 61.472C244.499 60.96 244.675 60.544 245.027 60.224C245.395 59.888 245.859 59.72 246.419 59.72C246.979 59.72 247.435 59.888 247.787 60.224C248.155 60.544 248.339 60.96 248.339 61.472C248.339 61.984 248.155 62.408 247.787 62.744C247.435 63.08 246.979 63.248 246.419 63.248ZM244.883 77V65.096H247.955V77H244.883ZM256.466 77C255.218 77 254.218 76.696 253.466 76.088C252.714 75.48 252.338 74.4 252.338 72.848V67.664H250.298V65.096H252.338L252.698 61.904H255.41V65.096H258.626V67.664H255.41V72.872C255.41 73.448 255.53 73.848 255.77 74.072C256.026 74.28 256.458 74.384 257.066 74.384H258.554V77H256.466ZM265.367 77.288C264.343 77.288 263.503 77.128 262.847 76.808C262.191 76.472 261.703 76.032 261.383 75.488C261.063 74.944 260.903 74.344 260.903 73.688C260.903 72.584 261.335 71.688 262.199 71C263.063 70.312 264.359 69.968 266.087 69.968H269.111V69.68C269.111 68.864 268.879 68.264 268.415 67.88C267.951 67.496 267.375 67.304 266.687 67.304C266.063 67.304 265.519 67.456 265.055 67.76C264.591 68.048 264.303 68.48 264.191 69.056H261.191C261.271 68.192 261.559 67.44 262.055 66.8C262.567 66.16 263.223 65.672 264.023 65.336C264.823 64.984 265.719 64.808 266.711 64.808C268.407 64.808 269.743 65.232 270.719 66.08C271.695 66.928 272.183 68.128 272.183 69.68V77H269.567L269.279 75.08C268.927 75.72 268.431 76.248 267.791 76.664C267.167 77.08 266.359 77.288 265.367 77.288ZM266.063 74.888C266.943 74.888 267.623 74.6 268.103 74.024C268.599 73.448 268.911 72.736 269.039 71.888H266.423C265.607 71.888 265.023 72.04 264.671 72.344C264.319 72.632 264.143 72.992 264.143 73.424C264.143 73.888 264.319 74.248 264.671 74.504C265.023 74.76 265.487 74.888 266.063 74.888ZM275.115 77V59.72H278.187V77H275.115ZM294.724 77.288C293.028 77.288 291.572 76.928 290.356 76.208C289.14 75.472 288.204 74.456 287.548 73.16C286.892 71.848 286.564 70.336 286.564 68.624C286.564 66.912 286.892 65.4 287.548 64.088C288.204 62.776 289.14 61.752 290.356 61.016C291.572 60.28 293.028 59.912 294.724 59.912C296.74 59.912 298.388 60.416 299.668 61.424C300.964 62.416 301.772 63.816 302.092 65.624H298.708C298.5 64.712 298.052 64 297.364 63.488C296.692 62.96 295.796 62.696 294.676 62.696C293.124 62.696 291.908 63.224 291.028 64.28C290.148 65.336 289.708 66.784 289.708 68.624C289.708 70.464 290.148 71.912 291.028 72.968C291.908 74.008 293.124 74.528 294.676 74.528C295.796 74.528 296.692 74.288 297.364 73.808C298.052 73.312 298.5 72.632 298.708 71.768H302.092C301.772 73.496 300.964 74.848 299.668 75.824C298.388 76.8 296.74 77.288 294.724 77.288ZM310.452 77.288C309.3 77.288 308.26 77.024 307.332 76.496C306.42 75.968 305.692 75.24 305.148 74.312C304.62 73.368 304.356 72.28 304.356 71.048C304.356 69.816 304.628 68.736 305.172 67.808C305.716 66.864 306.444 66.128 307.356 65.6C308.284 65.072 309.324 64.808 310.476 64.808C311.612 64.808 312.636 65.072 313.548 65.6C314.476 66.128 315.204 66.864 315.732 67.808C316.276 68.736 316.548 69.816 316.548 71.048C316.548 72.28 316.276 73.368 315.732 74.312C315.204 75.24 314.476 75.968 313.548 76.496C312.62 77.024 311.588 77.288 310.452 77.288ZM310.452 74.624C311.252 74.624 311.948 74.328 312.54 73.736C313.132 73.128 313.428 72.232 313.428 71.048C313.428 69.864 313.132 68.976 312.54 68.384C311.948 67.776 311.26 67.472 310.476 67.472C309.66 67.472 308.956 67.776 308.364 68.384C307.788 68.976 307.5 69.864 307.5 71.048C307.5 72.232 307.788 73.128 308.364 73.736C308.956 74.328 309.652 74.624 310.452 74.624ZM319.294 77V65.096H322.006L322.246 67.112C322.614 66.408 323.142 65.848 323.83 65.432C324.534 65.016 325.358 64.808 326.302 64.808C327.774 64.808 328.918 65.272 329.734 66.2C330.55 67.128 330.958 68.488 330.958 70.28V77H327.886V70.568C327.886 69.544 327.678 68.76 327.262 68.216C326.846 67.672 326.198 67.4 325.318 67.4C324.454 67.4 323.742 67.704 323.182 68.312C322.638 68.92 322.366 69.768 322.366 70.856V77H319.294ZM333.896 77V65.096H336.608L336.848 67.112C337.216 66.408 337.744 65.848 338.432 65.432C339.136 65.016 339.96 64.808 340.904 64.808C342.376 64.808 343.52 65.272 344.336 66.2C345.152 67.128 345.56 68.488 345.56 70.28V77H342.488V70.568C342.488 69.544 342.28 68.76 341.864 68.216C341.448 67.672 340.8 67.4 339.92 67.4C339.056 67.4 338.344 67.704 337.784 68.312C337.24 68.92 336.968 69.768 336.968 70.856V77H333.896ZM354.282 77.288C353.082 77.288 352.018 77.032 351.09 76.52C350.162 76.008 349.434 75.288 348.906 74.36C348.378 73.432 348.114 72.36 348.114 71.144C348.114 69.912 348.37 68.816 348.882 67.856C349.41 66.896 350.13 66.152 351.042 65.624C351.97 65.08 353.058 64.808 354.306 64.808C355.474 64.808 356.506 65.064 357.402 65.576C358.298 66.088 358.994 66.792 359.49 67.688C360.002 68.568 360.258 69.552 360.258 70.64C360.258 70.816 360.25 71 360.234 71.192C360.234 71.384 360.226 71.584 360.21 71.792H351.162C351.226 72.72 351.546 73.448 352.122 73.976C352.714 74.504 353.426 74.768 354.258 74.768C354.882 74.768 355.402 74.632 355.818 74.36C356.25 74.072 356.57 73.704 356.778 73.256H359.898C359.674 74.008 359.298 74.696 358.77 75.32C358.258 75.928 357.618 76.408 356.85 76.76C356.098 77.112 355.242 77.288 354.282 77.288ZM354.306 67.304C353.554 67.304 352.89 67.52 352.314 67.952C351.738 68.368 351.37 69.008 351.21 69.872H357.138C357.09 69.088 356.802 68.464 356.274 68C355.746 67.536 355.09 67.304 354.306 67.304ZM368.673 77.288C367.457 77.288 366.385 77.024 365.457 76.496C364.529 75.968 363.793 75.232 363.249 74.288C362.721 73.344 362.457 72.264 362.457 71.048C362.457 69.832 362.721 68.752 363.249 67.808C363.793 66.864 364.529 66.128 365.457 65.6C366.385 65.072 367.457 64.808 368.673 64.808C370.193 64.808 371.473 65.208 372.513 66.008C373.553 66.792 374.217 67.88 374.505 69.272H371.265C371.105 68.696 370.785 68.248 370.305 67.928C369.841 67.592 369.289 67.424 368.649 67.424C367.801 67.424 367.081 67.744 366.489 68.384C365.897 69.024 365.601 69.912 365.601 71.048C365.601 72.184 365.897 73.072 366.489 73.712C367.081 74.352 367.801 74.672 368.649 74.672C369.289 74.672 369.841 74.512 370.305 74.192C370.785 73.872 371.105 73.416 371.265 72.824H374.505C374.217 74.168 373.553 75.248 372.513 76.064C371.473 76.88 370.193 77.288 368.673 77.288ZM382.372 77C381.124 77 380.124 76.696 379.372 76.088C378.62 75.48 378.244 74.4 378.244 72.848V67.664H376.204V65.096H378.244L378.604 61.904H381.316V65.096H384.532V67.664H381.316V72.872C381.316 73.448 381.436 73.848 381.676 74.072C381.932 74.28 382.364 74.384 382.972 74.384H384.46V77H382.372Z" fill="black"/>
<path d="M153.1 80.72C148.86 80.72 145.22 79.82 142.18 78.02C139.14 76.18 136.8 73.64 135.16 70.4C133.52 67.12 132.7 63.34 132.7 59.06C132.7 54.78 133.52 51 135.16 47.72C136.8 44.44 139.14 41.88 142.18 40.04C145.22 38.2 148.86 37.28 153.1 37.28C158.14 37.28 162.26 38.54 165.46 41.06C168.7 43.54 170.72 47.04 171.52 51.56H163.06C162.54 49.28 161.42 47.5 159.7 46.22C158.02 44.9 155.78 44.24 152.98 44.24C149.1 44.24 146.06 45.56 143.86 48.2C141.66 50.84 140.56 54.46 140.56 59.06C140.56 63.66 141.66 67.28 143.86 69.92C146.06 72.52 149.1 73.82 152.98 73.82C155.78 73.82 158.02 73.22 159.7 72.02C161.42 70.78 162.54 69.08 163.06 66.92H171.52C170.72 71.24 168.7 74.62 165.46 77.06C162.26 79.5 158.14 80.72 153.1 80.72Z" fill="black"/>
<path d="M164.9 53.28C169.14 53.28 172.78 54.18 175.82 55.98C178.86 57.82 181.2 60.36 182.84 63.6C184.48 66.88 185.3 70.66 185.3 74.94C185.3 79.22 184.48 83 182.84 86.28C181.2 89.56 178.86 92.12 175.82 93.96C172.78 95.8 169.14 96.72 164.9 96.72C159.86 96.72 155.74 95.46 152.54 92.94C149.3 90.46 147.28 86.96 146.48 82.44H154.94C155.46 84.72 156.58 86.5 158.3 87.78C159.98 89.1 162.22 89.76 165.02 89.76C168.9 89.76 171.94 88.44 174.14 85.8C176.34 83.16 177.44 79.54 177.44 74.94C177.44 70.34 176.34 66.72 174.14 64.08C171.94 61.48 168.9 60.18 165.02 60.18C162.22 60.18 159.98 60.78 158.3 61.98C156.58 63.22 155.46 64.92 154.94 67.08H146.48C147.28 62.76 149.3 59.38 152.54 56.94C155.74 54.5 159.86 53.28 164.9 53.28Z" fill="#006EFF"/>
<path d="M72.632 142V125.2H78.368C80.336 125.2 81.952 125.552 83.216 126.256C84.496 126.944 85.44 127.92 86.048 129.184C86.672 130.432 86.984 131.904 86.984 133.6C86.984 135.296 86.672 136.776 86.048 138.04C85.44 139.288 84.496 140.264 83.216 140.968C81.952 141.656 80.336 142 78.368 142H72.632ZM75.704 139.36H78.224C79.632 139.36 80.744 139.136 81.56 138.688C82.376 138.224 82.96 137.568 83.312 136.72C83.664 135.856 83.84 134.816 83.84 133.6C83.84 132.4 83.664 131.368 83.312 130.504C82.96 129.64 82.376 128.976 81.56 128.512C80.744 128.048 79.632 127.816 78.224 127.816H75.704V139.36ZM95.4065 142.288C94.2065 142.288 93.1425 142.032 92.2145 141.52C91.2865 141.008 90.5585 140.288 90.0305 139.36C89.5025 138.432 89.2385 137.36 89.2385 136.144C89.2385 134.912 89.4945 133.816 90.0065 132.856C90.5345 131.896 91.2545 131.152 92.1665 130.624C93.0945 130.08 94.1825 129.808 95.4305 129.808C96.5985 129.808 97.6305 130.064 98.5265 130.576C99.4225 131.088 100.119 131.792 100.615 132.688C101.127 133.568 101.383 134.552 101.383 135.64C101.383 135.816 101.375 136 101.359 136.192C101.359 136.384 101.351 136.584 101.335 136.792H92.2865C92.3505 137.72 92.6705 138.448 93.2465 138.976C93.8385 139.504 94.5505 139.768 95.3825 139.768C96.0065 139.768 96.5265 139.632 96.9425 139.36C97.3745 139.072 97.6945 138.704 97.9025 138.256H101.023C100.799 139.008 100.423 139.696 99.8945 140.32C99.3825 140.928 98.7425 141.408 97.9745 141.76C97.2225 142.112 96.3665 142.288 95.4065 142.288ZM95.4305 132.304C94.6785 132.304 94.0145 132.52 93.4385 132.952C92.8625 133.368 92.4945 134.008 92.3345 134.872H98.2625C98.2145 134.088 97.9265 133.464 97.3985 133C96.8705 132.536 96.2145 132.304 95.4305 132.304ZM106.714 142L102.346 130.096H105.562L108.586 139.096L111.61 130.096H114.826L110.434 142H106.714ZM121.961 142.288C120.761 142.288 119.697 142.032 118.769 141.52C117.841 141.008 117.113 140.288 116.585 139.36C116.057 138.432 115.793 137.36 115.793 136.144C115.793 134.912 116.049 133.816 116.561 132.856C117.089 131.896 117.809 131.152 118.721 130.624C119.649 130.08 120.737 129.808 121.985 129.808C123.153 129.808 124.185 130.064 125.081 130.576C125.977 131.088 126.673 131.792 127.169 132.688C127.681 133.568 127.937 134.552 127.937 135.64C127.937 135.816 127.929 136 127.913 136.192C127.913 136.384 127.905 136.584 127.889 136.792H118.841C118.905 137.72 119.225 138.448 119.801 138.976C120.393 139.504 121.105 139.768 121.937 139.768C122.561 139.768 123.081 139.632 123.497 139.36C123.929 139.072 124.249 138.704 124.457 138.256H127.577C127.353 139.008 126.977 139.696 126.449 140.32C125.937 140.928 125.297 141.408 124.529 141.76C123.777 142.112 122.921 142.288 121.961 142.288ZM121.985 132.304C121.233 132.304 120.569 132.52 119.993 132.952C119.417 133.368 119.049 134.008 118.889 134.872H124.817C124.769 134.088 124.481 133.464 123.953 133C123.425 132.536 122.769 132.304 121.985 132.304ZM130.521 142V124.72H133.593V142H130.521ZM142.444 142.288C141.292 142.288 140.252 142.024 139.324 141.496C138.412 140.968 137.684 140.24 137.14 139.312C136.612 138.368 136.348 137.28 136.348 136.048C136.348 134.816 136.62 133.736 137.164 132.808C137.708 131.864 138.436 131.128 139.348 130.6C140.276 130.072 141.316 129.808 142.468 129.808C143.604 129.808 144.628 130.072 145.54 130.6C146.468 131.128 147.196 131.864 147.724 132.808C148.268 133.736 148.54 134.816 148.54 136.048C148.54 137.28 148.268 138.368 147.724 139.312C147.196 140.24 146.468 140.968 145.54 141.496C144.612 142.024 143.58 142.288 142.444 142.288ZM142.444 139.624C143.244 139.624 143.94 139.328 144.532 138.736C145.124 138.128 145.42 137.232 145.42 136.048C145.42 134.864 145.124 133.976 144.532 133.384C143.94 132.776 143.252 132.472 142.468 132.472C141.652 132.472 140.948 132.776 140.356 133.384C139.78 133.976 139.492 134.864 139.492 136.048C139.492 137.232 139.78 138.128 140.356 138.736C140.948 139.328 141.644 139.624 142.444 139.624ZM151.287 147.28V130.096H154.023L154.359 131.8C154.743 131.272 155.247 130.808 155.871 130.408C156.511 130.008 157.335 129.808 158.343 129.808C159.463 129.808 160.463 130.08 161.343 130.624C162.223 131.168 162.919 131.912 163.431 132.856C163.943 133.8 164.199 134.872 164.199 136.072C164.199 137.272 163.943 138.344 163.431 139.288C162.919 140.216 162.223 140.952 161.343 141.496C160.463 142.024 159.463 142.288 158.343 142.288C157.447 142.288 156.663 142.12 155.991 141.784C155.319 141.448 154.775 140.976 154.359 140.368V147.28H151.287ZM157.695 139.6C158.671 139.6 159.479 139.272 160.119 138.616C160.759 137.96 161.079 137.112 161.079 136.072C161.079 135.032 160.759 134.176 160.119 133.504C159.479 132.832 158.671 132.496 157.695 132.496C156.703 132.496 155.887 132.832 155.247 133.504C154.623 134.16 154.311 135.008 154.311 136.048C154.311 137.088 154.623 137.944 155.247 138.616C155.887 139.272 156.703 139.6 157.695 139.6ZM172.727 142.288C171.527 142.288 170.463 142.032 169.535 141.52C168.607 141.008 167.879 140.288 167.351 139.36C166.823 138.432 166.559 137.36 166.559 136.144C166.559 134.912 166.815 133.816 167.327 132.856C167.855 131.896 168.575 131.152 169.487 130.624C170.415 130.08 171.503 129.808 172.751 129.808C173.919 129.808 174.951 130.064 175.847 130.576C176.743 131.088 177.439 131.792 177.935 132.688C178.447 133.568 178.703 134.552 178.703 135.64C178.703 135.816 178.695 136 178.679 136.192C178.679 136.384 178.671 136.584 178.655 136.792H169.607C169.671 137.72 169.991 138.448 170.567 138.976C171.159 139.504 171.871 139.768 172.703 139.768C173.327 139.768 173.847 139.632 174.263 139.36C174.695 139.072 175.015 138.704 175.223 138.256H178.343C178.119 139.008 177.743 139.696 177.215 140.32C176.703 140.928 176.063 141.408 175.295 141.76C174.543 142.112 173.687 142.288 172.727 142.288ZM172.751 132.304C171.999 132.304 171.335 132.52 170.759 132.952C170.183 133.368 169.815 134.008 169.655 134.872H175.583C175.535 134.088 175.247 133.464 174.719 133C174.191 132.536 173.535 132.304 172.751 132.304ZM181.287 142V130.096H184.023L184.311 132.328C184.743 131.56 185.327 130.952 186.063 130.504C186.815 130.04 187.695 129.808 188.703 129.808V133.048H187.839C187.167 133.048 186.567 133.152 186.039 133.36C185.511 133.568 185.095 133.928 184.791 134.44C184.503 134.952 184.359 135.664 184.359 136.576V142H181.287ZM195.722 142.288C194.666 142.288 193.738 142.12 192.938 141.784C192.138 141.432 191.498 140.952 191.018 140.344C190.538 139.736 190.25 139.032 190.154 138.232H193.25C193.346 138.696 193.602 139.096 194.018 139.432C194.45 139.752 195.002 139.912 195.674 139.912C196.346 139.912 196.834 139.776 197.138 139.504C197.458 139.232 197.618 138.92 197.618 138.568C197.618 138.056 197.394 137.712 196.946 137.536C196.498 137.344 195.874 137.16 195.074 136.984C194.562 136.872 194.042 136.736 193.514 136.576C192.986 136.416 192.498 136.216 192.05 135.976C191.618 135.72 191.266 135.4 190.994 135.016C190.722 134.616 190.586 134.128 190.586 133.552C190.586 132.496 191.002 131.608 191.834 130.888C192.682 130.168 193.866 129.808 195.386 129.808C196.794 129.808 197.914 130.136 198.746 130.792C199.594 131.448 200.098 132.352 200.258 133.504H197.354C197.178 132.624 196.514 132.184 195.362 132.184C194.786 132.184 194.338 132.296 194.018 132.52C193.714 132.744 193.562 133.024 193.562 133.36C193.562 133.712 193.794 133.992 194.258 134.2C194.722 134.408 195.338 134.6 196.106 134.776C196.938 134.968 197.698 135.184 198.386 135.424C199.09 135.648 199.65 135.992 200.066 136.456C200.482 136.904 200.69 137.552 200.69 138.4C200.706 139.136 200.514 139.8 200.114 140.392C199.714 140.984 199.138 141.448 198.386 141.784C197.634 142.12 196.746 142.288 195.722 142.288Z" fill="#7F7F7F"/>
<rect x="38.5" y="167.5" width="197" height="59" rx="7.5" fill="white" stroke="#002C66"/>
<rect x="38.5" y="245.5" width="197" height="59" rx="7.5" fill="white" stroke="#002C66"/>
<path d="M326.632 142V125.2H329.704V142H326.632ZM332.888 142V130.096H335.6L335.84 132.112C336.208 131.408 336.736 130.848 337.424 130.432C338.128 130.016 338.952 129.808 339.896 129.808C341.368 129.808 342.512 130.272 343.328 131.2C344.144 132.128 344.552 133.488 344.552 135.28V142H341.48V135.568C341.48 134.544 341.272 133.76 340.856 133.216C340.44 132.672 339.792 132.4 338.912 132.4C338.048 132.4 337.336 132.704 336.776 133.312C336.232 133.92 335.96 134.768 335.96 135.856V142H332.888ZM350.589 142L346.221 130.096H349.437L352.461 139.096L355.485 130.096H358.701L354.309 142H350.589ZM365.836 142.288C364.636 142.288 363.572 142.032 362.644 141.52C361.716 141.008 360.988 140.288 360.46 139.36C359.932 138.432 359.668 137.36 359.668 136.144C359.668 134.912 359.924 133.816 360.436 132.856C360.964 131.896 361.684 131.152 362.596 130.624C363.524 130.08 364.612 129.808 365.86 129.808C367.028 129.808 368.06 130.064 368.956 130.576C369.852 131.088 370.548 131.792 371.044 132.688C371.556 133.568 371.812 134.552 371.812 135.64C371.812 135.816 371.804 136 371.788 136.192C371.788 136.384 371.78 136.584 371.764 136.792H362.716C362.78 137.72 363.1 138.448 363.676 138.976C364.268 139.504 364.98 139.768 365.812 139.768C366.436 139.768 366.956 139.632 367.372 139.36C367.804 139.072 368.124 138.704 368.332 138.256H371.452C371.228 139.008 370.852 139.696 370.324 140.32C369.812 140.928 369.172 141.408 368.404 141.76C367.652 142.112 366.796 142.288 365.836 142.288ZM365.86 132.304C365.108 132.304 364.444 132.52 363.868 132.952C363.292 133.368 362.924 134.008 362.764 134.872H368.692C368.644 134.088 368.356 133.464 367.828 133C367.3 132.536 366.644 132.304 365.86 132.304ZM379.316 142.288C378.26 142.288 377.332 142.12 376.532 141.784C375.732 141.432 375.092 140.952 374.612 140.344C374.132 139.736 373.844 139.032 373.748 138.232H376.844C376.94 138.696 377.196 139.096 377.612 139.432C378.044 139.752 378.596 139.912 379.268 139.912C379.94 139.912 380.428 139.776 380.732 139.504C381.052 139.232 381.212 138.92 381.212 138.568C381.212 138.056 380.988 137.712 380.54 137.536C380.092 137.344 379.468 137.16 378.668 136.984C378.156 136.872 377.636 136.736 377.108 136.576C376.58 136.416 376.092 136.216 375.644 135.976C375.212 135.72 374.86 135.4 374.588 135.016C374.316 134.616 374.18 134.128 374.18 133.552C374.18 132.496 374.596 131.608 375.428 130.888C376.276 130.168 377.46 129.808 378.98 129.808C380.388 129.808 381.508 130.136 382.34 130.792C383.188 131.448 383.692 132.352 383.852 133.504H380.948C380.772 132.624 380.108 132.184 378.956 132.184C378.38 132.184 377.932 132.296 377.612 132.52C377.308 132.744 377.156 133.024 377.156 133.36C377.156 133.712 377.388 133.992 377.852 134.2C378.316 134.408 378.932 134.6 379.7 134.776C380.532 134.968 381.292 135.184 381.98 135.424C382.684 135.648 383.244 135.992 383.66 136.456C384.076 136.904 384.284 137.552 384.284 138.4C384.3 139.136 384.108 139.8 383.708 140.392C383.308 140.984 382.732 141.448 381.98 141.784C381.228 142.12 380.34 142.288 379.316 142.288ZM391.934 142C390.686 142 389.686 141.696 388.934 141.088C388.182 140.48 387.806 139.4 387.806 137.848V132.664H385.766V130.096H387.806L388.166 126.904H390.878V130.096H394.094V132.664H390.878V137.872C390.878 138.448 390.998 138.848 391.238 139.072C391.494 139.28 391.926 139.384 392.534 139.384H394.022V142H391.934ZM402.139 142.288C400.987 142.288 399.947 142.024 399.019 141.496C398.107 140.968 397.379 140.24 396.835 139.312C396.307 138.368 396.043 137.28 396.043 136.048C396.043 134.816 396.315 133.736 396.859 132.808C397.403 131.864 398.131 131.128 399.043 130.6C399.971 130.072 401.011 129.808 402.163 129.808C403.299 129.808 404.323 130.072 405.235 130.6C406.163 131.128 406.891 131.864 407.419 132.808C407.963 133.736 408.235 134.816 408.235 136.048C408.235 137.28 407.963 138.368 407.419 139.312C406.891 140.24 406.163 140.968 405.235 141.496C404.307 142.024 403.275 142.288 402.139 142.288ZM402.139 139.624C402.939 139.624 403.635 139.328 404.227 138.736C404.819 138.128 405.115 137.232 405.115 136.048C405.115 134.864 404.819 133.976 404.227 133.384C403.635 132.776 402.947 132.472 402.163 132.472C401.347 132.472 400.643 132.776 400.051 133.384C399.475 133.976 399.187 134.864 399.187 136.048C399.187 137.232 399.475 138.128 400.051 138.736C400.643 139.328 401.339 139.624 402.139 139.624ZM410.982 142V130.096H413.718L414.006 132.328C414.438 131.56 415.022 130.952 415.758 130.504C416.51 130.04 417.39 129.808 418.398 129.808V133.048H417.534C416.862 133.048 416.262 133.152 415.734 133.36C415.206 133.568 414.79 133.928 414.486 134.44C414.198 134.952 414.054 135.664 414.054 136.576V142H410.982ZM425.418 142.288C424.362 142.288 423.434 142.12 422.634 141.784C421.834 141.432 421.194 140.952 420.714 140.344C420.234 139.736 419.946 139.032 419.85 138.232H422.946C423.042 138.696 423.298 139.096 423.714 139.432C424.146 139.752 424.698 139.912 425.37 139.912C426.042 139.912 426.53 139.776 426.834 139.504C427.154 139.232 427.314 138.92 427.314 138.568C427.314 138.056 427.09 137.712 426.642 137.536C426.194 137.344 425.57 137.16 424.77 136.984C424.258 136.872 423.738 136.736 423.21 136.576C422.682 136.416 422.194 136.216 421.746 135.976C421.314 135.72 420.962 135.4 420.69 135.016C420.418 134.616 420.282 134.128 420.282 133.552C420.282 132.496 420.698 131.608 421.53 130.888C422.378 130.168 423.562 129.808 425.082 129.808C426.49 129.808 427.61 130.136 428.442 130.792C429.29 131.448 429.794 132.352 429.954 133.504H427.05C426.874 132.624 426.21 132.184 425.058 132.184C424.482 132.184 424.034 132.296 423.714 132.52C423.41 132.744 423.258 133.024 423.258 133.36C423.258 133.712 423.49 133.992 423.954 134.2C424.418 134.408 425.034 134.6 425.802 134.776C426.634 134.968 427.394 135.184 428.082 135.424C428.786 135.648 429.346 135.992 429.762 136.456C430.178 136.904 430.386 137.552 430.386 138.4C430.402 139.136 430.21 139.8 429.81 140.392C429.41 140.984 428.834 141.448 428.082 141.784C427.33 142.12 426.442 142.288 425.418 142.288Z" fill="#7F7F7F"/>
<rect x="280.5" y="167.5" width="197" height="59" rx="7.5" fill="white" stroke="#002C66"/>
<rect x="280.5" y="245.5" width="197" height="59" rx="7.5" fill="white" stroke="#002C66"/>
<path d="M235.647 274.064C235.13 274.26 234.869 274.837 235.064 275.353L238.243 283.773C238.438 284.29 239.015 284.551 239.532 284.356C240.048 284.161 240.309 283.584 240.114 283.067L237.289 275.582L244.773 272.757C245.29 272.562 245.551 271.985 245.356 271.468C245.161 270.952 244.584 270.691 244.067 270.886L235.647 274.064ZM279.59 274.088C271.06 277.918 264.502 279.795 257.998 279.801C251.495 279.807 244.938 277.942 236.412 274.089L235.588 275.911C244.232 279.817 251.089 281.808 257.999 281.801C264.91 281.795 271.767 279.793 280.41 275.912L279.59 274.088Z" fill="#002C66"/>
<path d="M280.169 197.986C280.713 197.892 281.079 197.376 280.986 196.831L279.463 187.961C279.37 187.416 278.853 187.051 278.309 187.144C277.764 187.238 277.399 187.755 277.492 188.299L278.845 196.184L270.961 197.537C270.416 197.63 270.051 198.147 270.144 198.692C270.237 199.236 270.754 199.601 271.299 199.508L280.169 197.986ZM236.597 197.803C245.132 191.458 251.616 188.581 257.989 188.655C264.375 188.729 270.869 191.768 279.423 197.817L280.577 196.184C271.951 190.084 265.035 186.737 258.012 186.655C250.975 186.573 244.05 189.77 235.403 196.198L236.597 197.803Z" fill="#002C66"/>
<path d="M65.76 204.24C64.7333 204.24 63.8067 204.04 62.98 203.64C62.1533 203.227 61.4933 202.607 61 201.78C60.52 200.953 60.28 199.907 60.28 198.64V190H62.84V198.66C62.84 199.753 63.1 200.567 63.62 201.1C64.1533 201.633 64.8867 201.9 65.82 201.9C66.74 201.9 67.4667 201.633 68 201.1C68.5333 200.567 68.8 199.753 68.8 198.66V190H71.36V198.64C71.36 199.907 71.1067 200.953 70.6 201.78C70.0933 202.607 69.4133 203.227 68.56 203.64C67.72 204.04 66.7867 204.24 65.76 204.24ZM73.9133 208.4V194.08H76.1933L76.4733 195.5C76.7933 195.06 77.2133 194.673 77.7333 194.34C78.2666 194.007 78.9533 193.84 79.7933 193.84C80.7266 193.84 81.5599 194.067 82.2933 194.52C83.0266 194.973 83.6066 195.593 84.0333 196.38C84.4599 197.167 84.6733 198.06 84.6733 199.06C84.6733 200.06 84.4599 200.953 84.0333 201.74C83.6066 202.513 83.0266 203.127 82.2933 203.58C81.5599 204.02 80.7266 204.24 79.7933 204.24C79.0466 204.24 78.3933 204.1 77.8333 203.82C77.2733 203.54 76.8199 203.147 76.4733 202.64V208.4H73.9133ZM79.2533 202C80.0666 202 80.7399 201.727 81.2733 201.18C81.8066 200.633 82.0733 199.927 82.0733 199.06C82.0733 198.193 81.8066 197.48 81.2733 196.92C80.7399 196.36 80.0666 196.08 79.2533 196.08C78.4266 196.08 77.7466 196.36 77.2133 196.92C76.6933 197.467 76.4333 198.173 76.4333 199.04C76.4333 199.907 76.6933 200.62 77.2133 201.18C77.7466 201.727 78.4266 202 79.2533 202ZM86.9602 204V189.6H89.5202V204H86.9602ZM96.8959 204.24C95.9359 204.24 95.0693 204.02 94.2959 203.58C93.5359 203.14 92.9293 202.533 92.4759 201.76C92.0359 200.973 91.8159 200.067 91.8159 199.04C91.8159 198.013 92.0426 197.113 92.4959 196.34C92.9493 195.553 93.5559 194.94 94.3159 194.5C95.0893 194.06 95.9559 193.84 96.9159 193.84C97.8626 193.84 98.7159 194.06 99.4759 194.5C100.249 194.94 100.856 195.553 101.296 196.34C101.749 197.113 101.976 198.013 101.976 199.04C101.976 200.067 101.749 200.973 101.296 201.76C100.856 202.533 100.249 203.14 99.4759 203.58C98.7026 204.02 97.8426 204.24 96.8959 204.24ZM96.8959 202.02C97.5626 202.02 98.1426 201.773 98.6359 201.28C99.1293 200.773 99.3759 200.027 99.3759 199.04C99.3759 198.053 99.1293 197.313 98.6359 196.82C98.1426 196.313 97.5693 196.06 96.9159 196.06C96.2359 196.06 95.6493 196.313 95.1559 196.82C94.6759 197.313 94.4359 198.053 94.4359 199.04C94.4359 200.027 94.6759 200.773 95.1559 201.28C95.6493 201.773 96.2293 202.02 96.8959 202.02ZM107.685 204.24C106.832 204.24 106.132 204.107 105.585 203.84C105.038 203.56 104.632 203.193 104.365 202.74C104.098 202.287 103.965 201.787 103.965 201.24C103.965 200.32 104.325 199.573 105.045 199C105.765 198.427 106.845 198.14 108.285 198.14H110.805V197.9C110.805 197.22 110.612 196.72 110.225 196.4C109.838 196.08 109.358 195.92 108.785 195.92C108.265 195.92 107.812 196.047 107.425 196.3C107.038 196.54 106.798 196.9 106.705 197.38H104.205C104.272 196.66 104.512 196.033 104.925 195.5C105.352 194.967 105.898 194.56 106.565 194.28C107.232 193.987 107.978 193.84 108.805 193.84C110.218 193.84 111.332 194.193 112.145 194.9C112.958 195.607 113.365 196.607 113.365 197.9V204H111.185L110.945 202.4C110.652 202.933 110.238 203.373 109.705 203.72C109.185 204.067 108.512 204.24 107.685 204.24ZM108.265 202.24C108.998 202.24 109.565 202 109.965 201.52C110.378 201.04 110.638 200.447 110.745 199.74H108.565C107.885 199.74 107.398 199.867 107.105 200.12C106.812 200.36 106.665 200.66 106.665 201.02C106.665 201.407 106.812 201.707 107.105 201.92C107.398 202.133 107.785 202.24 108.265 202.24ZM120.368 204.24C119.434 204.24 118.601 204.013 117.868 203.56C117.134 203.107 116.554 202.487 116.128 201.7C115.701 200.913 115.488 200.02 115.488 199.02C115.488 198.02 115.701 197.133 116.128 196.36C116.554 195.573 117.134 194.96 117.868 194.52C118.601 194.067 119.434 193.84 120.368 193.84C121.114 193.84 121.768 193.98 122.328 194.26C122.888 194.54 123.341 194.933 123.688 195.44V189.6H126.248V204H123.968L123.688 202.58C123.368 203.02 122.941 203.407 122.408 203.74C121.888 204.073 121.208 204.24 120.368 204.24ZM120.908 202C121.734 202 122.408 201.727 122.928 201.18C123.461 200.62 123.728 199.907 123.728 199.04C123.728 198.173 123.461 197.467 122.928 196.92C122.408 196.36 121.734 196.08 120.908 196.08C120.094 196.08 119.421 196.353 118.888 196.9C118.354 197.447 118.088 198.153 118.088 199.02C118.088 199.887 118.354 200.6 118.888 201.16C119.421 201.72 120.094 202 120.908 202ZM133.62 208.4V194.08H135.9L136.18 195.5C136.5 195.06 136.92 194.673 137.44 194.34C137.974 194.007 138.66 193.84 139.5 193.84C140.434 193.84 141.267 194.067 142 194.52C142.734 194.973 143.314 195.593 143.74 196.38C144.167 197.167 144.38 198.06 144.38 199.06C144.38 200.06 144.167 200.953 143.74 201.74C143.314 202.513 142.734 203.127 142 203.58C141.267 204.02 140.434 204.24 139.5 204.24C138.754 204.24 138.1 204.1 137.54 203.82C136.98 203.54 136.527 203.147 136.18 202.64V208.4H133.62ZM138.96 202C139.774 202 140.447 201.727 140.98 201.18C141.514 200.633 141.78 199.927 141.78 199.06C141.78 198.193 141.514 197.48 140.98 196.92C140.447 196.36 139.774 196.08 138.96 196.08C138.134 196.08 137.454 196.36 136.92 196.92C136.4 197.467 136.14 198.173 136.14 199.04C136.14 199.907 136.4 200.62 136.92 201.18C137.454 201.727 138.134 202 138.96 202ZM146.667 204V194.08H148.947L149.187 195.94C149.547 195.3 150.034 194.793 150.647 194.42C151.274 194.033 152.007 193.84 152.847 193.84V196.54H152.127C151.567 196.54 151.067 196.627 150.627 196.8C150.187 196.973 149.841 197.273 149.587 197.7C149.347 198.127 149.227 198.72 149.227 199.48V204H146.667ZM159.181 204.24C158.221 204.24 157.354 204.02 156.581 203.58C155.821 203.14 155.214 202.533 154.761 201.76C154.321 200.973 154.101 200.067 154.101 199.04C154.101 198.013 154.328 197.113 154.781 196.34C155.234 195.553 155.841 194.94 156.601 194.5C157.374 194.06 158.241 193.84 159.201 193.84C160.148 193.84 161.001 194.06 161.761 194.5C162.534 194.94 163.141 195.553 163.581 196.34C164.034 197.113 164.261 198.013 164.261 199.04C164.261 200.067 164.034 200.973 163.581 201.76C163.141 202.533 162.534 203.14 161.761 203.58C160.988 204.02 160.128 204.24 159.181 204.24ZM159.181 202.02C159.848 202.02 160.428 201.773 160.921 201.28C161.414 200.773 161.661 200.027 161.661 199.04C161.661 198.053 161.414 197.313 160.921 196.82C160.428 196.313 159.854 196.06 159.201 196.06C158.521 196.06 157.934 196.313 157.441 196.82C156.961 197.313 156.721 198.053 156.721 199.04C156.721 200.027 156.961 200.773 157.441 201.28C157.934 201.773 158.514 202.02 159.181 202.02ZM167.97 192.54C167.503 192.54 167.117 192.4 166.81 192.12C166.517 191.84 166.37 191.487 166.37 191.06C166.37 190.633 166.517 190.287 166.81 190.02C167.117 189.74 167.503 189.6 167.97 189.6C168.437 189.6 168.817 189.74 169.11 190.02C169.417 190.287 169.57 190.633 169.57 191.06C169.57 191.487 169.417 191.84 169.11 192.12C168.817 192.4 168.437 192.54 167.97 192.54ZM164.67 208.4V206.22H165.45C165.89 206.22 166.203 206.133 166.39 205.96C166.577 205.787 166.67 205.493 166.67 205.08V194.08H169.23V205.08C169.23 206.28 168.923 207.133 168.31 207.64C167.71 208.147 166.89 208.4 165.85 208.4H164.67ZM176.722 204.24C175.722 204.24 174.835 204.027 174.062 203.6C173.288 203.173 172.682 202.573 172.242 201.8C171.802 201.027 171.582 200.133 171.582 199.12C171.582 198.093 171.795 197.18 172.222 196.38C172.662 195.58 173.262 194.96 174.022 194.52C174.795 194.067 175.702 193.84 176.742 193.84C177.715 193.84 178.575 194.053 179.322 194.48C180.068 194.907 180.648 195.493 181.062 196.24C181.488 196.973 181.702 197.793 181.702 198.7C181.702 198.847 181.695 199 181.682 199.16C181.682 199.32 181.675 199.487 181.662 199.66H174.122C174.175 200.433 174.442 201.04 174.922 201.48C175.415 201.92 176.008 202.14 176.702 202.14C177.222 202.14 177.655 202.027 178.002 201.8C178.362 201.56 178.628 201.253 178.802 200.88H181.402C181.215 201.507 180.902 202.08 180.462 202.6C180.035 203.107 179.502 203.507 178.862 203.8C178.235 204.093 177.522 204.24 176.722 204.24ZM176.742 195.92C176.115 195.92 175.562 196.1 175.082 196.46C174.602 196.807 174.295 197.34 174.162 198.06H179.102C179.062 197.407 178.822 196.887 178.382 196.5C177.942 196.113 177.395 195.92 176.742 195.92ZM188.715 204.24C187.701 204.24 186.808 204.02 186.035 203.58C185.261 203.14 184.648 202.527 184.195 201.74C183.755 200.953 183.535 200.053 183.535 199.04C183.535 198.027 183.755 197.127 184.195 196.34C184.648 195.553 185.261 194.94 186.035 194.5C186.808 194.06 187.701 193.84 188.715 193.84C189.981 193.84 191.048 194.173 191.915 194.84C192.781 195.493 193.335 196.4 193.575 197.56H190.875C190.741 197.08 190.475 196.707 190.075 196.44C189.688 196.16 189.228 196.02 188.695 196.02C187.988 196.02 187.388 196.287 186.895 196.82C186.401 197.353 186.155 198.093 186.155 199.04C186.155 199.987 186.401 200.727 186.895 201.26C187.388 201.793 187.988 202.06 188.695 202.06C189.228 202.06 189.688 201.927 190.075 201.66C190.475 201.393 190.741 201.013 190.875 200.52H193.575C193.335 201.64 192.781 202.54 191.915 203.22C191.048 203.9 189.981 204.24 188.715 204.24ZM200.13 204C199.09 204 198.257 203.747 197.63 203.24C197.003 202.733 196.69 201.833 196.69 200.54V196.22H194.99V194.08H196.69L196.99 191.42H199.25V194.08H201.93V196.22H199.25V200.56C199.25 201.04 199.35 201.373 199.55 201.56C199.763 201.733 200.123 201.82 200.63 201.82H201.87V204H200.13ZM208.228 204.24C207.348 204.24 206.575 204.1 205.908 203.82C205.241 203.527 204.708 203.127 204.308 202.62C203.908 202.113 203.668 201.527 203.588 200.86H206.168C206.248 201.247 206.461 201.58 206.808 201.86C207.168 202.127 207.628 202.26 208.188 202.26C208.748 202.26 209.155 202.147 209.408 201.92C209.675 201.693 209.808 201.433 209.808 201.14C209.808 200.713 209.621 200.427 209.248 200.28C208.875 200.12 208.355 199.967 207.688 199.82C207.261 199.727 206.828 199.613 206.388 199.48C205.948 199.347 205.541 199.18 205.168 198.98C204.808 198.767 204.515 198.5 204.288 198.18C204.061 197.847 203.948 197.44 203.948 196.96C203.948 196.08 204.295 195.34 204.988 194.74C205.695 194.14 206.681 193.84 207.948 193.84C209.121 193.84 210.055 194.113 210.748 194.66C211.455 195.207 211.875 195.96 212.008 196.92H209.588C209.441 196.187 208.888 195.82 207.928 195.82C207.448 195.82 207.075 195.913 206.808 196.1C206.555 196.287 206.428 196.52 206.428 196.8C206.428 197.093 206.621 197.327 207.008 197.5C207.395 197.673 207.908 197.833 208.548 197.98C209.241 198.14 209.875 198.32 210.448 198.52C211.035 198.707 211.501 198.993 211.848 199.38C212.195 199.753 212.368 200.293 212.368 201C212.381 201.613 212.221 202.167 211.888 202.66C211.555 203.153 211.075 203.54 210.448 203.82C209.821 204.1 209.081 204.24 208.228 204.24Z" fill="#002C66"/>
<path d="M316.36 204V190H325.4V192.06H318.92V195.98H324.16V198H318.92V204H316.36ZM328.696 192.54C328.229 192.54 327.842 192.4 327.536 192.12C327.242 191.84 327.096 191.487 327.096 191.06C327.096 190.633 327.242 190.287 327.536 190.02C327.842 189.74 328.229 189.6 328.696 189.6C329.162 189.6 329.542 189.74 329.836 190.02C330.142 190.287 330.296 190.633 330.296 191.06C330.296 191.487 330.142 191.84 329.836 192.12C329.542 192.4 329.162 192.54 328.696 192.54ZM327.416 204V194.08H329.976V204H327.416ZM332.648 204V194.08H334.908L335.108 195.76C335.414 195.173 335.854 194.707 336.428 194.36C337.014 194.013 337.701 193.84 338.488 193.84C339.714 193.84 340.668 194.227 341.348 195C342.028 195.773 342.368 196.907 342.368 198.4V204H339.808V198.64C339.808 197.787 339.634 197.133 339.288 196.68C338.941 196.227 338.401 196 337.668 196C336.948 196 336.354 196.253 335.888 196.76C335.434 197.267 335.208 197.973 335.208 198.88V204H332.648ZM349.376 204.24C348.442 204.24 347.609 204.013 346.876 203.56C346.142 203.107 345.562 202.487 345.136 201.7C344.709 200.913 344.496 200.02 344.496 199.02C344.496 198.02 344.709 197.133 345.136 196.36C345.562 195.573 346.142 194.96 346.876 194.52C347.609 194.067 348.442 193.84 349.376 193.84C350.122 193.84 350.776 193.98 351.336 194.26C351.896 194.54 352.349 194.933 352.696 195.44V189.6H355.256V204H352.976L352.696 202.58C352.376 203.02 351.949 203.407 351.416 203.74C350.896 204.073 350.216 204.24 349.376 204.24ZM349.916 202C350.742 202 351.416 201.727 351.936 201.18C352.469 200.62 352.736 199.907 352.736 199.04C352.736 198.173 352.469 197.467 351.936 196.92C351.416 196.36 350.742 196.08 349.916 196.08C349.102 196.08 348.429 196.353 347.896 196.9C347.362 197.447 347.096 198.153 347.096 199.02C347.096 199.887 347.362 200.6 347.896 201.16C348.429 201.72 349.102 202 349.916 202ZM362.628 208.4V194.08H364.908L365.188 195.5C365.508 195.06 365.928 194.673 366.448 194.34C366.981 194.007 367.668 193.84 368.508 193.84C369.441 193.84 370.275 194.067 371.008 194.52C371.741 194.973 372.321 195.593 372.748 196.38C373.175 197.167 373.388 198.06 373.388 199.06C373.388 200.06 373.175 200.953 372.748 201.74C372.321 202.513 371.741 203.127 371.008 203.58C370.275 204.02 369.441 204.24 368.508 204.24C367.761 204.24 367.108 204.1 366.548 203.82C365.988 203.54 365.535 203.147 365.188 202.64V208.4H362.628ZM367.968 202C368.781 202 369.455 201.727 369.988 201.18C370.521 200.633 370.788 199.927 370.788 199.06C370.788 198.193 370.521 197.48 369.988 196.92C369.455 196.36 368.781 196.08 367.968 196.08C367.141 196.08 366.461 196.36 365.928 196.92C365.408 197.467 365.148 198.173 365.148 199.04C365.148 199.907 365.408 200.62 365.928 201.18C366.461 201.727 367.141 202 367.968 202ZM375.675 204V194.08H377.955L378.195 195.94C378.555 195.3 379.042 194.793 379.655 194.42C380.282 194.033 381.015 193.84 381.855 193.84V196.54H381.135C380.575 196.54 380.075 196.627 379.635 196.8C379.195 196.973 378.848 197.273 378.595 197.7C378.355 198.127 378.235 198.72 378.235 199.48V204H375.675ZM388.189 204.24C387.229 204.24 386.362 204.02 385.589 203.58C384.829 203.14 384.222 202.533 383.769 201.76C383.329 200.973 383.109 200.067 383.109 199.04C383.109 198.013 383.336 197.113 383.789 196.34C384.242 195.553 384.849 194.94 385.609 194.5C386.382 194.06 387.249 193.84 388.209 193.84C389.156 193.84 390.009 194.06 390.769 194.5C391.542 194.94 392.149 195.553 392.589 196.34C393.042 197.113 393.269 198.013 393.269 199.04C393.269 200.067 393.042 200.973 392.589 201.76C392.149 202.533 391.542 203.14 390.769 203.58C389.996 204.02 389.136 204.24 388.189 204.24ZM388.189 202.02C388.856 202.02 389.436 201.773 389.929 201.28C390.422 200.773 390.669 200.027 390.669 199.04C390.669 198.053 390.422 197.313 389.929 196.82C389.436 196.313 388.862 196.06 388.209 196.06C387.529 196.06 386.942 196.313 386.449 196.82C385.969 197.313 385.729 198.053 385.729 199.04C385.729 200.027 385.969 200.773 386.449 201.28C386.942 201.773 387.522 202.02 388.189 202.02ZM396.978 192.54C396.511 192.54 396.124 192.4 395.818 192.12C395.524 191.84 395.378 191.487 395.378 191.06C395.378 190.633 395.524 190.287 395.818 190.02C396.124 189.74 396.511 189.6 396.978 189.6C397.444 189.6 397.824 189.74 398.118 190.02C398.424 190.287 398.578 190.633 398.578 191.06C398.578 191.487 398.424 191.84 398.118 192.12C397.824 192.4 397.444 192.54 396.978 192.54ZM393.678 208.4V206.22H394.458C394.898 206.22 395.211 206.133 395.398 205.96C395.584 205.787 395.678 205.493 395.678 205.08V194.08H398.238V205.08C398.238 206.28 397.931 207.133 397.318 207.64C396.718 208.147 395.898 208.4 394.858 208.4H393.678ZM405.729 204.24C404.729 204.24 403.843 204.027 403.069 203.6C402.296 203.173 401.689 202.573 401.249 201.8C400.809 201.027 400.589 200.133 400.589 199.12C400.589 198.093 400.803 197.18 401.229 196.38C401.669 195.58 402.269 194.96 403.029 194.52C403.803 194.067 404.709 193.84 405.749 193.84C406.723 193.84 407.583 194.053 408.329 194.48C409.076 194.907 409.656 195.493 410.069 196.24C410.496 196.973 410.709 197.793 410.709 198.7C410.709 198.847 410.703 199 410.689 199.16C410.689 199.32 410.683 199.487 410.669 199.66H403.129C403.183 200.433 403.449 201.04 403.929 201.48C404.423 201.92 405.016 202.14 405.709 202.14C406.229 202.14 406.663 202.027 407.009 201.8C407.369 201.56 407.636 201.253 407.809 200.88H410.409C410.223 201.507 409.909 202.08 409.469 202.6C409.043 203.107 408.509 203.507 407.869 203.8C407.243 204.093 406.529 204.24 405.729 204.24ZM405.749 195.92C405.123 195.92 404.569 196.1 404.089 196.46C403.609 196.807 403.303 197.34 403.169 198.06H408.109C408.069 197.407 407.829 196.887 407.389 196.5C406.949 196.113 406.403 195.92 405.749 195.92ZM417.723 204.24C416.709 204.24 415.816 204.02 415.043 203.58C414.269 203.14 413.656 202.527 413.203 201.74C412.763 200.953 412.543 200.053 412.543 199.04C412.543 198.027 412.763 197.127 413.203 196.34C413.656 195.553 414.269 194.94 415.043 194.5C415.816 194.06 416.709 193.84 417.723 193.84C418.989 193.84 420.056 194.173 420.923 194.84C421.789 195.493 422.343 196.4 422.582 197.56H419.883C419.749 197.08 419.483 196.707 419.083 196.44C418.696 196.16 418.236 196.02 417.703 196.02C416.996 196.02 416.396 196.287 415.903 196.82C415.409 197.353 415.163 198.093 415.163 199.04C415.163 199.987 415.409 200.727 415.903 201.26C416.396 201.793 416.996 202.06 417.703 202.06C418.236 202.06 418.696 201.927 419.083 201.66C419.483 201.393 419.749 201.013 419.883 200.52H422.582C422.343 201.64 421.789 202.54 420.923 203.22C420.056 203.9 418.989 204.24 417.723 204.24ZM429.138 204C428.098 204 427.265 203.747 426.638 203.24C426.011 202.733 425.698 201.833 425.698 200.54V196.22H423.998V194.08H425.698L425.998 191.42H428.258V194.08H430.938V196.22H428.258V200.56C428.258 201.04 428.358 201.373 428.558 201.56C428.771 201.733 429.131 201.82 429.638 201.82H430.878V204H429.138ZM437.236 204.24C436.356 204.24 435.583 204.1 434.916 203.82C434.249 203.527 433.716 203.127 433.316 202.62C432.916 202.113 432.676 201.527 432.596 200.86H435.176C435.256 201.247 435.469 201.58 435.816 201.86C436.176 202.127 436.636 202.26 437.196 202.26C437.756 202.26 438.163 202.147 438.416 201.92C438.683 201.693 438.816 201.433 438.816 201.14C438.816 200.713 438.629 200.427 438.256 200.28C437.883 200.12 437.363 199.967 436.696 199.82C436.269 199.727 435.836 199.613 435.396 199.48C434.956 199.347 434.549 199.18 434.176 198.98C433.816 198.767 433.523 198.5 433.296 198.18C433.069 197.847 432.956 197.44 432.956 196.96C432.956 196.08 433.303 195.34 433.996 194.74C434.703 194.14 435.689 193.84 436.956 193.84C438.129 193.84 439.063 194.113 439.756 194.66C440.463 195.207 440.883 195.96 441.016 196.92H438.596C438.449 196.187 437.896 195.82 436.936 195.82C436.456 195.82 436.083 195.913 435.816 196.1C435.563 196.287 435.436 196.52 435.436 196.8C435.436 197.093 435.629 197.327 436.016 197.5C436.403 197.673 436.916 197.833 437.556 197.98C438.249 198.14 438.883 198.32 439.456 198.52C440.043 198.707 440.509 198.993 440.856 199.38C441.203 199.753 441.376 200.293 441.376 201C441.389 201.613 441.229 202.167 440.896 202.66C440.563 203.153 440.083 203.54 439.456 203.82C438.829 204.1 438.089 204.24 437.236 204.24Z" fill="#002C66"/>
<path d="M350.36 282V268H352.92V282H350.36ZM355.573 282V272.08H357.833L358.033 273.76C358.34 273.173 358.78 272.707 359.353 272.36C359.94 272.013 360.627 271.84 361.413 271.84C362.64 271.84 363.593 272.227 364.273 273C364.953 273.773 365.293 274.907 365.293 276.4V282H362.733V276.64C362.733 275.787 362.56 275.133 362.213 274.68C361.867 274.227 361.327 274 360.593 274C359.873 274 359.28 274.253 358.813 274.76C358.36 275.267 358.133 275.973 358.133 276.88V282H355.573ZM370.324 282L366.684 272.08H369.364L371.884 279.58L374.404 272.08H377.084L373.424 282H370.324ZM383.03 282.24C382.03 282.24 381.143 282.027 380.37 281.6C379.597 281.173 378.99 280.573 378.55 279.8C378.11 279.027 377.89 278.133 377.89 277.12C377.89 276.093 378.103 275.18 378.53 274.38C378.97 273.58 379.57 272.96 380.33 272.52C381.103 272.067 382.01 271.84 383.05 271.84C384.023 271.84 384.883 272.053 385.63 272.48C386.377 272.907 386.957 273.493 387.37 274.24C387.797 274.973 388.01 275.793 388.01 276.7C388.01 276.847 388.003 277 387.99 277.16C387.99 277.32 387.983 277.487 387.97 277.66H380.43C380.483 278.433 380.75 279.04 381.23 279.48C381.723 279.92 382.317 280.14 383.01 280.14C383.53 280.14 383.963 280.027 384.31 279.8C384.67 279.56 384.937 279.253 385.11 278.88H387.71C387.523 279.507 387.21 280.08 386.77 280.6C386.343 281.107 385.81 281.507 385.17 281.8C384.543 282.093 383.83 282.24 383.03 282.24ZM383.05 273.92C382.423 273.92 381.87 274.1 381.39 274.46C380.91 274.807 380.603 275.34 380.47 276.06H385.41C385.37 275.407 385.13 274.887 384.69 274.5C384.25 274.113 383.703 273.92 383.05 273.92ZM394.263 282.24C393.383 282.24 392.61 282.1 391.943 281.82C391.277 281.527 390.743 281.127 390.343 280.62C389.943 280.113 389.703 279.527 389.623 278.86H392.203C392.283 279.247 392.497 279.58 392.843 279.86C393.203 280.127 393.663 280.26 394.223 280.26C394.783 280.26 395.19 280.147 395.443 279.92C395.71 279.693 395.843 279.433 395.843 279.14C395.843 278.713 395.657 278.427 395.283 278.28C394.91 278.12 394.39 277.967 393.723 277.82C393.297 277.727 392.863 277.613 392.423 277.48C391.983 277.347 391.577 277.18 391.203 276.98C390.843 276.767 390.55 276.5 390.323 276.18C390.097 275.847 389.983 275.44 389.983 274.96C389.983 274.08 390.33 273.34 391.023 272.74C391.73 272.14 392.717 271.84 393.983 271.84C395.157 271.84 396.09 272.113 396.783 272.66C397.49 273.207 397.91 273.96 398.043 274.92H395.623C395.477 274.187 394.923 273.82 393.963 273.82C393.483 273.82 393.11 273.913 392.843 274.1C392.59 274.287 392.463 274.52 392.463 274.8C392.463 275.093 392.657 275.327 393.043 275.5C393.43 275.673 393.943 275.833 394.583 275.98C395.277 276.14 395.91 276.32 396.483 276.52C397.07 276.707 397.537 276.993 397.883 277.38C398.23 277.753 398.403 278.293 398.403 279C398.417 279.613 398.257 280.167 397.923 280.66C397.59 281.153 397.11 281.54 396.483 281.82C395.857 282.1 395.117 282.24 394.263 282.24ZM404.779 282C403.739 282 402.905 281.747 402.279 281.24C401.652 280.733 401.339 279.833 401.339 278.54V274.22H399.639V272.08H401.339L401.639 269.42H403.899V272.08H406.579V274.22H403.899V278.56C403.899 279.04 403.999 279.373 404.199 279.56C404.412 279.733 404.772 279.82 405.279 279.82H406.519V282H404.779Z" fill="#002C66"/>
<path d="M89.48 282.24C88.16 282.24 87.0067 281.94 86.02 281.34C85.0333 280.74 84.2667 279.907 83.72 278.84C83.1733 277.76 82.9 276.507 82.9 275.08C82.9 273.64 83.18 272.373 83.74 271.28C84.3133 270.173 85.12 269.313 86.16 268.7C87.2133 268.073 88.46 267.76 89.9 267.76C91.54 267.76 92.9 268.153 93.98 268.94C95.06 269.727 95.76 270.813 96.08 272.2H93.22C93.0067 271.547 92.62 271.04 92.06 270.68C91.5 270.307 90.78 270.12 89.9 270.12C88.5 270.12 87.42 270.567 86.66 271.46C85.9 272.34 85.52 273.553 85.52 275.1C85.52 276.647 85.8933 277.847 86.64 278.7C87.4 279.54 88.4267 279.96 89.72 279.96C90.9867 279.96 91.94 279.62 92.58 278.94C93.2333 278.247 93.6267 277.34 93.76 276.22H90.22V274.3H96.34V282H93.98L93.78 280.16C93.3267 280.827 92.76 281.34 92.08 281.7C91.4 282.06 90.5333 282.24 89.48 282.24ZM103.589 282.24C102.589 282.24 101.702 282.027 100.929 281.6C100.155 281.173 99.5488 280.573 99.1088 279.8C98.6688 279.027 98.4488 278.133 98.4488 277.12C98.4488 276.093 98.6621 275.18 99.0888 274.38C99.5288 273.58 100.129 272.96 100.889 272.52C101.662 272.067 102.569 271.84 103.609 271.84C104.582 271.84 105.442 272.053 106.189 272.48C106.935 272.907 107.515 273.493 107.929 274.24C108.355 274.973 108.569 275.793 108.569 276.7C108.569 276.847 108.562 277 108.549 277.16C108.549 277.32 108.542 277.487 108.529 277.66H100.989C101.042 278.433 101.309 279.04 101.789 279.48C102.282 279.92 102.875 280.14 103.569 280.14C104.089 280.14 104.522 280.027 104.869 279.8C105.229 279.56 105.495 279.253 105.669 278.88H108.269C108.082 279.507 107.769 280.08 107.329 280.6C106.902 281.107 106.369 281.507 105.729 281.8C105.102 282.093 104.389 282.24 103.589 282.24ZM103.609 273.92C102.982 273.92 102.429 274.1 101.949 274.46C101.469 274.807 101.162 275.34 101.029 276.06H105.969C105.929 275.407 105.689 274.887 105.249 274.5C104.809 274.113 104.262 273.92 103.609 273.92ZM114.966 282C113.926 282 113.093 281.747 112.466 281.24C111.839 280.733 111.526 279.833 111.526 278.54V274.22H109.826V272.08H111.526L111.826 269.42H114.086V272.08H116.766V274.22H114.086V278.56C114.086 279.04 114.186 279.373 114.386 279.56C114.599 279.733 114.959 279.82 115.466 279.82H116.706V282H114.966ZM124.19 282V274.22H122.83V272.08H124.19V270.92C124.19 269.72 124.49 268.867 125.09 268.36C125.703 267.853 126.53 267.6 127.57 267.6H128.67V269.78H127.97C127.53 269.78 127.216 269.867 127.03 270.04C126.843 270.213 126.75 270.507 126.75 270.92V272.08H128.89V274.22H126.75V282H124.19ZM134.637 282.24C133.397 282.24 132.437 281.853 131.757 281.08C131.091 280.307 130.757 279.173 130.757 277.68V272.08H133.297V277.44C133.297 278.293 133.471 278.947 133.817 279.4C134.164 279.853 134.711 280.08 135.457 280.08C136.164 280.08 136.744 279.827 137.197 279.32C137.664 278.813 137.897 278.107 137.897 277.2V272.08H140.457V282H138.197L137.997 280.32C137.691 280.907 137.244 281.373 136.657 281.72C136.084 282.067 135.411 282.24 134.637 282.24ZM143.085 282V272.08H145.345L145.545 273.76C145.852 273.173 146.292 272.707 146.865 272.36C147.452 272.013 148.138 271.84 148.925 271.84C150.152 271.84 151.105 272.227 151.785 273C152.465 273.773 152.805 274.907 152.805 276.4V282H150.245V276.64C150.245 275.787 150.072 275.133 149.725 274.68C149.378 274.227 148.838 274 148.105 274C147.385 274 146.792 274.253 146.325 274.76C145.872 275.267 145.645 275.973 145.645 276.88V282H143.085ZM159.813 282.24C158.88 282.24 158.046 282.013 157.313 281.56C156.58 281.107 156 280.487 155.573 279.7C155.146 278.913 154.933 278.02 154.933 277.02C154.933 276.02 155.146 275.133 155.573 274.36C156 273.573 156.58 272.96 157.313 272.52C158.046 272.067 158.88 271.84 159.813 271.84C160.56 271.84 161.213 271.98 161.773 272.26C162.333 272.54 162.786 272.933 163.133 273.44V267.6H165.693V282H163.413L163.133 280.58C162.813 281.02 162.386 281.407 161.853 281.74C161.333 282.073 160.653 282.24 159.813 282.24ZM160.353 280C161.18 280 161.853 279.727 162.373 279.18C162.906 278.62 163.173 277.907 163.173 277.04C163.173 276.173 162.906 275.467 162.373 274.92C161.853 274.36 161.18 274.08 160.353 274.08C159.54 274.08 158.866 274.353 158.333 274.9C157.8 275.447 157.533 276.153 157.533 277.02C157.533 277.887 157.8 278.6 158.333 279.16C158.866 279.72 159.54 280 160.353 280ZM173.12 282.24C172.12 282.24 171.233 282.027 170.46 281.6C169.687 281.173 169.08 280.573 168.64 279.8C168.2 279.027 167.98 278.133 167.98 277.12C167.98 276.093 168.193 275.18 168.62 274.38C169.06 273.58 169.66 272.96 170.42 272.52C171.193 272.067 172.1 271.84 173.14 271.84C174.113 271.84 174.973 272.053 175.72 272.48C176.467 272.907 177.047 273.493 177.46 274.24C177.887 274.973 178.1 275.793 178.1 276.7C178.1 276.847 178.093 277 178.08 277.16C178.08 277.32 178.073 277.487 178.06 277.66H170.52C170.573 278.433 170.84 279.04 171.32 279.48C171.813 279.92 172.407 280.14 173.1 280.14C173.62 280.14 174.053 280.027 174.4 279.8C174.76 279.56 175.027 279.253 175.2 278.88H177.8C177.613 279.507 177.3 280.08 176.86 280.6C176.433 281.107 175.9 281.507 175.26 281.8C174.633 282.093 173.92 282.24 173.12 282.24ZM173.14 273.92C172.513 273.92 171.96 274.1 171.48 274.46C171 274.807 170.693 275.34 170.56 276.06H175.5C175.46 275.407 175.22 274.887 174.78 274.5C174.34 274.113 173.793 273.92 173.14 273.92ZM184.813 282.24C183.88 282.24 183.046 282.013 182.313 281.56C181.58 281.107 181 280.487 180.573 279.7C180.146 278.913 179.933 278.02 179.933 277.02C179.933 276.02 180.146 275.133 180.573 274.36C181 273.573 181.58 272.96 182.313 272.52C183.046 272.067 183.88 271.84 184.813 271.84C185.56 271.84 186.213 271.98 186.773 272.26C187.333 272.54 187.786 272.933 188.133 273.44V267.6H190.693V282H188.413L188.133 280.58C187.813 281.02 187.386 281.407 186.853 281.74C186.333 282.073 185.653 282.24 184.813 282.24ZM185.353 280C186.18 280 186.853 279.727 187.373 279.18C187.906 278.62 188.173 277.907 188.173 277.04C188.173 276.173 187.906 275.467 187.373 274.92C186.853 274.36 186.18 274.08 185.353 274.08C184.54 274.08 183.866 274.353 183.333 274.9C182.8 275.447 182.533 276.153 182.533 277.02C182.533 277.887 182.8 278.6 183.333 279.16C183.866 279.72 184.54 280 185.353 280Z" fill="#002C66"/>
<path d="M378.003 245.082C378.048 245.632 378.531 246.042 379.082 245.997L388.051 245.26C388.602 245.215 389.011 244.732 388.966 244.181C388.921 243.631 388.438 243.221 387.888 243.267L379.915 243.921L379.26 235.948C379.214 235.398 378.732 234.988 378.181 235.034C377.631 235.079 377.221 235.562 377.266 236.112L378.003 245.082ZM378.278 227.692C381.366 230.912 382.726 233.272 382.747 235.603C382.768 237.954 381.433 240.585 378.237 244.353L379.762 245.647C382.996 241.835 384.775 238.714 384.747 235.584C384.718 232.434 382.864 229.584 379.722 226.308L378.278 227.692Z" fill="#002C66"/>
</g>
<defs>
<filter id="filter0_d_2447_340" x="0" y="0" width="516" height="351" filterUnits="userSpaceOnUse" color-interpolation-filters="sRGB">
<feFlood flood-opacity="0" result="BackgroundImageFix"/>
<feColorMatrix in="SourceAlpha" type="matrix" values="0 0 0 0 0 0 0 0 0 0 0 0 0 0 0 0 0 0 127 0" result="hardAlpha"/>
<feOffset dy="8"/>
<feGaussianBlur stdDeviation="4"/>
<feComposite in2="hardAlpha" operator="out"/>
<feColorMatrix type="matrix" values="0 0 0 0 0 0 0 0 0 0 0 0 0 0 0 0 0 0 0.25 0"/>
<feBlend mode="normal" in2="BackgroundImageFix" result="effect1_dropShadow_2447_340"/>
<feBlend mode="normal" in="SourceGraphic" in2="effect1_dropShadow_2447_340" result="shape"/>
</filter>
</defs>
</svg>
