<svg width="419" height="142" viewBox="0 0 419 142" fill="none" xmlns="http://www.w3.org/2000/svg">
<rect width="419" height="142" rx="8" fill="#CCE2FF"/>
<path d="M37.6882 34.4922H34.8885C34.8374 34.13 34.733 33.8082 34.5753 33.527C34.4176 33.2415 34.2152 32.9986 33.968 32.7983C33.7209 32.598 33.4354 32.4446 33.1115 32.3381C32.7919 32.2315 32.4446 32.1783 32.0696 32.1783C31.392 32.1783 30.8018 32.3466 30.299 32.6832C29.7962 33.0156 29.4063 33.5014 29.1293 34.1406C28.8523 34.7756 28.7138 35.5469 28.7138 36.4545C28.7138 37.3878 28.8523 38.1719 29.1293 38.8068C29.4105 39.4418 29.8026 39.9212 30.3054 40.245C30.8082 40.5689 31.3899 40.7308 32.0504 40.7308C32.4212 40.7308 32.7642 40.6818 33.0795 40.5838C33.3991 40.4858 33.6825 40.343 33.9297 40.1555C34.1768 39.9638 34.3814 39.7315 34.5433 39.4588C34.7095 39.1861 34.8246 38.875 34.8885 38.5256L37.6882 38.5384C37.6158 39.1392 37.4347 39.7188 37.1449 40.277C36.8594 40.831 36.4737 41.3274 35.9879 41.7663C35.5064 42.201 34.9311 42.5462 34.2621 42.8018C33.5973 43.0533 32.8452 43.179 32.0057 43.179C30.8381 43.179 29.794 42.9148 28.8736 42.3864C27.9574 41.858 27.233 41.093 26.7003 40.0916C26.1719 39.0902 25.9077 37.8778 25.9077 36.4545C25.9077 35.027 26.1761 33.8125 26.7131 32.8111C27.25 31.8097 27.9787 31.0469 28.8991 30.5227C29.8196 29.9943 30.8551 29.7301 32.0057 29.7301C32.7642 29.7301 33.4673 29.8366 34.1151 30.0497C34.767 30.2628 35.3445 30.5739 35.8473 30.983C36.3501 31.3878 36.7592 31.8842 37.0746 32.4723C37.3942 33.0604 37.5987 33.7337 37.6882 34.4922ZM44.0579 43.1918C43.065 43.1918 42.2063 42.9808 41.4819 42.5589C40.7617 42.1328 40.2056 41.5405 39.8136 40.782C39.4215 40.0192 39.2255 39.1349 39.2255 38.1293C39.2255 37.1151 39.4215 36.2287 39.8136 35.4702C40.2056 34.7074 40.7617 34.1151 41.4819 33.6932C42.2063 33.267 43.065 33.054 44.0579 33.054C45.0508 33.054 45.9073 33.267 46.6275 33.6932C47.3519 34.1151 47.9102 34.7074 48.3022 35.4702C48.6942 36.2287 48.8903 37.1151 48.8903 38.1293C48.8903 39.1349 48.6942 40.0192 48.3022 40.782C47.9102 41.5405 47.3519 42.1328 46.6275 42.5589C45.9073 42.9808 45.0508 43.1918 44.0579 43.1918ZM44.0707 41.0824C44.5224 41.0824 44.8995 40.9545 45.2021 40.6989C45.5046 40.4389 45.7326 40.0852 45.886 39.6378C46.0437 39.1903 46.1225 38.6811 46.1225 38.1101C46.1225 37.5391 46.0437 37.0298 45.886 36.5824C45.7326 36.1349 45.5046 35.7812 45.2021 35.5213C44.8995 35.2614 44.5224 35.1314 44.0707 35.1314C43.6147 35.1314 43.2312 35.2614 42.9201 35.5213C42.6133 35.7812 42.381 36.1349 42.2234 36.5824C42.07 37.0298 41.9933 37.5391 41.9933 38.1101C41.9933 38.6811 42.07 39.1903 42.2234 39.6378C42.381 40.0852 42.6133 40.4389 42.9201 40.6989C43.2312 40.9545 43.6147 41.0824 44.0707 41.0824ZM50.6609 43V33.1818H53.256V34.9141H53.3711C53.5756 34.3388 53.9165 33.8849 54.3938 33.5526C54.8711 33.2202 55.4421 33.054 56.1069 33.054C56.7802 33.054 57.3533 33.2223 57.8263 33.5589C58.2994 33.8913 58.6147 34.343 58.7724 34.9141H58.8746C59.0749 34.3516 59.4371 33.902 59.9613 33.5653C60.4897 33.2244 61.114 33.054 61.8342 33.054C62.7504 33.054 63.494 33.3459 64.065 33.9297C64.6403 34.5092 64.9279 35.3317 64.9279 36.397V43H62.2113V36.9339C62.2113 36.3885 62.0664 35.9794 61.7766 35.7067C61.4869 35.4339 61.1246 35.2976 60.69 35.2976C60.1957 35.2976 59.81 35.4553 59.533 35.7706C59.256 36.0817 59.1175 36.4929 59.1175 37.0043V43H56.4776V36.8764C56.4776 36.3949 56.3391 36.0114 56.0621 35.7259C55.7894 35.4403 55.4293 35.2976 54.9819 35.2976C54.6793 35.2976 54.4066 35.3743 54.1637 35.5277C53.9251 35.6768 53.7354 35.8878 53.5948 36.1605C53.4542 36.429 53.3839 36.7443 53.3839 37.1065V43H50.6609ZM67.0788 43V33.1818H69.674V34.9141H69.7891C69.9936 34.3388 70.3345 33.8849 70.8118 33.5526C71.2891 33.2202 71.8601 33.054 72.5249 33.054C73.1982 33.054 73.7713 33.2223 74.2443 33.5589C74.7173 33.8913 75.0327 34.343 75.1903 34.9141H75.2926C75.4929 34.3516 75.8551 33.902 76.3793 33.5653C76.9077 33.2244 77.532 33.054 78.2521 33.054C79.1683 33.054 79.9119 33.3459 80.483 33.9297C81.0582 34.5092 81.3459 35.3317 81.3459 36.397V43H78.6293V36.9339C78.6293 36.3885 78.4844 35.9794 78.1946 35.7067C77.9048 35.4339 77.5426 35.2976 77.108 35.2976C76.6136 35.2976 76.228 35.4553 75.951 35.7706C75.674 36.0817 75.5355 36.4929 75.5355 37.0043V43H72.8956V36.8764C72.8956 36.3949 72.7571 36.0114 72.4801 35.7259C72.2074 35.4403 71.8473 35.2976 71.3999 35.2976C71.0973 35.2976 70.8246 35.3743 70.5817 35.5277C70.343 35.6768 70.1534 35.8878 70.0128 36.1605C69.8722 36.429 69.8018 36.7443 69.8018 37.1065V43H67.0788ZM87.9712 43.1918C86.9613 43.1918 86.092 42.9872 85.3633 42.5781C84.6388 42.1648 84.0806 41.581 83.6886 40.8267C83.2965 40.0682 83.1005 39.1712 83.1005 38.1357C83.1005 37.1257 83.2965 36.2393 83.6886 35.4766C84.0806 34.7138 84.6325 34.1193 85.3441 33.6932C86.06 33.267 86.8995 33.054 87.8626 33.054C88.5103 33.054 89.1133 33.1584 89.6715 33.3672C90.234 33.5717 90.7241 33.8807 91.1417 34.294C91.5636 34.7074 91.8917 35.2273 92.1261 35.8537C92.3604 36.4759 92.4776 37.2045 92.4776 38.0398V38.7876H84.1871V37.1001H89.9144C89.9144 36.7081 89.8292 36.3608 89.6587 36.0582C89.4883 35.7557 89.2518 35.5192 88.9492 35.3487C88.6509 35.174 88.3036 35.0866 87.9073 35.0866C87.494 35.0866 87.1275 35.1825 86.8079 35.3743C86.4925 35.5618 86.2454 35.8153 86.0664 36.1349C85.8874 36.4503 85.7958 36.8018 85.7915 37.1896V38.794C85.7915 39.2798 85.881 39.6996 86.06 40.0533C86.2433 40.407 86.5011 40.6797 86.8335 40.8714C87.1658 41.0632 87.56 41.1591 88.016 41.1591C88.3185 41.1591 88.5955 41.1165 88.8469 41.0312C89.0984 40.946 89.3136 40.8182 89.4925 40.6477C89.6715 40.4773 89.8079 40.2685 89.9016 40.0213L92.4201 40.1875C92.2923 40.7926 92.0302 41.321 91.6339 41.7727C91.2418 42.2202 90.7347 42.5696 90.1126 42.821C89.4947 43.0682 88.7809 43.1918 87.9712 43.1918ZM94.2546 43V33.1818H96.8945V34.8949H96.9968C97.1758 34.2855 97.4762 33.8253 97.8981 33.5142C98.32 33.1989 98.8058 33.0412 99.3555 33.0412C99.4918 33.0412 99.6388 33.0497 99.7965 33.0668C99.9542 33.0838 100.093 33.1072 100.212 33.1371V35.5533C100.084 35.5149 99.9073 35.4808 99.6815 35.451C99.4556 35.4212 99.2489 35.4062 99.0614 35.4062C98.6609 35.4062 98.3029 35.4936 97.9876 35.6683C97.6765 35.8388 97.4293 36.0774 97.2461 36.3842C97.0671 36.6911 96.9776 37.0447 96.9776 37.4453V43H94.2546ZM105.599 43.1918C104.593 43.1918 103.728 42.9787 103.004 42.5526C102.284 42.1222 101.73 41.5256 101.342 40.7628C100.958 40 100.767 39.1222 100.767 38.1293C100.767 37.1236 100.96 36.2415 101.348 35.483C101.74 34.7202 102.296 34.1257 103.017 33.6996C103.737 33.2692 104.593 33.054 105.586 33.054C106.443 33.054 107.193 33.2095 107.836 33.5206C108.48 33.8317 108.989 34.2685 109.364 34.831C109.739 35.3935 109.945 36.054 109.984 36.8125H107.414C107.342 36.3224 107.15 35.9283 106.839 35.63C106.532 35.3274 106.129 35.1761 105.631 35.1761C105.209 35.1761 104.84 35.2912 104.525 35.5213C104.214 35.7472 103.971 36.0774 103.796 36.5121C103.622 36.9467 103.534 37.473 103.534 38.0909C103.534 38.7173 103.619 39.25 103.79 39.6889C103.965 40.1278 104.21 40.4624 104.525 40.6925C104.84 40.9226 105.209 41.0376 105.631 41.0376C105.942 41.0376 106.221 40.9737 106.468 40.8459C106.72 40.718 106.926 40.5327 107.088 40.2898C107.254 40.0426 107.363 39.7464 107.414 39.4013H109.984C109.941 40.1513 109.737 40.8118 109.37 41.3828C109.008 41.9496 108.507 42.3928 107.868 42.7124C107.229 43.032 106.472 43.1918 105.599 43.1918ZM111.727 43V33.1818H114.45V43H111.727ZM113.095 31.9162C112.69 31.9162 112.343 31.782 112.053 31.5135C111.768 31.2408 111.625 30.9148 111.625 30.5355C111.625 30.1605 111.768 29.8388 112.053 29.5703C112.343 29.2976 112.69 29.1612 113.095 29.1612C113.5 29.1612 113.845 29.2976 114.131 29.5703C114.42 29.8388 114.565 30.1605 114.565 30.5355C114.565 30.9148 114.42 31.2408 114.131 31.5135C113.845 31.782 113.5 31.9162 113.095 31.9162ZM119.431 43.1854C118.805 43.1854 118.247 43.0767 117.757 42.8594C117.267 42.6378 116.879 42.3118 116.593 41.8814C116.312 41.4467 116.171 40.9055 116.171 40.2578C116.171 39.7124 116.271 39.2543 116.472 38.8835C116.672 38.5128 116.945 38.2145 117.29 37.9886C117.635 37.7628 118.027 37.5923 118.466 37.4773C118.909 37.3622 119.374 37.2812 119.86 37.2344C120.431 37.1747 120.891 37.1193 121.24 37.0682C121.59 37.0128 121.843 36.9318 122.001 36.8253C122.159 36.7187 122.237 36.5611 122.237 36.3523V36.3139C122.237 35.9091 122.11 35.5959 121.854 35.3743C121.602 35.1527 121.244 35.0419 120.78 35.0419C120.29 35.0419 119.9 35.1506 119.61 35.3679C119.32 35.581 119.129 35.8494 119.035 36.1733L116.517 35.9688C116.644 35.3722 116.896 34.8565 117.271 34.4219C117.646 33.983 118.129 33.6463 118.722 33.4119C119.318 33.1733 120.009 33.054 120.793 33.054C121.338 33.054 121.86 33.1179 122.359 33.2457C122.862 33.3736 123.307 33.5717 123.695 33.8402C124.087 34.1087 124.396 34.4538 124.622 34.8757C124.847 35.2933 124.96 35.794 124.96 36.3778V43H122.378V41.6385H122.301C122.144 41.9453 121.933 42.2159 121.669 42.4503C121.404 42.6804 121.087 42.8615 120.716 42.9936C120.345 43.1214 119.917 43.1854 119.431 43.1854ZM120.211 41.3061C120.612 41.3061 120.965 41.2273 121.272 41.0696C121.579 40.9077 121.82 40.6903 121.994 40.4176C122.169 40.1449 122.257 39.8359 122.257 39.4908V38.4489C122.171 38.5043 122.054 38.5554 121.905 38.6023C121.76 38.6449 121.596 38.6854 121.413 38.7237C121.23 38.7578 121.046 38.7898 120.863 38.8196C120.68 38.8452 120.514 38.8686 120.365 38.8899C120.045 38.9368 119.766 39.0114 119.527 39.1136C119.289 39.2159 119.103 39.3544 118.971 39.5291C118.839 39.6996 118.773 39.9126 118.773 40.1683C118.773 40.5391 118.907 40.8224 119.176 41.0185C119.448 41.2102 119.794 41.3061 120.211 41.3061ZM129.796 29.9091V43H127.073V29.9091H129.796ZM136.194 43V29.9091H138.917V34.831H139.001C139.12 34.5668 139.292 34.2983 139.518 34.0256C139.748 33.7486 140.047 33.5185 140.413 33.3352C140.784 33.1477 141.244 33.054 141.794 33.054C142.51 33.054 143.17 33.2415 143.775 33.6165C144.381 33.9872 144.864 34.5476 145.226 35.2976C145.589 36.0433 145.77 36.9787 145.77 38.1037C145.77 39.1989 145.593 40.1236 145.239 40.8778C144.89 41.6278 144.412 42.1967 143.807 42.5845C143.206 42.968 142.533 43.1598 141.787 43.1598C141.259 43.1598 140.809 43.0724 140.439 42.8977C140.072 42.723 139.772 42.5036 139.537 42.2393C139.303 41.9709 139.124 41.7003 139.001 41.4276H138.879V43H136.194ZM138.86 38.0909C138.86 38.6747 138.941 39.1839 139.103 39.6186C139.265 40.0533 139.499 40.392 139.806 40.6349C140.113 40.8736 140.486 40.9929 140.925 40.9929C141.368 40.9929 141.743 40.8714 142.05 40.6286C142.356 40.3814 142.589 40.0405 142.746 39.6058C142.908 39.1669 142.989 38.6619 142.989 38.0909C142.989 37.5241 142.91 37.0256 142.753 36.5952C142.595 36.1648 142.363 35.8281 142.056 35.5852C141.749 35.3423 141.372 35.2209 140.925 35.2209C140.481 35.2209 140.106 35.3381 139.8 35.5724C139.497 35.8068 139.265 36.1392 139.103 36.5696C138.941 37 138.86 37.5071 138.86 38.0909ZM153.883 38.8196V33.1818H156.606V43H153.991V41.2166H153.889C153.668 41.7919 153.299 42.2543 152.783 42.6037C152.272 42.9531 151.648 43.1278 150.911 43.1278C150.254 43.1278 149.677 42.9787 149.178 42.6804C148.68 42.3821 148.29 41.9581 148.009 41.4084C147.732 40.8587 147.591 40.2003 147.587 39.4332V33.1818H150.31V38.9474C150.314 39.527 150.469 39.9851 150.776 40.3217C151.083 40.6584 151.494 40.8267 152.01 40.8267C152.338 40.8267 152.645 40.7521 152.93 40.603C153.216 40.4496 153.446 40.2237 153.621 39.9254C153.8 39.6271 153.887 39.2585 153.883 38.8196ZM158.784 43V33.1818H161.507V43H158.784ZM160.152 31.9162C159.747 31.9162 159.4 31.782 159.11 31.5135C158.824 31.2408 158.682 30.9148 158.682 30.5355C158.682 30.1605 158.824 29.8388 159.11 29.5703C159.4 29.2976 159.747 29.1612 160.152 29.1612C160.557 29.1612 160.902 29.2976 161.187 29.5703C161.477 29.8388 161.622 30.1605 161.622 30.5355C161.622 30.9148 161.477 31.2408 161.187 31.5135C160.902 31.782 160.557 31.9162 160.152 31.9162ZM166.411 29.9091V43H163.688V29.9091H166.411ZM172.21 43.1598C171.465 43.1598 170.789 42.968 170.184 42.5845C169.583 42.1967 169.106 41.6278 168.752 40.8778C168.403 40.1236 168.228 39.1989 168.228 38.1037C168.228 36.9787 168.409 36.0433 168.771 35.2976C169.134 34.5476 169.615 33.9872 170.216 33.6165C170.821 33.2415 171.484 33.054 172.204 33.054C172.754 33.054 173.212 33.1477 173.578 33.3352C173.949 33.5185 174.247 33.7486 174.473 34.0256C174.703 34.2983 174.878 34.5668 174.997 34.831H175.08V29.9091H177.797V43H175.112V41.4276H174.997C174.869 41.7003 174.688 41.9709 174.454 42.2393C174.224 42.5036 173.923 42.723 173.553 42.8977C173.186 43.0724 172.739 43.1598 172.21 43.1598ZM173.073 40.9929C173.512 40.9929 173.883 40.8736 174.186 40.6349C174.492 40.392 174.727 40.0533 174.889 39.6186C175.055 39.1839 175.138 38.6747 175.138 38.0909C175.138 37.5071 175.057 37 174.895 36.5696C174.733 36.1392 174.499 35.8068 174.192 35.5724C173.885 35.3381 173.512 35.2209 173.073 35.2209C172.626 35.2209 172.249 35.3423 171.942 35.5852C171.635 35.8281 171.403 36.1648 171.245 36.5952C171.088 37.0256 171.009 37.5241 171.009 38.0909C171.009 38.6619 171.088 39.1669 171.245 39.6058C171.407 40.0405 171.639 40.3814 171.942 40.6286C172.249 40.8714 172.626 40.9929 173.073 40.9929ZM180.036 43V33.1818H182.759V43H180.036ZM181.404 31.9162C180.999 31.9162 180.652 31.782 180.362 31.5135C180.076 31.2408 179.934 30.9148 179.934 30.5355C179.934 30.1605 180.076 29.8388 180.362 29.5703C180.652 29.2976 180.999 29.1612 181.404 29.1612C181.809 29.1612 182.154 29.2976 182.439 29.5703C182.729 29.8388 182.874 30.1605 182.874 30.5355C182.874 30.9148 182.729 31.2408 182.439 31.5135C182.154 31.782 181.809 31.9162 181.404 31.9162ZM187.663 37.3239V43H184.94V33.1818H187.535V34.9141H187.65C187.868 34.343 188.232 33.8913 188.743 33.5589C189.255 33.2223 189.875 33.054 190.604 33.054C191.285 33.054 191.88 33.2031 192.387 33.5014C192.894 33.7997 193.288 34.2259 193.569 34.7798C193.851 35.3295 193.991 35.9858 193.991 36.7486V43H191.268V37.2344C191.273 36.6335 191.119 36.1648 190.808 35.8281C190.497 35.4872 190.069 35.3168 189.523 35.3168C189.157 35.3168 188.833 35.3956 188.552 35.5533C188.275 35.7109 188.057 35.9411 187.9 36.2436C187.746 36.5419 187.667 36.902 187.663 37.3239ZM200.561 46.8864C199.679 46.8864 198.922 46.7649 198.292 46.522C197.665 46.2834 197.167 45.9574 196.796 45.544C196.425 45.1307 196.184 44.6662 196.074 44.1506L198.592 43.8118C198.669 44.0078 198.79 44.1911 198.956 44.3615C199.123 44.532 199.342 44.6683 199.615 44.7706C199.892 44.8771 200.228 44.9304 200.625 44.9304C201.217 44.9304 201.705 44.7855 202.088 44.4957C202.476 44.2102 202.67 43.7308 202.67 43.0575V41.2614H202.555C202.436 41.5341 202.257 41.7919 202.018 42.0348C201.779 42.2777 201.473 42.4759 201.098 42.6293C200.723 42.7827 200.275 42.8594 199.755 42.8594C199.018 42.8594 198.347 42.6889 197.742 42.348C197.141 42.0028 196.662 41.4766 196.304 40.7692C195.95 40.0575 195.773 39.1584 195.773 38.0717C195.773 36.9595 195.954 36.0305 196.316 35.2848C196.679 34.5391 197.16 33.9808 197.761 33.6101C198.366 33.2393 199.029 33.054 199.749 33.054C200.299 33.054 200.759 33.1477 201.13 33.3352C201.5 33.5185 201.799 33.7486 202.025 34.0256C202.255 34.2983 202.431 34.5668 202.555 34.831H202.657V33.1818H205.361V43.0959C205.361 43.9311 205.157 44.63 204.748 45.1925C204.338 45.755 203.772 46.1768 203.047 46.4581C202.327 46.7436 201.498 46.8864 200.561 46.8864ZM200.618 40.8139C201.057 40.8139 201.428 40.7053 201.73 40.4879C202.037 40.2663 202.272 39.951 202.434 39.5419C202.6 39.1286 202.683 38.6342 202.683 38.0589C202.683 37.4837 202.602 36.9851 202.44 36.5632C202.278 36.1371 202.044 35.8068 201.737 35.5724C201.43 35.3381 201.057 35.2209 200.618 35.2209C200.171 35.2209 199.794 35.3423 199.487 35.5852C199.18 35.8239 198.948 36.1562 198.79 36.5824C198.632 37.0085 198.554 37.5007 198.554 38.0589C198.554 38.6257 198.632 39.1158 198.79 39.5291C198.952 39.9382 199.184 40.2557 199.487 40.4815C199.794 40.7031 200.171 40.8139 200.618 40.8139Z" fill="black"/>
<rect x="25" y="60" width="369" height="21" rx="4" fill="#A9BAD1"/>
<rect x="25" y="96" width="191" height="21" rx="4" fill="#A9BAD1"/>
<rect x="236" y="96" width="158" height="21" rx="4" fill="#A9BAD1"/>
</svg>
