<svg width="532" height="663" viewBox="0 0 532 663" fill="none" xmlns="http://www.w3.org/2000/svg">
<g filter="url(#filter0_d_2447_341)">
<path d="M16 0H516V611C516 622.046 507.046 631 496 631H36C24.9543 631 16 622.046 16 611V0Z" fill="#CCE2FF"/>
<rect x="16" width="500" height="120" fill="#002C66"/>
<path d="M75.816 71.384C74.1733 71.384 72.6907 71.064 71.368 70.424C70.0453 69.7627 68.9893 68.7707 68.2 67.448C67.432 66.1253 67.048 64.4507 67.048 62.424V48.6H71.144V62.456C71.144 64.2053 71.56 65.5067 72.392 66.36C73.2453 67.2133 74.4187 67.64 75.912 67.64C77.384 67.64 78.5467 67.2133 79.4 66.36C80.2533 65.5067 80.68 64.2053 80.68 62.456V48.6H84.776V62.424C84.776 64.4507 84.3707 66.1253 83.56 67.448C82.7493 68.7707 81.6613 69.7627 80.296 70.424C78.952 71.064 77.4587 71.384 75.816 71.384ZM88.8613 78.04V55.128H92.5093L92.9573 57.4C93.4693 56.696 94.1413 56.0773 94.9733 55.544C95.8266 55.0107 96.9253 54.744 98.2693 54.744C99.7626 54.744 101.096 55.1067 102.269 55.832C103.443 56.5573 104.371 57.5493 105.053 58.808C105.736 60.0667 106.077 61.496 106.077 63.096C106.077 64.696 105.736 66.1253 105.053 67.384C104.371 68.6213 103.443 69.6027 102.269 70.328C101.096 71.032 99.7626 71.384 98.2693 71.384C97.0746 71.384 96.0293 71.16 95.1333 70.712C94.2373 70.264 93.5119 69.6347 92.9573 68.824V78.04H88.8613ZM97.4053 67.8C98.7066 67.8 99.7839 67.3627 100.637 66.488C101.491 65.6133 101.917 64.4827 101.917 63.096C101.917 61.7093 101.491 60.568 100.637 59.672C99.7839 58.776 98.7066 58.328 97.4053 58.328C96.0826 58.328 94.9946 58.776 94.1413 59.672C93.3093 60.5467 92.8933 61.6773 92.8933 63.064C92.8933 64.4507 93.3093 65.592 94.1413 66.488C94.9946 67.3627 96.0826 67.8 97.4053 67.8ZM109.736 71V47.96H113.832V71H109.736ZM125.634 71.384C124.098 71.384 122.711 71.032 121.474 70.328C120.258 69.624 119.287 68.6533 118.562 67.416C117.858 66.1573 117.506 64.7067 117.506 63.064C117.506 61.4213 117.868 59.9813 118.594 58.744C119.319 57.4853 120.29 56.504 121.506 55.8C122.743 55.096 124.13 54.744 125.666 54.744C127.18 54.744 128.546 55.096 129.762 55.8C130.999 56.504 131.97 57.4853 132.674 58.744C133.399 59.9813 133.762 61.4213 133.762 63.064C133.762 64.7067 133.399 66.1573 132.674 67.416C131.97 68.6533 130.999 69.624 129.762 70.328C128.524 71.032 127.148 71.384 125.634 71.384ZM125.634 67.832C126.7 67.832 127.628 67.4373 128.418 66.648C129.207 65.8373 129.602 64.6427 129.602 63.064C129.602 61.4853 129.207 60.3013 128.418 59.512C127.628 58.7013 126.711 58.296 125.666 58.296C124.578 58.296 123.639 58.7013 122.85 59.512C122.082 60.3013 121.698 61.4853 121.698 63.064C121.698 64.6427 122.082 65.8373 122.85 66.648C123.639 67.4373 124.567 67.832 125.634 67.832ZM142.896 71.384C141.53 71.384 140.41 71.1707 139.536 70.744C138.661 70.296 138.01 69.7093 137.584 68.984C137.157 68.2587 136.944 67.4587 136.944 66.584C136.944 65.112 137.52 63.9173 138.672 63C139.824 62.0827 141.552 61.624 143.856 61.624H147.888V61.24C147.888 60.152 147.578 59.352 146.96 58.84C146.341 58.328 145.573 58.072 144.656 58.072C143.824 58.072 143.098 58.2747 142.48 58.68C141.861 59.064 141.477 59.64 141.328 60.408H137.328C137.434 59.256 137.818 58.2533 138.48 57.4C139.162 56.5467 140.037 55.896 141.104 55.448C142.17 54.9787 143.365 54.744 144.688 54.744C146.949 54.744 148.73 55.3093 150.032 56.44C151.333 57.5707 151.984 59.1707 151.984 61.24V71H148.496L148.112 68.44C147.642 69.2933 146.981 69.9973 146.128 70.552C145.296 71.1067 144.218 71.384 142.896 71.384ZM143.824 68.184C144.997 68.184 145.904 67.8 146.544 67.032C147.205 66.264 147.621 65.3147 147.792 64.184H144.304C143.216 64.184 142.437 64.3867 141.968 64.792C141.498 65.176 141.264 65.656 141.264 66.232C141.264 66.8507 141.498 67.3307 141.968 67.672C142.437 68.0133 143.056 68.184 143.824 68.184ZM163.189 71.384C161.695 71.384 160.362 71.0213 159.189 70.296C158.015 69.5707 157.087 68.5787 156.405 67.32C155.722 66.0613 155.381 64.632 155.381 63.032C155.381 61.432 155.722 60.0133 156.405 58.776C157.087 57.5173 158.015 56.536 159.189 55.832C160.362 55.1067 161.695 54.744 163.189 54.744C164.383 54.744 165.429 54.968 166.325 55.416C167.221 55.864 167.946 56.4933 168.501 57.304V47.96H172.597V71H168.949L168.501 68.728C167.989 69.432 167.306 70.0507 166.453 70.584C165.621 71.1173 164.533 71.384 163.189 71.384ZM164.053 67.8C165.375 67.8 166.453 67.3627 167.285 66.488C168.138 65.592 168.565 64.4507 168.565 63.064C168.565 61.6773 168.138 60.5467 167.285 59.672C166.453 58.776 165.375 58.328 164.053 58.328C162.751 58.328 161.674 58.7653 160.821 59.64C159.967 60.5147 159.541 61.6453 159.541 63.032C159.541 64.4187 159.967 65.56 160.821 66.456C161.674 67.352 162.751 67.8 164.053 67.8ZM186.377 78.04L190.057 69.944H189.097L182.921 55.128H187.369L191.817 66.296L196.457 55.128H200.809L190.729 78.04H186.377ZM209.727 71.384C208.191 71.384 206.805 71.032 205.567 70.328C204.351 69.624 203.381 68.6533 202.655 67.416C201.951 66.1573 201.599 64.7067 201.599 63.064C201.599 61.4213 201.962 59.9813 202.687 58.744C203.413 57.4853 204.383 56.504 205.599 55.8C206.837 55.096 208.223 54.744 209.759 54.744C211.274 54.744 212.639 55.096 213.855 55.8C215.093 56.504 216.063 57.4853 216.767 58.744C217.493 59.9813 217.855 61.4213 217.855 63.064C217.855 64.7067 217.493 66.1573 216.767 67.416C216.063 68.6533 215.093 69.624 213.855 70.328C212.618 71.032 211.242 71.384 209.727 71.384ZM209.727 67.832C210.794 67.832 211.722 67.4373 212.511 66.648C213.301 65.8373 213.695 64.6427 213.695 63.064C213.695 61.4853 213.301 60.3013 212.511 59.512C211.722 58.7013 210.805 58.296 209.759 58.296C208.671 58.296 207.733 58.7013 206.943 59.512C206.175 60.3013 205.791 61.4853 205.791 63.064C205.791 64.6427 206.175 65.8373 206.943 66.648C207.733 67.4373 208.661 67.832 209.727 67.832ZM227.47 71.384C225.486 71.384 223.95 70.7653 222.862 69.528C221.795 68.2907 221.262 66.4773 221.262 64.088V55.128H225.326V63.704C225.326 65.0693 225.603 66.1147 226.158 66.84C226.712 67.5653 227.587 67.928 228.782 67.928C229.912 67.928 230.84 67.5227 231.566 66.712C232.312 65.9013 232.686 64.7707 232.686 63.32V55.128H236.782V71H233.166L232.846 68.312C232.355 69.2507 231.64 69.9973 230.702 70.552C229.784 71.1067 228.707 71.384 227.47 71.384ZM240.986 71V55.128H244.634L245.018 58.104C245.594 57.08 246.373 56.2693 247.354 55.672C248.357 55.0533 249.53 54.744 250.874 54.744V59.064H249.722C248.826 59.064 248.026 59.2027 247.322 59.48C246.618 59.7573 246.064 60.2373 245.658 60.92C245.274 61.6027 245.082 62.552 245.082 63.768V71H240.986ZM268.595 71.384C267.101 71.384 265.768 71.0213 264.595 70.296C263.421 69.5707 262.493 68.5787 261.811 67.32C261.128 66.0613 260.787 64.632 260.787 63.032C260.787 61.432 261.128 60.0133 261.811 58.776C262.493 57.5173 263.421 56.536 264.595 55.832C265.768 55.1067 267.101 54.744 268.595 54.744C269.789 54.744 270.835 54.968 271.731 55.416C272.627 55.864 273.352 56.4933 273.907 57.304V47.96H278.003V71H274.355L273.907 68.728C273.395 69.432 272.712 70.0507 271.859 70.584C271.027 71.1173 269.939 71.384 268.595 71.384ZM269.459 67.8C270.781 67.8 271.859 67.3627 272.691 66.488C273.544 65.592 273.971 64.4507 273.971 63.064C273.971 61.6773 273.544 60.5467 272.691 59.672C271.859 58.776 270.781 58.328 269.459 58.328C268.157 58.328 267.08 58.7653 266.227 59.64C265.373 60.5147 264.947 61.6453 264.947 63.032C264.947 64.4187 265.373 65.56 266.227 66.456C267.08 67.352 268.157 67.8 269.459 67.8ZM289.886 71.384C288.286 71.384 286.867 71.0427 285.63 70.36C284.392 69.6773 283.422 68.7173 282.718 67.48C282.014 66.2427 281.662 64.8133 281.662 63.192C281.662 61.5493 282.003 60.088 282.686 58.808C283.39 57.528 284.35 56.536 285.566 55.832C286.803 55.1067 288.254 54.744 289.918 54.744C291.475 54.744 292.851 55.0853 294.046 55.768C295.24 56.4507 296.168 57.3893 296.83 58.584C297.512 59.7573 297.854 61.0693 297.854 62.52C297.854 62.7547 297.843 63 297.822 63.256C297.822 63.512 297.811 63.7787 297.79 64.056H285.726C285.811 65.2933 286.238 66.264 287.006 66.968C287.795 67.672 288.744 68.024 289.854 68.024C290.686 68.024 291.379 67.8427 291.934 67.48C292.51 67.096 292.936 66.6053 293.214 66.008H297.374C297.075 67.0107 296.574 67.928 295.87 68.76C295.187 69.5707 294.334 70.2107 293.31 70.68C292.307 71.1493 291.166 71.384 289.886 71.384ZM289.918 58.072C288.915 58.072 288.03 58.36 287.262 58.936C286.494 59.4907 286.003 60.344 285.79 61.496H293.694C293.63 60.4507 293.246 59.6187 292.542 59C291.838 58.3813 290.963 58.072 289.918 58.072ZM304.962 71L299.138 55.128H303.426L307.458 67.128L311.49 55.128H315.778L309.922 71H304.962ZM325.292 71.384C323.692 71.384 322.273 71.0427 321.036 70.36C319.799 69.6773 318.828 68.7173 318.124 67.48C317.42 66.2427 317.068 64.8133 317.068 63.192C317.068 61.5493 317.409 60.088 318.092 58.808C318.796 57.528 319.756 56.536 320.972 55.832C322.209 55.1067 323.66 54.744 325.324 54.744C326.881 54.744 328.257 55.0853 329.452 55.768C330.647 56.4507 331.575 57.3893 332.236 58.584C332.919 59.7573 333.26 61.0693 333.26 62.52C333.26 62.7547 333.249 63 333.228 63.256C333.228 63.512 333.217 63.7787 333.196 64.056H321.132C321.217 65.2933 321.644 66.264 322.412 66.968C323.201 67.672 324.151 68.024 325.26 68.024C326.092 68.024 326.785 67.8427 327.34 67.48C327.916 67.096 328.343 66.6053 328.62 66.008H332.78C332.481 67.0107 331.98 67.928 331.276 68.76C330.593 69.5707 329.74 70.2107 328.716 70.68C327.713 71.1493 326.572 71.384 325.292 71.384ZM325.324 58.072C324.321 58.072 323.436 58.36 322.668 58.936C321.9 59.4907 321.409 60.344 321.196 61.496H329.1C329.036 60.4507 328.652 59.6187 327.948 59C327.244 58.3813 326.369 58.072 325.324 58.072ZM336.705 71V47.96H340.801V71H336.705ZM352.602 71.384C351.066 71.384 349.68 71.032 348.442 70.328C347.226 69.624 346.256 68.6533 345.53 67.416C344.826 66.1573 344.474 64.7067 344.474 63.064C344.474 61.4213 344.837 59.9813 345.562 58.744C346.288 57.4853 347.258 56.504 348.474 55.8C349.712 55.096 351.098 54.744 352.634 54.744C354.149 54.744 355.514 55.096 356.73 55.8C357.968 56.504 358.938 57.4853 359.642 58.744C360.368 59.9813 360.73 61.4213 360.73 63.064C360.73 64.7067 360.368 66.1573 359.642 67.416C358.938 68.6533 357.968 69.624 356.73 70.328C355.493 71.032 354.117 71.384 352.602 71.384ZM352.602 67.832C353.669 67.832 354.597 67.4373 355.386 66.648C356.176 65.8373 356.57 64.6427 356.57 63.064C356.57 61.4853 356.176 60.3013 355.386 59.512C354.597 58.7013 353.68 58.296 352.634 58.296C351.546 58.296 350.608 58.7013 349.818 59.512C349.05 60.3013 348.666 61.4853 348.666 63.064C348.666 64.6427 349.05 65.8373 349.818 66.648C350.608 67.4373 351.536 67.832 352.602 67.832ZM364.393 78.04V55.128H368.041L368.489 57.4C369.001 56.696 369.673 56.0773 370.505 55.544C371.358 55.0107 372.457 54.744 373.801 54.744C375.294 54.744 376.627 55.1067 377.801 55.832C378.974 56.5573 379.902 57.5493 380.585 58.808C381.267 60.0667 381.609 61.496 381.609 63.096C381.609 64.696 381.267 66.1253 380.585 67.384C379.902 68.6213 378.974 69.6027 377.801 70.328C376.627 71.032 375.294 71.384 373.801 71.384C372.606 71.384 371.561 71.16 370.665 70.712C369.769 70.264 369.043 69.6347 368.489 68.824V78.04H364.393ZM372.937 67.8C374.238 67.8 375.315 67.3627 376.169 66.488C377.022 65.6133 377.449 64.4827 377.449 63.096C377.449 61.7093 377.022 60.568 376.169 59.672C375.315 58.776 374.238 58.328 372.937 58.328C371.614 58.328 370.526 58.776 369.673 59.672C368.841 60.5467 368.425 61.6773 368.425 63.064C368.425 64.4507 368.841 65.592 369.673 66.488C370.526 67.3627 371.614 67.8 372.937 67.8ZM385.268 71V55.128H388.884L389.236 57.272C389.748 56.504 390.42 55.896 391.252 55.448C392.105 54.9787 393.086 54.744 394.196 54.744C396.649 54.744 398.388 55.6933 399.412 57.592C399.988 56.7173 400.756 56.024 401.716 55.512C402.697 55 403.764 54.744 404.916 54.744C406.985 54.744 408.574 55.3627 409.684 56.6C410.793 57.8373 411.348 59.6507 411.348 62.04V71H407.252V62.424C407.252 61.0587 406.985 60.0133 406.452 59.288C405.94 58.5627 405.14 58.2 404.052 58.2C402.942 58.2 402.046 58.6053 401.364 59.416C400.702 60.2267 400.372 61.3573 400.372 62.808V71H396.276V62.424C396.276 61.0587 396.009 60.0133 395.476 59.288C394.942 58.5627 394.121 58.2 393.012 58.2C391.924 58.2 391.038 58.6053 390.356 59.416C389.694 60.2267 389.364 61.3573 389.364 62.808V71H385.268ZM422.948 71.384C421.348 71.384 419.93 71.0427 418.692 70.36C417.455 69.6773 416.484 68.7173 415.78 67.48C415.076 66.2427 414.724 64.8133 414.724 63.192C414.724 61.5493 415.066 60.088 415.748 58.808C416.452 57.528 417.412 56.536 418.628 55.832C419.866 55.1067 421.316 54.744 422.98 54.744C424.538 54.744 425.914 55.0853 427.108 55.768C428.303 56.4507 429.231 57.3893 429.892 58.584C430.575 59.7573 430.916 61.0693 430.916 62.52C430.916 62.7547 430.906 63 430.884 63.256C430.884 63.512 430.874 63.7787 430.852 64.056H418.788C418.874 65.2933 419.3 66.264 420.068 66.968C420.858 67.672 421.807 68.024 422.916 68.024C423.748 68.024 424.442 67.8427 424.996 67.48C425.572 67.096 425.999 66.6053 426.276 66.008H430.436C430.138 67.0107 429.636 67.928 428.932 68.76C428.25 69.5707 427.396 70.2107 426.372 70.68C425.37 71.1493 424.228 71.384 422.948 71.384ZM422.98 58.072C421.978 58.072 421.092 58.36 420.324 58.936C419.556 59.4907 419.066 60.344 418.852 61.496H426.756C426.692 60.4507 426.308 59.6187 425.604 59C424.9 58.3813 424.026 58.072 422.98 58.072ZM434.361 71V55.128H437.977L438.297 57.816C438.788 56.8773 439.492 56.1307 440.409 55.576C441.348 55.0213 442.447 54.744 443.705 54.744C445.668 54.744 447.193 55.3627 448.281 56.6C449.369 57.8373 449.913 59.6507 449.913 62.04V71H445.817V62.424C445.817 61.0587 445.54 60.0133 444.985 59.288C444.431 58.5627 443.567 58.2 442.393 58.2C441.241 58.2 440.292 58.6053 439.545 59.416C438.82 60.2267 438.457 61.3573 438.457 62.808V71H434.361ZM460.902 71C459.238 71 457.905 70.5947 456.902 69.784C455.899 68.9733 455.398 67.5333 455.398 65.464V58.552H452.678V55.128H455.398L455.878 50.872H459.494V55.128H463.782V58.552H459.494V65.496C459.494 66.264 459.654 66.7973 459.974 67.096C460.315 67.3733 460.891 67.512 461.702 67.512H463.686V71H460.902Z" fill="white"/>
<rect x="66.5" y="193.5" width="399" height="59" rx="7.5" fill="white" stroke="#002C66"/>
<rect x="66" y="521" width="400" height="60" rx="8" fill="#002C66"/>
<path d="M90.36 230V216H95.14C96.78 216 98.1267 216.293 99.18 216.88C100.247 217.453 101.033 218.267 101.54 219.32C102.06 220.36 102.32 221.587 102.32 223C102.32 224.413 102.06 225.647 101.54 226.7C101.033 227.74 100.247 228.553 99.18 229.14C98.1267 229.713 96.78 230 95.14 230H90.36ZM92.92 227.8H95.02C96.1933 227.8 97.12 227.613 97.8 227.24C98.48 226.853 98.9667 226.307 99.26 225.6C99.5533 224.88 99.7 224.013 99.7 223C99.7 222 99.5533 221.14 99.26 220.42C98.9667 219.7 98.48 219.147 97.8 218.76C97.12 218.373 96.1933 218.18 95.02 218.18H92.92V227.8ZM109.279 230.24C108.319 230.24 107.452 230.02 106.679 229.58C105.919 229.14 105.312 228.533 104.859 227.76C104.419 226.973 104.199 226.067 104.199 225.04C104.199 224.013 104.425 223.113 104.879 222.34C105.332 221.553 105.939 220.94 106.699 220.5C107.472 220.06 108.339 219.84 109.299 219.84C110.245 219.84 111.099 220.06 111.859 220.5C112.632 220.94 113.239 221.553 113.679 222.34C114.132 223.113 114.359 224.013 114.359 225.04C114.359 226.067 114.132 226.973 113.679 227.76C113.239 228.533 112.632 229.14 111.859 229.58C111.085 230.02 110.225 230.24 109.279 230.24ZM109.279 228.02C109.945 228.02 110.525 227.773 111.019 227.28C111.512 226.773 111.759 226.027 111.759 225.04C111.759 224.053 111.512 223.313 111.019 222.82C110.525 222.313 109.952 222.06 109.299 222.06C108.619 222.06 108.032 222.313 107.539 222.82C107.059 223.313 106.819 224.053 106.819 225.04C106.819 226.027 107.059 226.773 107.539 227.28C108.032 227.773 108.612 228.02 109.279 228.02ZM116.648 230V220.08H118.908L119.108 221.76C119.414 221.173 119.854 220.707 120.428 220.36C121.014 220.013 121.701 219.84 122.488 219.84C123.714 219.84 124.668 220.227 125.348 221C126.028 221.773 126.368 222.907 126.368 224.4V230H123.808V224.64C123.808 223.787 123.634 223.133 123.288 222.68C122.941 222.227 122.401 222 121.668 222C120.948 222 120.354 222.253 119.888 222.76C119.434 223.267 119.208 223.973 119.208 224.88V230H116.648ZM131.398 230L127.758 220.08H130.438L132.958 227.58L135.478 220.08H138.158L134.498 230H131.398ZM142.587 230.24C141.734 230.24 141.034 230.107 140.487 229.84C139.941 229.56 139.534 229.193 139.267 228.74C139.001 228.287 138.867 227.787 138.867 227.24C138.867 226.32 139.227 225.573 139.947 225C140.667 224.427 141.747 224.14 143.187 224.14H145.707V223.9C145.707 223.22 145.514 222.72 145.127 222.4C144.741 222.08 144.261 221.92 143.687 221.92C143.167 221.92 142.714 222.047 142.327 222.3C141.941 222.54 141.701 222.9 141.607 223.38H139.107C139.174 222.66 139.414 222.033 139.827 221.5C140.254 220.967 140.801 220.56 141.467 220.28C142.134 219.987 142.881 219.84 143.707 219.84C145.121 219.84 146.234 220.193 147.047 220.9C147.861 221.607 148.267 222.607 148.267 223.9V230H146.087L145.847 228.4C145.554 228.933 145.141 229.373 144.607 229.72C144.087 230.067 143.414 230.24 142.587 230.24ZM143.167 228.24C143.901 228.24 144.467 228 144.867 227.52C145.281 227.04 145.541 226.447 145.647 225.74H143.467C142.787 225.74 142.301 225.867 142.007 226.12C141.714 226.36 141.567 226.66 141.567 227.02C141.567 227.407 141.714 227.707 142.007 227.92C142.301 228.133 142.687 228.24 143.167 228.24ZM150.71 230V215.6H153.27V230H150.71ZM160.706 230.24C159.706 230.24 158.819 230.027 158.046 229.6C157.273 229.173 156.666 228.573 156.226 227.8C155.786 227.027 155.566 226.133 155.566 225.12C155.566 224.093 155.779 223.18 156.206 222.38C156.646 221.58 157.246 220.96 158.006 220.52C158.779 220.067 159.686 219.84 160.726 219.84C161.699 219.84 162.559 220.053 163.306 220.48C164.053 220.907 164.633 221.493 165.046 222.24C165.473 222.973 165.686 223.793 165.686 224.7C165.686 224.847 165.679 225 165.666 225.16C165.666 225.32 165.659 225.487 165.646 225.66H158.106C158.159 226.433 158.426 227.04 158.906 227.48C159.399 227.92 159.993 228.14 160.686 228.14C161.206 228.14 161.639 228.027 161.986 227.8C162.346 227.56 162.613 227.253 162.786 226.88H165.386C165.199 227.507 164.886 228.08 164.446 228.6C164.019 229.107 163.486 229.507 162.846 229.8C162.219 230.093 161.506 230.24 160.706 230.24ZM160.726 221.92C160.099 221.92 159.546 222.1 159.066 222.46C158.586 222.807 158.279 223.34 158.146 224.06H163.086C163.046 223.407 162.806 222.887 162.366 222.5C161.926 222.113 161.379 221.92 160.726 221.92ZM175.925 230V218.06H171.845V216H182.585V218.06H178.485V230H175.925ZM187.384 230.24C186.424 230.24 185.558 230.02 184.784 229.58C184.024 229.14 183.418 228.533 182.964 227.76C182.524 226.973 182.304 226.067 182.304 225.04C182.304 224.013 182.531 223.113 182.984 222.34C183.438 221.553 184.044 220.94 184.804 220.5C185.578 220.06 186.444 219.84 187.404 219.84C188.351 219.84 189.204 220.06 189.964 220.5C190.738 220.94 191.344 221.553 191.784 222.34C192.238 223.113 192.464 224.013 192.464 225.04C192.464 226.067 192.238 226.973 191.784 227.76C191.344 228.533 190.738 229.14 189.964 229.58C189.191 230.02 188.331 230.24 187.384 230.24ZM187.384 228.02C188.051 228.02 188.631 227.773 189.124 227.28C189.618 226.773 189.864 226.027 189.864 225.04C189.864 224.053 189.618 223.313 189.124 222.82C188.631 222.313 188.058 222.06 187.404 222.06C186.724 222.06 186.138 222.313 185.644 222.82C185.164 223.313 184.924 224.053 184.924 225.04C184.924 226.027 185.164 226.773 185.644 227.28C186.138 227.773 186.718 228.02 187.384 228.02ZM196.342 230L193.442 220.08H195.982L197.702 227.22L199.702 220.08H202.542L204.542 227.22L206.282 220.08H208.822L205.902 230H203.242L201.122 222.58L199.002 230H196.342ZM210.437 230V220.08H212.697L212.897 221.76C213.203 221.173 213.643 220.707 214.217 220.36C214.803 220.013 215.49 219.84 216.277 219.84C217.503 219.84 218.457 220.227 219.137 221C219.817 221.773 220.157 222.907 220.157 224.4V230H217.597V224.64C217.597 223.787 217.423 223.133 217.077 222.68C216.73 222.227 216.19 222 215.457 222C214.737 222 214.143 222.253 213.677 222.76C213.223 223.267 212.997 223.973 212.997 224.88V230H210.437ZM222.605 230V215.6H225.165V221.6C225.498 221.053 225.945 220.627 226.505 220.32C227.078 220 227.731 219.84 228.465 219.84C229.691 219.84 230.638 220.227 231.305 221C231.985 221.773 232.325 222.907 232.325 224.4V230H229.785V224.64C229.785 223.787 229.611 223.133 229.265 222.68C228.931 222.227 228.398 222 227.665 222C226.945 222 226.345 222.253 225.865 222.76C225.398 223.267 225.165 223.973 225.165 224.88V230H222.605ZM239.533 230.24C238.573 230.24 237.706 230.02 236.933 229.58C236.173 229.14 235.566 228.533 235.113 227.76C234.673 226.973 234.453 226.067 234.453 225.04C234.453 224.013 234.679 223.113 235.133 222.34C235.586 221.553 236.193 220.94 236.953 220.5C237.726 220.06 238.593 219.84 239.553 219.84C240.499 219.84 241.353 220.06 242.113 220.5C242.886 220.94 243.493 221.553 243.933 222.34C244.386 223.113 244.613 224.013 244.613 225.04C244.613 226.067 244.386 226.973 243.933 227.76C243.493 228.533 242.886 229.14 242.113 229.58C241.339 230.02 240.479 230.24 239.533 230.24ZM239.533 228.02C240.199 228.02 240.779 227.773 241.273 227.28C241.766 226.773 242.013 226.027 242.013 225.04C242.013 224.053 241.766 223.313 241.273 222.82C240.779 222.313 240.206 222.06 239.553 222.06C238.873 222.06 238.286 222.313 237.793 222.82C237.313 223.313 237.073 224.053 237.073 225.04C237.073 226.027 237.313 226.773 237.793 227.28C238.286 227.773 238.866 228.02 239.533 228.02ZM250.622 230.24C249.382 230.24 248.422 229.853 247.742 229.08C247.075 228.307 246.742 227.173 246.742 225.68V220.08H249.282V225.44C249.282 226.293 249.455 226.947 249.802 227.4C250.148 227.853 250.695 228.08 251.442 228.08C252.148 228.08 252.728 227.827 253.182 227.32C253.648 226.813 253.882 226.107 253.882 225.2V220.08H256.442V230H254.182L253.982 228.32C253.675 228.907 253.228 229.373 252.642 229.72C252.068 230.067 251.395 230.24 250.622 230.24ZM263.17 230.24C262.29 230.24 261.516 230.1 260.85 229.82C260.183 229.527 259.65 229.127 259.25 228.62C258.85 228.113 258.61 227.527 258.53 226.86H261.11C261.19 227.247 261.403 227.58 261.75 227.86C262.11 228.127 262.57 228.26 263.13 228.26C263.69 228.26 264.096 228.147 264.35 227.92C264.616 227.693 264.75 227.433 264.75 227.14C264.75 226.713 264.563 226.427 264.19 226.28C263.816 226.12 263.296 225.967 262.63 225.82C262.203 225.727 261.77 225.613 261.33 225.48C260.89 225.347 260.483 225.18 260.11 224.98C259.75 224.767 259.456 224.5 259.23 224.18C259.003 223.847 258.89 223.44 258.89 222.96C258.89 222.08 259.236 221.34 259.93 220.74C260.636 220.14 261.623 219.84 262.89 219.84C264.063 219.84 264.996 220.113 265.69 220.66C266.396 221.207 266.816 221.96 266.95 222.92H264.53C264.383 222.187 263.83 221.82 262.87 221.82C262.39 221.82 262.016 221.913 261.75 222.1C261.496 222.287 261.37 222.52 261.37 222.8C261.37 223.093 261.563 223.327 261.95 223.5C262.336 223.673 262.85 223.833 263.49 223.98C264.183 224.14 264.816 224.32 265.39 224.52C265.976 224.707 266.443 224.993 266.79 225.38C267.136 225.753 267.31 226.293 267.31 227C267.323 227.613 267.163 228.167 266.83 228.66C266.496 229.153 266.016 229.54 265.39 229.82C264.763 230.1 264.023 230.24 263.17 230.24ZM274.397 230.24C273.397 230.24 272.511 230.027 271.737 229.6C270.964 229.173 270.357 228.573 269.917 227.8C269.477 227.027 269.257 226.133 269.257 225.12C269.257 224.093 269.471 223.18 269.897 222.38C270.337 221.58 270.937 220.96 271.697 220.52C272.471 220.067 273.377 219.84 274.417 219.84C275.391 219.84 276.251 220.053 276.997 220.48C277.744 220.907 278.324 221.493 278.737 222.24C279.164 222.973 279.377 223.793 279.377 224.7C279.377 224.847 279.371 225 279.357 225.16C279.357 225.32 279.351 225.487 279.337 225.66H271.797C271.851 226.433 272.117 227.04 272.597 227.48C273.091 227.92 273.684 228.14 274.377 228.14C274.897 228.14 275.331 228.027 275.677 227.8C276.037 227.56 276.304 227.253 276.477 226.88H279.077C278.891 227.507 278.577 228.08 278.137 228.6C277.711 229.107 277.177 229.507 276.537 229.8C275.911 230.093 275.197 230.24 274.397 230.24ZM274.417 221.92C273.791 221.92 273.237 222.1 272.757 222.46C272.277 222.807 271.971 223.34 271.837 224.06H276.777C276.737 223.407 276.497 222.887 276.057 222.5C275.617 222.113 275.071 221.92 274.417 221.92ZM285.63 230.24C284.75 230.24 283.977 230.1 283.31 229.82C282.644 229.527 282.11 229.127 281.71 228.62C281.31 228.113 281.07 227.527 280.99 226.86H283.57C283.65 227.247 283.864 227.58 284.21 227.86C284.57 228.127 285.03 228.26 285.59 228.26C286.15 228.26 286.557 228.147 286.81 227.92C287.077 227.693 287.21 227.433 287.21 227.14C287.21 226.713 287.024 226.427 286.65 226.28C286.277 226.12 285.757 225.967 285.09 225.82C284.664 225.727 284.23 225.613 283.79 225.48C283.35 225.347 282.944 225.18 282.57 224.98C282.21 224.767 281.917 224.5 281.69 224.18C281.464 223.847 281.35 223.44 281.35 222.96C281.35 222.08 281.697 221.34 282.39 220.74C283.097 220.14 284.084 219.84 285.35 219.84C286.524 219.84 287.457 220.113 288.15 220.66C288.857 221.207 289.277 221.96 289.41 222.92H286.99C286.844 222.187 286.29 221.82 285.33 221.82C284.85 221.82 284.477 221.913 284.21 222.1C283.957 222.287 283.83 222.52 283.83 222.8C283.83 223.093 284.024 223.327 284.41 223.5C284.797 223.673 285.31 223.833 285.95 223.98C286.644 224.14 287.277 224.32 287.85 224.52C288.437 224.707 288.904 224.993 289.25 225.38C289.597 225.753 289.77 226.293 289.77 227C289.784 227.613 289.624 228.167 289.29 228.66C288.957 229.153 288.477 229.54 287.85 229.82C287.224 230.1 286.484 230.24 285.63 230.24Z" fill="black"/>
<path d="M71.62 184V172.06H67.54V170H78.28V172.06H74.18V184H71.62ZM81.4964 172.54C81.0297 172.54 80.6431 172.4 80.3364 172.12C80.0431 171.84 79.8964 171.487 79.8964 171.06C79.8964 170.633 80.0431 170.287 80.3364 170.02C80.6431 169.74 81.0297 169.6 81.4964 169.6C81.9631 169.6 82.3431 169.74 82.6364 170.02C82.9431 170.287 83.0964 170.633 83.0964 171.06C83.0964 171.487 82.9431 171.84 82.6364 172.12C82.3431 172.4 81.9631 172.54 81.4964 172.54ZM80.2164 184V174.08H82.7764V184H80.2164ZM89.8684 184C88.8284 184 87.9951 183.747 87.3684 183.24C86.7418 182.733 86.4284 181.833 86.4284 180.54V176.22H84.7284V174.08H86.4284L86.7284 171.42H88.9884V174.08H91.6684V176.22H88.9884V180.56C88.9884 181.04 89.0884 181.373 89.2884 181.56C89.5018 181.733 89.8618 181.82 90.3684 181.82H91.6084V184H89.8684ZM93.8664 184V169.6H96.4264V184H93.8664ZM103.862 184.24C102.862 184.24 101.976 184.027 101.202 183.6C100.429 183.173 99.8222 182.573 99.3822 181.8C98.9422 181.027 98.7222 180.133 98.7222 179.12C98.7222 178.093 98.9355 177.18 99.3622 176.38C99.8022 175.58 100.402 174.96 101.162 174.52C101.936 174.067 102.842 173.84 103.882 173.84C104.856 173.84 105.716 174.053 106.462 174.48C107.209 174.907 107.789 175.493 108.202 176.24C108.629 176.973 108.842 177.793 108.842 178.7C108.842 178.847 108.836 179 108.822 179.16C108.822 179.32 108.816 179.487 108.802 179.66H101.262C101.316 180.433 101.582 181.04 102.062 181.48C102.556 181.92 103.149 182.14 103.842 182.14C104.362 182.14 104.796 182.027 105.142 181.8C105.502 181.56 105.769 181.253 105.942 180.88H108.542C108.356 181.507 108.042 182.08 107.602 182.6C107.176 183.107 106.642 183.507 106.002 183.8C105.376 184.093 104.662 184.24 103.862 184.24ZM103.882 175.92C103.256 175.92 102.702 176.1 102.222 176.46C101.742 176.807 101.436 177.34 101.302 178.06H106.242C106.202 177.407 105.962 176.887 105.522 176.5C105.082 176.113 104.536 175.92 103.882 175.92Z" fill="black"/>
<rect x="65.5" y="411.5" width="399" height="59" rx="7.5" fill="white" stroke="#002C66"/>
<path d="M93.28 449.74V448.2C91.9867 448.053 90.9333 447.6 90.12 446.84C89.3067 446.08 88.8867 445.06 88.86 443.78H91.56C91.5867 444.313 91.7467 444.78 92.04 445.18C92.3467 445.58 92.76 445.853 93.28 446V441.78C93.16 441.74 93.0333 441.7 92.9 441.66C92.78 441.62 92.6533 441.58 92.52 441.54C91.44 441.167 90.6133 440.687 90.04 440.1C89.48 439.513 89.2 438.733 89.2 437.76C89.1867 436.613 89.56 435.693 90.32 435C91.08 434.293 92.0667 433.887 93.28 433.78V432.16H94.62V433.8C95.82 433.92 96.7867 434.34 97.52 435.06C98.2667 435.767 98.66 436.68 98.7 437.8H95.96C95.9467 437.413 95.82 437.06 95.58 436.74C95.3533 436.407 95.0333 436.173 94.62 436.04V439.76C94.7267 439.8 94.8333 439.84 94.94 439.88C95.0467 439.907 95.1533 439.94 95.26 439.98C95.9533 440.22 96.5867 440.5 97.16 440.82C97.7333 441.14 98.1933 441.567 98.54 442.1C98.8867 442.62 99.06 443.293 99.06 444.12C99.06 444.813 98.8867 445.46 98.54 446.06C98.2067 446.66 97.7067 447.16 97.04 447.56C96.3867 447.947 95.58 448.167 94.62 448.22V449.74H93.28ZM91.88 437.58C91.88 438.007 92.0067 438.353 92.26 438.62C92.5133 438.873 92.8533 439.093 93.28 439.28V435.96C92.8667 436.04 92.5267 436.22 92.26 436.5C92.0067 436.78 91.88 437.14 91.88 437.58ZM96.34 444.3C96.34 443.767 96.18 443.347 95.86 443.04C95.54 442.733 95.1267 442.473 94.62 442.26V446.06C95.1533 445.98 95.5733 445.787 95.88 445.48C96.1867 445.173 96.34 444.78 96.34 444.3ZM102.814 448V436.92L100.514 437.46V435.5L103.894 434H105.474V448H102.814ZM107.108 450.32L108.248 445.34H110.728L108.788 450.32H107.108ZM118.557 448.24C117.264 448.24 116.157 447.94 115.237 447.34C114.317 446.727 113.604 445.88 113.097 444.8C112.604 443.707 112.357 442.44 112.357 441C112.357 439.573 112.604 438.313 113.097 437.22C113.604 436.127 114.317 435.28 115.237 434.68C116.157 434.067 117.264 433.76 118.557 433.76C119.85 433.76 120.957 434.067 121.877 434.68C122.797 435.28 123.504 436.127 123.997 437.22C124.504 438.313 124.757 439.573 124.757 441C124.757 442.44 124.504 443.707 123.997 444.8C123.504 445.88 122.797 446.727 121.877 447.34C120.957 447.94 119.85 448.24 118.557 448.24ZM118.557 445.94C119.61 445.94 120.47 445.5 121.137 444.62C121.804 443.74 122.137 442.533 122.137 441C122.137 439.467 121.804 438.26 121.137 437.38C120.47 436.5 119.61 436.06 118.557 436.06C117.49 436.06 116.624 436.5 115.957 437.38C115.304 438.26 114.977 439.467 114.977 441C114.977 442.533 115.304 443.74 115.957 444.62C116.624 445.5 117.49 445.94 118.557 445.94ZM132.756 448.24C131.463 448.24 130.356 447.94 129.436 447.34C128.516 446.727 127.803 445.88 127.296 444.8C126.803 443.707 126.556 442.44 126.556 441C126.556 439.573 126.803 438.313 127.296 437.22C127.803 436.127 128.516 435.28 129.436 434.68C130.356 434.067 131.463 433.76 132.756 433.76C134.05 433.76 135.156 434.067 136.076 434.68C136.996 435.28 137.703 436.127 138.196 437.22C138.703 438.313 138.956 439.573 138.956 441C138.956 442.44 138.703 443.707 138.196 444.8C137.703 445.88 136.996 446.727 136.076 447.34C135.156 447.94 134.05 448.24 132.756 448.24ZM132.756 445.94C133.81 445.94 134.67 445.5 135.336 444.62C136.003 443.74 136.336 442.533 136.336 441C136.336 439.467 136.003 438.26 135.336 437.38C134.67 436.5 133.81 436.06 132.756 436.06C131.69 436.06 130.823 436.5 130.156 437.38C129.503 438.26 129.176 439.467 129.176 441C129.176 442.533 129.503 443.74 130.156 444.62C130.823 445.5 131.69 445.94 132.756 445.94ZM146.955 448.24C145.662 448.24 144.555 447.94 143.635 447.34C142.715 446.727 142.002 445.88 141.495 444.8C141.002 443.707 140.755 442.44 140.755 441C140.755 439.573 141.002 438.313 141.495 437.22C142.002 436.127 142.715 435.28 143.635 434.68C144.555 434.067 145.662 433.76 146.955 433.76C148.249 433.76 149.355 434.067 150.275 434.68C151.195 435.28 151.902 436.127 152.395 437.22C152.902 438.313 153.155 439.573 153.155 441C153.155 442.44 152.902 443.707 152.395 444.8C151.902 445.88 151.195 446.727 150.275 447.34C149.355 447.94 148.249 448.24 146.955 448.24ZM146.955 445.94C148.009 445.94 148.869 445.5 149.535 444.62C150.202 443.74 150.535 442.533 150.535 441C150.535 439.467 150.202 438.26 149.535 437.38C148.869 436.5 148.009 436.06 146.955 436.06C145.889 436.06 145.022 436.5 144.355 437.38C143.702 438.26 143.375 439.467 143.375 441C143.375 442.533 143.702 443.74 144.355 444.62C145.022 445.5 145.889 445.94 146.955 445.94ZM153.729 450.32L154.869 445.34H157.349L155.409 450.32H153.729ZM165.178 448.24C163.885 448.24 162.778 447.94 161.858 447.34C160.938 446.727 160.225 445.88 159.718 444.8C159.225 443.707 158.978 442.44 158.978 441C158.978 439.573 159.225 438.313 159.718 437.22C160.225 436.127 160.938 435.28 161.858 434.68C162.778 434.067 163.885 433.76 165.178 433.76C166.471 433.76 167.578 434.067 168.498 434.68C169.418 435.28 170.125 436.127 170.618 437.22C171.125 438.313 171.378 439.573 171.378 441C171.378 442.44 171.125 443.707 170.618 444.8C170.125 445.88 169.418 446.727 168.498 447.34C167.578 447.94 166.471 448.24 165.178 448.24ZM165.178 445.94C166.231 445.94 167.091 445.5 167.758 444.62C168.425 443.74 168.758 442.533 168.758 441C168.758 439.467 168.425 438.26 167.758 437.38C167.091 436.5 166.231 436.06 165.178 436.06C164.111 436.06 163.245 436.5 162.578 437.38C161.925 438.26 161.598 439.467 161.598 441C161.598 442.533 161.925 443.74 162.578 444.62C163.245 445.5 164.111 445.94 165.178 445.94ZM179.377 448.24C178.084 448.24 176.977 447.94 176.057 447.34C175.137 446.727 174.424 445.88 173.917 444.8C173.424 443.707 173.177 442.44 173.177 441C173.177 439.573 173.424 438.313 173.917 437.22C174.424 436.127 175.137 435.28 176.057 434.68C176.977 434.067 178.084 433.76 179.377 433.76C180.671 433.76 181.777 434.067 182.697 434.68C183.617 435.28 184.324 436.127 184.817 437.22C185.324 438.313 185.577 439.573 185.577 441C185.577 442.44 185.324 443.707 184.817 444.8C184.324 445.88 183.617 446.727 182.697 447.34C181.777 447.94 180.671 448.24 179.377 448.24ZM179.377 445.94C180.431 445.94 181.291 445.5 181.957 444.62C182.624 443.74 182.957 442.533 182.957 441C182.957 439.467 182.624 438.26 181.957 437.38C181.291 436.5 180.431 436.06 179.377 436.06C178.311 436.06 177.444 436.5 176.777 437.38C176.124 438.26 175.797 439.467 175.797 441C175.797 442.533 176.124 443.74 176.777 444.62C177.444 445.5 178.311 445.94 179.377 445.94ZM193.577 448.24C192.283 448.24 191.177 447.94 190.257 447.34C189.337 446.727 188.623 445.88 188.117 444.8C187.623 443.707 187.377 442.44 187.377 441C187.377 439.573 187.623 438.313 188.117 437.22C188.623 436.127 189.337 435.28 190.257 434.68C191.177 434.067 192.283 433.76 193.577 433.76C194.87 433.76 195.977 434.067 196.897 434.68C197.817 435.28 198.523 436.127 199.017 437.22C199.523 438.313 199.777 439.573 199.777 441C199.777 442.44 199.523 443.707 199.017 444.8C198.523 445.88 197.817 446.727 196.897 447.34C195.977 447.94 194.87 448.24 193.577 448.24ZM193.577 445.94C194.63 445.94 195.49 445.5 196.157 444.62C196.823 443.74 197.157 442.533 197.157 441C197.157 439.467 196.823 438.26 196.157 437.38C195.49 436.5 194.63 436.06 193.577 436.06C192.51 436.06 191.643 436.5 190.977 437.38C190.323 438.26 189.997 439.467 189.997 441C189.997 442.533 190.323 443.74 190.977 444.62C191.643 445.5 192.51 445.94 193.577 445.94Z" fill="black"/>
<path d="M67.36 402V388H76.4V390.06H69.92V393.98H75.16V396H69.92V402H67.36ZM82.0356 402.24C80.7956 402.24 79.8356 401.853 79.1556 401.08C78.489 400.307 78.1556 399.173 78.1556 397.68V392.08H80.6956V397.44C80.6956 398.293 80.869 398.947 81.2156 399.4C81.5623 399.853 82.109 400.08 82.8556 400.08C83.5623 400.08 84.1423 399.827 84.5956 399.32C85.0623 398.813 85.2956 398.107 85.2956 397.2V392.08H87.8556V402H85.5956L85.3956 400.32C85.089 400.907 84.6423 401.373 84.0556 401.72C83.4823 402.067 82.809 402.24 82.0356 402.24ZM90.4836 402V392.08H92.7436L92.9436 393.76C93.2503 393.173 93.6903 392.707 94.2636 392.36C94.8503 392.013 95.5369 391.84 96.3236 391.84C97.5503 391.84 98.5036 392.227 99.1836 393C99.8636 393.773 100.204 394.907 100.204 396.4V402H97.6436V396.64C97.6436 395.787 97.4703 395.133 97.1236 394.68C96.7769 394.227 96.2369 394 95.5036 394C94.7836 394 94.1903 394.253 93.7236 394.76C93.2703 395.267 93.0436 395.973 93.0436 396.88V402H90.4836ZM107.212 402.24C106.278 402.24 105.445 402.013 104.712 401.56C103.978 401.107 103.398 400.487 102.972 399.7C102.545 398.913 102.332 398.02 102.332 397.02C102.332 396.02 102.545 395.133 102.972 394.36C103.398 393.573 103.978 392.96 104.712 392.52C105.445 392.067 106.278 391.84 107.212 391.84C107.958 391.84 108.612 391.98 109.172 392.26C109.732 392.54 110.185 392.933 110.532 393.44V387.6H113.092V402H110.812L110.532 400.58C110.212 401.02 109.785 401.407 109.252 401.74C108.732 402.073 108.052 402.24 107.212 402.24ZM107.752 400C108.578 400 109.252 399.727 109.772 399.18C110.305 398.62 110.572 397.907 110.572 397.04C110.572 396.173 110.305 395.467 109.772 394.92C109.252 394.36 108.578 394.08 107.752 394.08C106.938 394.08 106.265 394.353 105.732 394.9C105.198 395.447 104.932 396.153 104.932 397.02C104.932 397.887 105.198 398.6 105.732 399.16C106.265 399.72 106.938 400 107.752 400ZM117.078 390.54C116.612 390.54 116.225 390.4 115.918 390.12C115.625 389.84 115.478 389.487 115.478 389.06C115.478 388.633 115.625 388.287 115.918 388.02C116.225 387.74 116.612 387.6 117.078 387.6C117.545 387.6 117.925 387.74 118.218 388.02C118.525 388.287 118.678 388.633 118.678 389.06C118.678 389.487 118.525 389.84 118.218 390.12C117.925 390.4 117.545 390.54 117.078 390.54ZM115.798 402V392.08H118.358V402H115.798ZM121.03 402V392.08H123.29L123.49 393.76C123.797 393.173 124.237 392.707 124.81 392.36C125.397 392.013 126.084 391.84 126.87 391.84C128.097 391.84 129.05 392.227 129.73 393C130.41 393.773 130.75 394.907 130.75 396.4V402H128.19V396.64C128.19 395.787 128.017 395.133 127.67 394.68C127.324 394.227 126.784 394 126.05 394C125.33 394 124.737 394.253 124.27 394.76C123.817 395.267 123.59 395.973 123.59 396.88V402H121.03ZM137.398 399.04C136.918 399.04 136.472 398.987 136.058 398.88L135.318 399.62C135.545 399.74 135.852 399.84 136.238 399.92C136.625 400 137.252 400.08 138.118 400.16C139.438 400.28 140.398 400.593 140.998 401.1C141.598 401.607 141.898 402.307 141.898 403.2C141.898 403.787 141.738 404.34 141.418 404.86C141.098 405.393 140.605 405.82 139.938 406.14C139.272 406.473 138.418 406.64 137.378 406.64C135.965 406.64 134.825 406.373 133.958 405.84C133.092 405.32 132.658 404.533 132.658 403.48C132.658 402.587 133.092 401.813 133.958 401.16C133.692 401.04 133.458 400.913 133.258 400.78C133.072 400.647 132.905 400.507 132.758 400.36V399.9L134.498 398.06C133.725 397.38 133.338 396.507 133.338 395.44C133.338 394.773 133.498 394.167 133.818 393.62C134.152 393.073 134.618 392.64 135.218 392.32C135.818 392 136.545 391.84 137.398 391.84C137.958 391.84 138.478 391.92 138.958 392.08H142.718V393.64L141.018 393.76C141.285 394.267 141.418 394.827 141.418 395.44C141.418 396.107 141.258 396.713 140.938 397.26C140.618 397.807 140.152 398.24 139.538 398.56C138.938 398.88 138.225 399.04 137.398 399.04ZM137.398 397.08C137.918 397.08 138.345 396.94 138.678 396.66C139.025 396.38 139.198 395.98 139.198 395.46C139.198 394.94 139.025 394.54 138.678 394.26C138.345 393.98 137.918 393.84 137.398 393.84C136.852 393.84 136.412 393.98 136.078 394.26C135.745 394.54 135.578 394.94 135.578 395.46C135.578 395.98 135.745 396.38 136.078 396.66C136.412 396.94 136.852 397.08 137.398 397.08ZM134.998 403.22C134.998 403.713 135.225 404.08 135.678 404.32C136.145 404.573 136.712 404.7 137.378 404.7C138.018 404.7 138.538 404.567 138.938 404.3C139.338 404.047 139.538 403.7 139.538 403.26C139.538 402.9 139.405 402.6 139.138 402.36C138.885 402.12 138.372 401.973 137.598 401.92C137.052 401.88 136.545 401.82 136.078 401.74C135.692 401.953 135.412 402.187 135.238 402.44C135.078 402.693 134.998 402.953 134.998 403.22ZM149.351 402V392.08H151.631L151.871 393.94C152.231 393.3 152.717 392.793 153.331 392.42C153.957 392.033 154.691 391.84 155.531 391.84V394.54H154.811C154.251 394.54 153.751 394.627 153.311 394.8C152.871 394.973 152.524 395.273 152.271 395.7C152.031 396.127 151.911 396.72 151.911 397.48V402H149.351ZM161.925 402.24C160.925 402.24 160.038 402.027 159.265 401.6C158.491 401.173 157.885 400.573 157.445 399.8C157.005 399.027 156.785 398.133 156.785 397.12C156.785 396.093 156.998 395.18 157.425 394.38C157.865 393.58 158.465 392.96 159.225 392.52C159.998 392.067 160.905 391.84 161.945 391.84C162.918 391.84 163.778 392.053 164.525 392.48C165.271 392.907 165.851 393.493 166.265 394.24C166.691 394.973 166.905 395.793 166.905 396.7C166.905 396.847 166.898 397 166.885 397.16C166.885 397.32 166.878 397.487 166.865 397.66H159.325C159.378 398.433 159.645 399.04 160.125 399.48C160.618 399.92 161.211 400.14 161.905 400.14C162.425 400.14 162.858 400.027 163.205 399.8C163.565 399.56 163.831 399.253 164.005 398.88H166.605C166.418 399.507 166.105 400.08 165.665 400.6C165.238 401.107 164.705 401.507 164.065 401.8C163.438 402.093 162.725 402.24 161.925 402.24ZM161.945 393.92C161.318 393.92 160.765 394.1 160.285 394.46C159.805 394.807 159.498 395.34 159.365 396.06H164.305C164.265 395.407 164.025 394.887 163.585 394.5C163.145 394.113 162.598 393.92 161.945 393.92ZM176.938 406.4V400.58C176.618 401.02 176.191 401.407 175.658 401.74C175.138 402.073 174.458 402.24 173.618 402.24C172.684 402.24 171.851 402.013 171.118 401.56C170.384 401.107 169.804 400.487 169.378 399.7C168.951 398.913 168.738 398.02 168.738 397.02C168.738 396.02 168.951 395.133 169.378 394.36C169.804 393.573 170.384 392.96 171.118 392.52C171.851 392.067 172.684 391.84 173.618 391.84C174.364 391.84 175.018 391.98 175.578 392.26C176.138 392.54 176.591 392.933 176.938 393.44L177.218 392.08H179.498V406.4H176.938ZM174.158 400C174.984 400 175.658 399.727 176.178 399.18C176.711 398.62 176.978 397.907 176.978 397.04C176.978 396.173 176.711 395.467 176.178 394.92C175.658 394.36 174.984 394.08 174.158 394.08C173.344 394.08 172.671 394.353 172.138 394.9C171.604 395.447 171.338 396.153 171.338 397.02C171.338 397.887 171.604 398.6 172.138 399.16C172.671 399.72 173.344 400 174.158 400ZM185.825 402.24C184.585 402.24 183.625 401.853 182.945 401.08C182.278 400.307 181.945 399.173 181.945 397.68V392.08H184.485V397.44C184.485 398.293 184.658 398.947 185.005 399.4C185.351 399.853 185.898 400.08 186.645 400.08C187.351 400.08 187.931 399.827 188.385 399.32C188.851 398.813 189.085 398.107 189.085 397.2V392.08H191.645V402H189.385L189.185 400.32C188.878 400.907 188.431 401.373 187.845 401.72C187.271 402.067 186.598 402.24 185.825 402.24ZM195.653 390.54C195.186 390.54 194.799 390.4 194.493 390.12C194.199 389.84 194.053 389.487 194.053 389.06C194.053 388.633 194.199 388.287 194.493 388.02C194.799 387.74 195.186 387.6 195.653 387.6C196.119 387.6 196.499 387.74 196.793 388.02C197.099 388.287 197.253 388.633 197.253 389.06C197.253 389.487 197.099 389.84 196.793 390.12C196.499 390.4 196.119 390.54 195.653 390.54ZM194.373 402V392.08H196.933V402H194.373ZM199.605 402V392.08H201.885L202.125 393.94C202.485 393.3 202.971 392.793 203.585 392.42C204.211 392.033 204.945 391.84 205.785 391.84V394.54H205.065C204.505 394.54 204.005 394.627 203.565 394.8C203.125 394.973 202.778 395.273 202.525 395.7C202.285 396.127 202.165 396.72 202.165 397.48V402H199.605ZM212.179 402.24C211.179 402.24 210.292 402.027 209.519 401.6C208.745 401.173 208.139 400.573 207.699 399.8C207.259 399.027 207.039 398.133 207.039 397.12C207.039 396.093 207.252 395.18 207.679 394.38C208.119 393.58 208.719 392.96 209.479 392.52C210.252 392.067 211.159 391.84 212.199 391.84C213.172 391.84 214.032 392.053 214.779 392.48C215.525 392.907 216.105 393.493 216.519 394.24C216.945 394.973 217.159 395.793 217.159 396.7C217.159 396.847 217.152 397 217.139 397.16C217.139 397.32 217.132 397.487 217.119 397.66H209.579C209.632 398.433 209.899 399.04 210.379 399.48C210.872 399.92 211.465 400.14 212.159 400.14C212.679 400.14 213.112 400.027 213.459 399.8C213.819 399.56 214.085 399.253 214.259 398.88H216.859C216.672 399.507 216.359 400.08 215.919 400.6C215.492 401.107 214.959 401.507 214.319 401.8C213.692 402.093 212.979 402.24 212.179 402.24ZM212.199 393.92C211.572 393.92 211.019 394.1 210.539 394.46C210.059 394.807 209.752 395.34 209.619 396.06H214.559C214.519 395.407 214.279 394.887 213.839 394.5C213.399 394.113 212.852 393.92 212.199 393.92ZM223.872 402.24C222.938 402.24 222.105 402.013 221.372 401.56C220.638 401.107 220.058 400.487 219.632 399.7C219.205 398.913 218.992 398.02 218.992 397.02C218.992 396.02 219.205 395.133 219.632 394.36C220.058 393.573 220.638 392.96 221.372 392.52C222.105 392.067 222.938 391.84 223.872 391.84C224.618 391.84 225.272 391.98 225.832 392.26C226.392 392.54 226.845 392.933 227.192 393.44V387.6H229.752V402H227.472L227.192 400.58C226.872 401.02 226.445 401.407 225.912 401.74C225.392 402.073 224.712 402.24 223.872 402.24ZM224.412 400C225.238 400 225.912 399.727 226.432 399.18C226.965 398.62 227.232 397.907 227.232 397.04C227.232 396.173 226.965 395.467 226.432 394.92C225.912 394.36 225.238 394.08 224.412 394.08C223.598 394.08 222.925 394.353 222.392 394.9C221.858 395.447 221.592 396.153 221.592 397.02C221.592 397.887 221.858 398.6 222.392 399.16C222.925 399.72 223.598 400 224.412 400Z" fill="black"/>
<rect x="65.5" y="302.5" width="399" height="59" rx="7.5" fill="white" stroke="#002C66"/>
<path d="M93.94 339.24C93.02 339.24 92.1867 339.08 91.44 338.76C90.6933 338.427 90.0933 337.92 89.64 337.24C89.1867 336.56 88.9467 335.707 88.92 334.68H91.44C91.4533 335.36 91.6733 335.933 92.1 336.4C92.54 336.853 93.1533 337.08 93.94 337.08C94.6867 337.08 95.26 336.873 95.66 336.46C96.06 336.047 96.26 335.527 96.26 334.9C96.26 334.167 95.9933 333.613 95.46 333.24C94.94 332.853 94.2667 332.66 93.44 332.66H92.4V330.56H93.46C94.14 330.56 94.7067 330.4 95.16 330.08C95.6133 329.76 95.84 329.287 95.84 328.66C95.84 328.14 95.6667 327.727 95.32 327.42C94.9867 327.1 94.52 326.94 93.92 326.94C93.2667 326.94 92.7533 327.133 92.38 327.52C92.02 327.907 91.82 328.38 91.78 328.94H89.28C89.3333 327.647 89.78 326.627 90.62 325.88C91.4733 325.133 92.5733 324.76 93.92 324.76C94.88 324.76 95.6867 324.933 96.34 325.28C97.0067 325.613 97.5067 326.06 97.84 326.62C98.1867 327.18 98.36 327.8 98.36 328.48C98.36 329.267 98.14 329.933 97.7 330.48C97.2733 331.013 96.74 331.373 96.1 331.56C96.8867 331.72 97.5267 332.107 98.02 332.72C98.5133 333.32 98.76 334.08 98.76 335C98.76 335.773 98.5733 336.48 98.2 337.12C97.8267 337.76 97.28 338.273 96.56 338.66C95.8533 339.047 94.98 339.24 93.94 339.24ZM106.294 339.24C105.267 339.24 104.381 339.06 103.634 338.7C102.901 338.34 102.321 337.847 101.894 337.22C101.481 336.58 101.241 335.86 101.174 335.06H103.674C103.794 335.633 104.087 336.113 104.554 336.5C105.021 336.873 105.601 337.06 106.294 337.06C107.041 337.06 107.647 336.787 108.114 336.24C108.594 335.693 108.834 335.013 108.834 334.2C108.834 333.36 108.594 332.693 108.114 332.2C107.647 331.707 107.054 331.46 106.334 331.46C105.734 331.46 105.214 331.607 104.774 331.9C104.334 332.193 104.021 332.56 103.834 333H101.374L102.574 325H110.334V327.24H104.494L103.854 330.48C104.147 330.16 104.547 329.9 105.054 329.7C105.561 329.487 106.127 329.38 106.754 329.38C107.754 329.38 108.587 329.607 109.254 330.06C109.921 330.5 110.427 331.087 110.774 331.82C111.121 332.54 111.294 333.327 111.294 334.18C111.294 335.153 111.081 336.02 110.654 336.78C110.241 337.54 109.654 338.14 108.894 338.58C108.147 339.02 107.281 339.24 106.294 339.24ZM117.542 339L122.662 325H125.542L130.662 339H127.942L126.822 335.76H121.362L120.222 339H117.542ZM122.062 333.76H126.122L124.082 327.94L122.062 333.76ZM132.405 339V329.08H134.685L134.925 330.94C135.285 330.3 135.772 329.793 136.385 329.42C137.012 329.033 137.745 328.84 138.585 328.84V331.54H137.865C137.305 331.54 136.805 331.627 136.365 331.8C135.925 331.973 135.579 332.273 135.325 332.7C135.085 333.127 134.965 333.72 134.965 334.48V339H132.405ZM145.019 339.24C144.006 339.24 143.113 339.02 142.339 338.58C141.566 338.14 140.953 337.527 140.499 336.74C140.059 335.953 139.839 335.053 139.839 334.04C139.839 333.027 140.059 332.127 140.499 331.34C140.953 330.553 141.566 329.94 142.339 329.5C143.113 329.06 144.006 328.84 145.019 328.84C146.286 328.84 147.353 329.173 148.219 329.84C149.086 330.493 149.639 331.4 149.879 332.56H147.179C147.046 332.08 146.779 331.707 146.379 331.44C145.993 331.16 145.533 331.02 144.999 331.02C144.293 331.02 143.693 331.287 143.199 331.82C142.706 332.353 142.459 333.093 142.459 334.04C142.459 334.987 142.706 335.727 143.199 336.26C143.693 336.793 144.293 337.06 144.999 337.06C145.533 337.06 145.993 336.927 146.379 336.66C146.779 336.393 147.046 336.013 147.179 335.52H149.879C149.639 336.64 149.086 337.54 148.219 338.22C147.353 338.9 146.286 339.24 145.019 339.24ZM152.152 339V324.6H154.712V330.6C155.045 330.053 155.492 329.627 156.052 329.32C156.625 329 157.278 328.84 158.012 328.84C159.238 328.84 160.185 329.227 160.852 330C161.532 330.773 161.872 331.907 161.872 333.4V339H159.332V333.64C159.332 332.787 159.158 332.133 158.812 331.68C158.478 331.227 157.945 331 157.212 331C156.492 331 155.892 331.253 155.412 331.76C154.945 332.267 154.712 332.973 154.712 333.88V339H152.152ZM165.7 327.54C165.233 327.54 164.846 327.4 164.54 327.12C164.246 326.84 164.1 326.487 164.1 326.06C164.1 325.633 164.246 325.287 164.54 325.02C164.846 324.74 165.233 324.6 165.7 324.6C166.166 324.6 166.546 324.74 166.84 325.02C167.146 325.287 167.3 325.633 167.3 326.06C167.3 326.487 167.146 326.84 166.84 327.12C166.546 327.4 166.166 327.54 165.7 327.54ZM164.42 339V329.08H166.98V339H164.42ZM174.072 339C173.032 339 172.198 338.747 171.572 338.24C170.945 337.733 170.632 336.833 170.632 335.54V331.22H168.932V329.08H170.632L170.932 326.42H173.192V329.08H175.872V331.22H173.192V335.56C173.192 336.04 173.292 336.373 173.492 336.56C173.705 336.733 174.065 336.82 174.572 336.82H175.812V339H174.072ZM182.636 339.24C181.636 339.24 180.749 339.027 179.976 338.6C179.202 338.173 178.596 337.573 178.156 336.8C177.716 336.027 177.496 335.133 177.496 334.12C177.496 333.093 177.709 332.18 178.136 331.38C178.576 330.58 179.176 329.96 179.936 329.52C180.709 329.067 181.616 328.84 182.656 328.84C183.629 328.84 184.489 329.053 185.236 329.48C185.982 329.907 186.562 330.493 186.976 331.24C187.402 331.973 187.616 332.793 187.616 333.7C187.616 333.847 187.609 334 187.596 334.16C187.596 334.32 187.589 334.487 187.576 334.66H180.036C180.089 335.433 180.356 336.04 180.836 336.48C181.329 336.92 181.922 337.14 182.616 337.14C183.136 337.14 183.569 337.027 183.916 336.8C184.276 336.56 184.542 336.253 184.716 335.88H187.316C187.129 336.507 186.816 337.08 186.376 337.6C185.949 338.107 185.416 338.507 184.776 338.8C184.149 339.093 183.436 339.24 182.636 339.24ZM182.656 330.92C182.029 330.92 181.476 331.1 180.996 331.46C180.516 331.807 180.209 332.34 180.076 333.06H185.016C184.976 332.407 184.736 331.887 184.296 331.5C183.856 331.113 183.309 330.92 182.656 330.92ZM194.629 339.24C193.615 339.24 192.722 339.02 191.949 338.58C191.175 338.14 190.562 337.527 190.109 336.74C189.669 335.953 189.449 335.053 189.449 334.04C189.449 333.027 189.669 332.127 190.109 331.34C190.562 330.553 191.175 329.94 191.949 329.5C192.722 329.06 193.615 328.84 194.629 328.84C195.895 328.84 196.962 329.173 197.829 329.84C198.695 330.493 199.249 331.4 199.489 332.56H196.789C196.655 332.08 196.389 331.707 195.989 331.44C195.602 331.16 195.142 331.02 194.609 331.02C193.902 331.02 193.302 331.287 192.809 331.82C192.315 332.353 192.069 333.093 192.069 334.04C192.069 334.987 192.315 335.727 192.809 336.26C193.302 336.793 193.902 337.06 194.609 337.06C195.142 337.06 195.602 336.927 195.989 336.66C196.389 336.393 196.655 336.013 196.789 335.52H199.489C199.249 336.64 198.695 337.54 197.829 338.22C196.962 338.9 195.895 339.24 194.629 339.24ZM206.044 339C205.004 339 204.171 338.747 203.544 338.24C202.918 337.733 202.604 336.833 202.604 335.54V331.22H200.904V329.08H202.604L202.904 326.42H205.164V329.08H207.844V331.22H205.164V335.56C205.164 336.04 205.264 336.373 205.464 336.56C205.678 336.733 206.038 336.82 206.544 336.82H207.784V339H206.044ZM213.762 339.24C212.522 339.24 211.562 338.853 210.882 338.08C210.216 337.307 209.882 336.173 209.882 334.68V329.08H212.422V334.44C212.422 335.293 212.596 335.947 212.942 336.4C213.289 336.853 213.836 337.08 214.582 337.08C215.289 337.08 215.869 336.827 216.322 336.32C216.789 335.813 217.022 335.107 217.022 334.2V329.08H219.582V339H217.322L217.122 337.32C216.816 337.907 216.369 338.373 215.782 338.72C215.209 339.067 214.536 339.24 213.762 339.24ZM225.63 339.24C224.777 339.24 224.077 339.107 223.53 338.84C222.983 338.56 222.577 338.193 222.31 337.74C222.043 337.287 221.91 336.787 221.91 336.24C221.91 335.32 222.27 334.573 222.99 334C223.71 333.427 224.79 333.14 226.23 333.14H228.75V332.9C228.75 332.22 228.557 331.72 228.17 331.4C227.783 331.08 227.303 330.92 226.73 330.92C226.21 330.92 225.757 331.047 225.37 331.3C224.983 331.54 224.743 331.9 224.65 332.38H222.15C222.217 331.66 222.457 331.033 222.87 330.5C223.297 329.967 223.843 329.56 224.51 329.28C225.177 328.987 225.923 328.84 226.75 328.84C228.163 328.84 229.277 329.193 230.09 329.9C230.903 330.607 231.31 331.607 231.31 332.9V339H229.13L228.89 337.4C228.597 337.933 228.183 338.373 227.65 338.72C227.13 339.067 226.457 339.24 225.63 339.24ZM226.21 337.24C226.943 337.24 227.51 337 227.91 336.52C228.323 336.04 228.583 335.447 228.69 334.74H226.51C225.83 334.74 225.343 334.867 225.05 335.12C224.757 335.36 224.61 335.66 224.61 336.02C224.61 336.407 224.757 336.707 225.05 336.92C225.343 337.133 225.73 337.24 226.21 337.24ZM233.753 339V324.6H236.313V339H233.753ZM238.929 339V324.6H241.489V339H238.929ZM245.345 343.4L247.645 338.34H247.045L243.185 329.08H245.965L248.745 336.06L251.645 329.08H254.365L248.065 343.4H245.345ZM265.664 339.24C264.651 339.24 263.757 339.02 262.984 338.58C262.211 338.14 261.597 337.527 261.144 336.74C260.704 335.953 260.484 335.053 260.484 334.04C260.484 333.027 260.704 332.127 261.144 331.34C261.597 330.553 262.211 329.94 262.984 329.5C263.757 329.06 264.651 328.84 265.664 328.84C266.931 328.84 267.997 329.173 268.864 329.84C269.731 330.493 270.284 331.4 270.524 332.56H267.824C267.691 332.08 267.424 331.707 267.024 331.44C266.637 331.16 266.177 331.02 265.644 331.02C264.937 331.02 264.337 331.287 263.844 331.82C263.351 332.353 263.104 333.093 263.104 334.04C263.104 334.987 263.351 335.727 263.844 336.26C264.337 336.793 264.937 337.06 265.644 337.06C266.177 337.06 266.637 336.927 267.024 336.66C267.424 336.393 267.691 336.013 267.824 335.52H270.524C270.284 336.64 269.731 337.54 268.864 338.22C267.997 338.9 266.931 339.24 265.664 339.24ZM272.796 339V329.08H275.076L275.316 330.94C275.676 330.3 276.163 329.793 276.776 329.42C277.403 329.033 278.136 328.84 278.976 328.84V331.54H278.256C277.696 331.54 277.196 331.627 276.756 331.8C276.316 331.973 275.969 332.273 275.716 332.7C275.476 333.127 275.356 333.72 275.356 334.48V339H272.796ZM284.146 339.24C283.292 339.24 282.592 339.107 282.046 338.84C281.499 338.56 281.092 338.193 280.826 337.74C280.559 337.287 280.426 336.787 280.426 336.24C280.426 335.32 280.786 334.573 281.506 334C282.226 333.427 283.306 333.14 284.746 333.14H287.266V332.9C287.266 332.22 287.072 331.72 286.686 331.4C286.299 331.08 285.819 330.92 285.246 330.92C284.726 330.92 284.272 331.047 283.886 331.3C283.499 331.54 283.259 331.9 283.166 332.38H280.666C280.732 331.66 280.972 331.033 281.386 330.5C281.812 329.967 282.359 329.56 283.026 329.28C283.692 328.987 284.439 328.84 285.266 328.84C286.679 328.84 287.792 329.193 288.606 329.9C289.419 330.607 289.826 331.607 289.826 332.9V339H287.646L287.406 337.4C287.112 337.933 286.699 338.373 286.166 338.72C285.646 339.067 284.972 339.24 284.146 339.24ZM284.726 337.24C285.459 337.24 286.026 337 286.426 336.52C286.839 336.04 287.099 335.447 287.206 334.74H285.026C284.346 334.74 283.859 334.867 283.566 335.12C283.272 335.36 283.126 335.66 283.126 336.02C283.126 336.407 283.272 336.707 283.566 336.92C283.859 337.133 284.246 337.24 284.726 337.24ZM292.729 339V331.22H291.369V329.08H292.729V327.92C292.729 326.72 293.029 325.867 293.629 325.36C294.242 324.853 295.069 324.6 296.109 324.6H297.209V326.78H296.509C296.069 326.78 295.755 326.867 295.569 327.04C295.382 327.213 295.289 327.507 295.289 327.92V329.08H297.429V331.22H295.289V339H292.729ZM303.876 339C302.836 339 302.003 338.747 301.376 338.24C300.75 337.733 300.436 336.833 300.436 335.54V331.22H298.736V329.08H300.436L300.736 326.42H302.996V329.08H305.676V331.22H302.996V335.56C302.996 336.04 303.096 336.373 303.296 336.56C303.51 336.733 303.87 336.82 304.376 336.82H305.616V339H303.876ZM312.44 339.24C311.44 339.24 310.554 339.027 309.78 338.6C309.007 338.173 308.4 337.573 307.96 336.8C307.52 336.027 307.3 335.133 307.3 334.12C307.3 333.093 307.514 332.18 307.94 331.38C308.38 330.58 308.98 329.96 309.74 329.52C310.514 329.067 311.42 328.84 312.46 328.84C313.434 328.84 314.294 329.053 315.04 329.48C315.787 329.907 316.367 330.493 316.78 331.24C317.207 331.973 317.42 332.793 317.42 333.7C317.42 333.847 317.414 334 317.4 334.16C317.4 334.32 317.394 334.487 317.38 334.66H309.84C309.894 335.433 310.16 336.04 310.64 336.48C311.134 336.92 311.727 337.14 312.42 337.14C312.94 337.14 313.374 337.027 313.72 336.8C314.08 336.56 314.347 336.253 314.52 335.88H317.12C316.934 336.507 316.62 337.08 316.18 337.6C315.754 338.107 315.22 338.507 314.58 338.8C313.954 339.093 313.24 339.24 312.44 339.24ZM312.46 330.92C311.834 330.92 311.28 331.1 310.8 331.46C310.32 331.807 310.014 332.34 309.88 333.06H314.82C314.78 332.407 314.54 331.887 314.1 331.5C313.66 331.113 313.114 330.92 312.46 330.92ZM324.133 339.24C323.2 339.24 322.367 339.013 321.633 338.56C320.9 338.107 320.32 337.487 319.893 336.7C319.467 335.913 319.253 335.02 319.253 334.02C319.253 333.02 319.467 332.133 319.893 331.36C320.32 330.573 320.9 329.96 321.633 329.52C322.367 329.067 323.2 328.84 324.133 328.84C324.88 328.84 325.533 328.98 326.093 329.26C326.653 329.54 327.107 329.933 327.453 330.44V324.6H330.013V339H327.733L327.453 337.58C327.133 338.02 326.707 338.407 326.173 338.74C325.653 339.073 324.973 339.24 324.133 339.24ZM324.673 337C325.5 337 326.173 336.727 326.693 336.18C327.227 335.62 327.493 334.907 327.493 334.04C327.493 333.173 327.227 332.467 326.693 331.92C326.173 331.36 325.5 331.08 324.673 331.08C323.86 331.08 323.187 331.353 322.653 331.9C322.12 332.447 321.853 333.153 321.853 334.02C321.853 334.887 322.12 335.6 322.653 336.16C323.187 336.72 323.86 337 324.673 337ZM341.806 339C340.766 339 339.933 338.747 339.306 338.24C338.679 337.733 338.366 336.833 338.366 335.54V331.22H336.666V329.08H338.366L338.666 326.42H340.926V329.08H343.606V331.22H340.926V335.56C340.926 336.04 341.026 336.373 341.226 336.56C341.439 336.733 341.799 336.82 342.306 336.82H343.546V339H341.806ZM350.31 339.24C349.35 339.24 348.483 339.02 347.71 338.58C346.95 338.14 346.343 337.533 345.89 336.76C345.45 335.973 345.23 335.067 345.23 334.04C345.23 333.013 345.457 332.113 345.91 331.34C346.363 330.553 346.97 329.94 347.73 329.5C348.503 329.06 349.37 328.84 350.33 328.84C351.277 328.84 352.13 329.06 352.89 329.5C353.663 329.94 354.27 330.553 354.71 331.34C355.163 332.113 355.39 333.013 355.39 334.04C355.39 335.067 355.163 335.973 354.71 336.76C354.27 337.533 353.663 338.14 352.89 338.58C352.117 339.02 351.257 339.24 350.31 339.24ZM350.31 337.02C350.977 337.02 351.557 336.773 352.05 336.28C352.543 335.773 352.79 335.027 352.79 334.04C352.79 333.053 352.543 332.313 352.05 331.82C351.557 331.313 350.983 331.06 350.33 331.06C349.65 331.06 349.063 331.313 348.57 331.82C348.09 332.313 347.85 333.053 347.85 334.04C347.85 335.027 348.09 335.773 348.57 336.28C349.063 336.773 349.643 337.02 350.31 337.02ZM359.267 339L356.367 329.08H358.907L360.627 336.22L362.627 329.08H365.467L367.467 336.22L369.207 329.08H371.747L368.827 339H366.167L364.047 331.58L361.927 339H359.267ZM373.363 339V329.08H375.623L375.823 330.76C376.129 330.173 376.569 329.707 377.143 329.36C377.729 329.013 378.416 328.84 379.203 328.84C380.429 328.84 381.383 329.227 382.062 330C382.742 330.773 383.082 331.907 383.082 333.4V339H380.523V333.64C380.523 332.787 380.349 332.133 380.003 331.68C379.656 331.227 379.116 331 378.383 331C377.663 331 377.069 331.253 376.603 331.76C376.149 332.267 375.923 332.973 375.923 333.88V339H373.363ZM385.53 339V324.6H388.09V330.6C388.424 330.053 388.87 329.627 389.43 329.32C390.004 329 390.657 328.84 391.39 328.84C392.617 328.84 393.564 329.227 394.23 330C394.91 330.773 395.25 331.907 395.25 333.4V339H392.71V333.64C392.71 332.787 392.537 332.133 392.19 331.68C391.857 331.227 391.324 331 390.59 331C389.87 331 389.27 331.253 388.79 331.76C388.324 332.267 388.09 332.973 388.09 333.88V339H385.53ZM402.458 339.24C401.498 339.24 400.632 339.02 399.858 338.58C399.098 338.14 398.492 337.533 398.038 336.76C397.598 335.973 397.378 335.067 397.378 334.04C397.378 333.013 397.605 332.113 398.058 331.34C398.512 330.553 399.118 329.94 399.878 329.5C400.652 329.06 401.518 328.84 402.478 328.84C403.425 328.84 404.278 329.06 405.038 329.5C405.812 329.94 406.418 330.553 406.858 331.34C407.312 332.113 407.538 333.013 407.538 334.04C407.538 335.067 407.312 335.973 406.858 336.76C406.418 337.533 405.812 338.14 405.038 338.58C404.265 339.02 403.405 339.24 402.458 339.24ZM402.458 337.02C403.125 337.02 403.705 336.773 404.198 336.28C404.692 335.773 404.938 335.027 404.938 334.04C404.938 333.053 404.692 332.313 404.198 331.82C403.705 331.313 403.132 331.06 402.478 331.06C401.798 331.06 401.212 331.313 400.718 331.82C400.238 332.313 399.998 333.053 399.998 334.04C399.998 335.027 400.238 335.773 400.718 336.28C401.212 336.773 401.792 337.02 402.458 337.02ZM413.547 339.24C412.307 339.24 411.347 338.853 410.667 338.08C410.001 337.307 409.667 336.173 409.667 334.68V329.08H412.207V334.44C412.207 335.293 412.381 335.947 412.727 336.4C413.074 336.853 413.621 337.08 414.367 337.08C415.074 337.08 415.654 336.827 416.107 336.32C416.574 335.813 416.807 335.107 416.807 334.2V329.08H419.367V339H417.107L416.907 337.32C416.601 337.907 416.154 338.373 415.567 338.72C414.994 339.067 414.321 339.24 413.547 339.24ZM426.095 339.24C425.215 339.24 424.442 339.1 423.775 338.82C423.109 338.527 422.575 338.127 422.175 337.62C421.775 337.113 421.535 336.527 421.455 335.86H424.035C424.115 336.247 424.329 336.58 424.675 336.86C425.035 337.127 425.495 337.26 426.055 337.26C426.615 337.26 427.022 337.147 427.275 336.92C427.542 336.693 427.675 336.433 427.675 336.14C427.675 335.713 427.489 335.427 427.115 335.28C426.742 335.12 426.222 334.967 425.555 334.82C425.129 334.727 424.695 334.613 424.255 334.48C423.815 334.347 423.409 334.18 423.035 333.98C422.675 333.767 422.382 333.5 422.155 333.18C421.929 332.847 421.815 332.44 421.815 331.96C421.815 331.08 422.162 330.34 422.855 329.74C423.562 329.14 424.549 328.84 425.815 328.84C426.989 328.84 427.922 329.113 428.615 329.66C429.322 330.207 429.742 330.96 429.875 331.92H427.455C427.309 331.187 426.755 330.82 425.795 330.82C425.315 330.82 424.942 330.913 424.675 331.1C424.422 331.287 424.295 331.52 424.295 331.8C424.295 332.093 424.489 332.327 424.875 332.5C425.262 332.673 425.775 332.833 426.415 332.98C427.109 333.14 427.742 333.32 428.315 333.52C428.902 333.707 429.369 333.993 429.715 334.38C430.062 334.753 430.235 335.293 430.235 336C430.249 336.613 430.089 337.167 429.755 337.66C429.422 338.153 428.942 338.54 428.315 338.82C427.689 339.1 426.949 339.24 426.095 339.24ZM433.603 339.14C433.136 339.14 432.75 338.993 432.443 338.7C432.15 338.407 432.003 338.053 432.003 337.64C432.003 337.213 432.15 336.853 432.443 336.56C432.75 336.267 433.136 336.12 433.603 336.12C434.07 336.12 434.45 336.267 434.743 336.56C435.05 336.853 435.203 337.213 435.203 337.64C435.203 338.053 435.05 338.407 434.743 338.7C434.45 338.993 434.07 339.14 433.603 339.14ZM438.408 339.14C437.941 339.14 437.554 338.993 437.248 338.7C436.954 338.407 436.808 338.053 436.808 337.64C436.808 337.213 436.954 336.853 437.248 336.56C437.554 336.267 437.941 336.12 438.408 336.12C438.874 336.12 439.254 336.267 439.548 336.56C439.854 336.853 440.008 337.213 440.008 337.64C440.008 338.053 439.854 338.407 439.548 338.7C439.254 338.993 438.874 339.14 438.408 339.14ZM443.213 339.14C442.746 339.14 442.359 338.993 442.053 338.7C441.759 338.407 441.613 338.053 441.613 337.64C441.613 337.213 441.759 336.853 442.053 336.56C442.359 336.267 442.746 336.12 443.213 336.12C443.679 336.12 444.059 336.267 444.353 336.56C444.659 336.853 444.813 337.213 444.813 337.64C444.813 338.053 444.659 338.407 444.353 338.7C444.059 338.993 443.679 339.14 443.213 339.14Z" fill="black"/>
<path d="M67.36 293V279H69.92V284.82H76.2V279H78.76V293H76.2V286.9H69.92V293H67.36ZM86.2411 293.24C85.2411 293.24 84.3544 293.027 83.5811 292.6C82.8078 292.173 82.2011 291.573 81.7611 290.8C81.3211 290.027 81.1011 289.133 81.1011 288.12C81.1011 287.093 81.3144 286.18 81.7411 285.38C82.1811 284.58 82.7811 283.96 83.5411 283.52C84.3144 283.067 85.2211 282.84 86.2611 282.84C87.2344 282.84 88.0944 283.053 88.8411 283.48C89.5878 283.907 90.1678 284.493 90.5811 285.24C91.0078 285.973 91.2211 286.793 91.2211 287.7C91.2211 287.847 91.2144 288 91.2011 288.16C91.2011 288.32 91.1944 288.487 91.1811 288.66H83.6411C83.6944 289.433 83.9611 290.04 84.4411 290.48C84.9344 290.92 85.5278 291.14 86.2211 291.14C86.7411 291.14 87.1744 291.027 87.5211 290.8C87.8811 290.56 88.1478 290.253 88.3211 289.88H90.9211C90.7344 290.507 90.4211 291.08 89.9811 291.6C89.5544 292.107 89.0211 292.507 88.3811 292.8C87.7544 293.093 87.0411 293.24 86.2411 293.24ZM86.2611 284.92C85.6344 284.92 85.0811 285.1 84.6011 285.46C84.1211 285.807 83.8144 286.34 83.6811 287.06H88.6211C88.5811 286.407 88.3411 285.887 87.9011 285.5C87.4611 285.113 86.9144 284.92 86.2611 284.92ZM96.7942 293.24C95.9409 293.24 95.2409 293.107 94.6942 292.84C94.1476 292.56 93.7409 292.193 93.4742 291.74C93.2076 291.287 93.0742 290.787 93.0742 290.24C93.0742 289.32 93.4342 288.573 94.1542 288C94.8742 287.427 95.9542 287.14 97.3942 287.14H99.9142V286.9C99.9142 286.22 99.7209 285.72 99.3342 285.4C98.9476 285.08 98.4676 284.92 97.8942 284.92C97.3742 284.92 96.9209 285.047 96.5342 285.3C96.1476 285.54 95.9076 285.9 95.8142 286.38H93.3142C93.3809 285.66 93.6209 285.033 94.0342 284.5C94.4609 283.967 95.0076 283.56 95.6742 283.28C96.3409 282.987 97.0876 282.84 97.9142 282.84C99.3276 282.84 100.441 283.193 101.254 283.9C102.068 284.607 102.474 285.607 102.474 286.9V293H100.294L100.054 291.4C99.7609 291.933 99.3476 292.373 98.8142 292.72C98.2942 293.067 97.6209 293.24 96.7942 293.24ZM97.3742 291.24C98.1076 291.24 98.6742 291 99.0742 290.52C99.4876 290.04 99.7476 289.447 99.8542 288.74H97.6742C96.9942 288.74 96.5076 288.867 96.2142 289.12C95.9209 289.36 95.7742 289.66 95.7742 290.02C95.7742 290.407 95.9209 290.707 96.2142 290.92C96.5076 291.133 96.8942 291.24 97.3742 291.24ZM109.477 293.24C108.544 293.24 107.711 293.013 106.977 292.56C106.244 292.107 105.664 291.487 105.237 290.7C104.811 289.913 104.597 289.02 104.597 288.02C104.597 287.02 104.811 286.133 105.237 285.36C105.664 284.573 106.244 283.96 106.977 283.52C107.711 283.067 108.544 282.84 109.477 282.84C110.224 282.84 110.877 282.98 111.437 283.26C111.997 283.54 112.451 283.933 112.797 284.44V278.6H115.357V293H113.077L112.797 291.58C112.477 292.02 112.051 292.407 111.517 292.74C110.997 293.073 110.317 293.24 109.477 293.24ZM110.017 291C110.844 291 111.517 290.727 112.037 290.18C112.571 289.62 112.837 288.907 112.837 288.04C112.837 287.173 112.571 286.467 112.037 285.92C111.517 285.36 110.844 285.08 110.017 285.08C109.204 285.08 108.531 285.353 107.997 285.9C107.464 286.447 107.197 287.153 107.197 288.02C107.197 288.887 107.464 289.6 107.997 290.16C108.531 290.72 109.204 291 110.017 291ZM117.964 293V278.6H120.524V293H117.964ZM124.52 281.54C124.053 281.54 123.667 281.4 123.36 281.12C123.067 280.84 122.92 280.487 122.92 280.06C122.92 279.633 123.067 279.287 123.36 279.02C123.667 278.74 124.053 278.6 124.52 278.6C124.987 278.6 125.367 278.74 125.66 279.02C125.967 279.287 126.12 279.633 126.12 280.06C126.12 280.487 125.967 280.84 125.66 281.12C125.367 281.4 124.987 281.54 124.52 281.54ZM123.24 293V283.08H125.8V293H123.24ZM128.472 293V283.08H130.732L130.932 284.76C131.239 284.173 131.679 283.707 132.252 283.36C132.839 283.013 133.525 282.84 134.312 282.84C135.539 282.84 136.492 283.227 137.172 284C137.852 284.773 138.192 285.907 138.192 287.4V293H135.632V287.64C135.632 286.787 135.459 286.133 135.112 285.68C134.765 285.227 134.225 285 133.492 285C132.772 285 132.179 285.253 131.712 285.76C131.259 286.267 131.032 286.973 131.032 287.88V293H128.472ZM145.46 293.24C144.46 293.24 143.573 293.027 142.8 292.6C142.027 292.173 141.42 291.573 140.98 290.8C140.54 290.027 140.32 289.133 140.32 288.12C140.32 287.093 140.533 286.18 140.96 285.38C141.4 284.58 142 283.96 142.76 283.52C143.533 283.067 144.44 282.84 145.48 282.84C146.453 282.84 147.313 283.053 148.06 283.48C148.807 283.907 149.387 284.493 149.8 285.24C150.227 285.973 150.44 286.793 150.44 287.7C150.44 287.847 150.433 288 150.42 288.16C150.42 288.32 150.413 288.487 150.4 288.66H142.86C142.913 289.433 143.18 290.04 143.66 290.48C144.153 290.92 144.747 291.14 145.44 291.14C145.96 291.14 146.393 291.027 146.74 290.8C147.1 290.56 147.367 290.253 147.54 289.88H150.14C149.953 290.507 149.64 291.08 149.2 291.6C148.773 292.107 148.24 292.507 147.6 292.8C146.973 293.093 146.26 293.24 145.46 293.24ZM145.48 284.92C144.853 284.92 144.3 285.1 143.82 285.46C143.34 285.807 143.033 286.34 142.9 287.06H147.84C147.8 286.407 147.56 285.887 147.12 285.5C146.68 285.113 146.133 284.92 145.48 284.92Z" fill="black"/>
<path d="M236.14 558.24C235.113 558.24 234.207 558.067 233.42 557.72C232.633 557.36 232.013 556.853 231.56 556.2C231.107 555.533 230.873 554.727 230.86 553.78H233.56C233.587 554.433 233.82 554.987 234.26 555.44C234.713 555.88 235.333 556.1 236.12 556.1C236.8 556.1 237.34 555.94 237.74 555.62C238.14 555.287 238.34 554.847 238.34 554.3C238.34 553.727 238.16 553.28 237.8 552.96C237.453 552.64 236.987 552.38 236.4 552.18C235.813 551.98 235.187 551.767 234.52 551.54C233.44 551.167 232.613 550.687 232.04 550.1C231.48 549.513 231.2 548.733 231.2 547.76C231.187 546.933 231.38 546.227 231.78 545.64C232.193 545.04 232.753 544.58 233.46 544.26C234.167 543.927 234.98 543.76 235.9 543.76C236.833 543.76 237.653 543.927 238.36 544.26C239.08 544.593 239.64 545.06 240.04 545.66C240.453 546.26 240.673 546.973 240.7 547.8H237.96C237.947 547.307 237.753 546.873 237.38 546.5C237.02 546.113 236.513 545.92 235.86 545.92C235.3 545.907 234.827 546.047 234.44 546.34C234.067 546.62 233.88 547.033 233.88 547.58C233.88 548.047 234.027 548.42 234.32 548.7C234.613 548.967 235.013 549.193 235.52 549.38C236.027 549.567 236.607 549.767 237.26 549.98C237.953 550.22 238.587 550.5 239.16 550.82C239.733 551.14 240.193 551.567 240.54 552.1C240.887 552.62 241.06 553.293 241.06 554.12C241.06 554.853 240.873 555.533 240.5 556.16C240.127 556.787 239.573 557.293 238.84 557.68C238.107 558.053 237.207 558.24 236.14 558.24ZM246.954 558.24C245.714 558.24 244.754 557.853 244.074 557.08C243.407 556.307 243.074 555.173 243.074 553.68V548.08H245.614V553.44C245.614 554.293 245.787 554.947 246.134 555.4C246.48 555.853 247.027 556.08 247.774 556.08C248.48 556.08 249.06 555.827 249.514 555.32C249.98 554.813 250.214 554.107 250.214 553.2V548.08H252.774V558H250.514L250.314 556.32C250.007 556.907 249.56 557.373 248.974 557.72C248.4 558.067 247.727 558.24 246.954 558.24ZM261.282 558.24C260.535 558.24 259.882 558.1 259.322 557.82C258.762 557.54 258.308 557.147 257.962 556.64L257.682 558H255.402V543.6H257.962V549.5C258.282 549.06 258.702 548.673 259.222 548.34C259.755 548.007 260.442 547.84 261.282 547.84C262.215 547.84 263.048 548.067 263.782 548.52C264.515 548.973 265.095 549.593 265.522 550.38C265.948 551.167 266.162 552.06 266.162 553.06C266.162 554.06 265.948 554.953 265.522 555.74C265.095 556.513 264.515 557.127 263.782 557.58C263.048 558.02 262.215 558.24 261.282 558.24ZM260.742 556C261.555 556 262.228 555.727 262.762 555.18C263.295 554.633 263.562 553.927 263.562 553.06C263.562 552.193 263.295 551.48 262.762 550.92C262.228 550.36 261.555 550.08 260.742 550.08C259.915 550.08 259.235 550.36 258.702 550.92C258.182 551.467 257.922 552.173 257.922 553.04C257.922 553.907 258.182 554.62 258.702 555.18C259.235 555.727 259.915 556 260.742 556ZM268.448 558V548.08H270.708L270.928 549.42C271.248 548.94 271.668 548.56 272.188 548.28C272.722 547.987 273.335 547.84 274.028 547.84C275.562 547.84 276.648 548.433 277.288 549.62C277.648 549.073 278.128 548.64 278.728 548.32C279.342 548 280.008 547.84 280.728 547.84C282.022 547.84 283.015 548.227 283.708 549C284.402 549.773 284.748 550.907 284.748 552.4V558H282.188V552.64C282.188 551.787 282.022 551.133 281.688 550.68C281.368 550.227 280.868 550 280.188 550C279.495 550 278.935 550.253 278.508 550.76C278.095 551.267 277.888 551.973 277.888 552.88V558H275.328V552.64C275.328 551.787 275.162 551.133 274.828 550.68C274.495 550.227 273.982 550 273.288 550C272.608 550 272.055 550.253 271.628 550.76C271.215 551.267 271.008 551.973 271.008 552.88V558H268.448ZM288.559 546.54C288.092 546.54 287.706 546.4 287.399 546.12C287.106 545.84 286.959 545.487 286.959 545.06C286.959 544.633 287.106 544.287 287.399 544.02C287.706 543.74 288.092 543.6 288.559 543.6C289.026 543.6 289.406 543.74 289.699 544.02C290.006 544.287 290.159 544.633 290.159 545.06C290.159 545.487 290.006 545.84 289.699 546.12C289.406 546.4 289.026 546.54 288.559 546.54ZM287.279 558V548.08H289.839V558H287.279ZM296.931 558C295.891 558 295.058 557.747 294.431 557.24C293.804 556.733 293.491 555.833 293.491 554.54V550.22H291.791V548.08H293.491L293.791 545.42H296.051V548.08H298.731V550.22H296.051V554.56C296.051 555.04 296.151 555.373 296.351 555.56C296.564 555.733 296.924 555.82 297.431 555.82H298.671V558H296.931Z" fill="white"/>
</g>
<defs>
<filter id="filter0_d_2447_341" x="0" y="0" width="532" height="663" filterUnits="userSpaceOnUse" color-interpolation-filters="sRGB">
<feFlood flood-opacity="0" result="BackgroundImageFix"/>
<feColorMatrix in="SourceAlpha" type="matrix" values="0 0 0 0 0 0 0 0 0 0 0 0 0 0 0 0 0 0 127 0" result="hardAlpha"/>
<feOffset dy="16"/>
<feGaussianBlur stdDeviation="8"/>
<feComposite in2="hardAlpha" operator="out"/>
<feColorMatrix type="matrix" values="0 0 0 0 0 0 0 0 0 0 0 0 0 0 0 0 0 0 0.25 0"/>
<feBlend mode="normal" in2="BackgroundImageFix" result="effect1_dropShadow_2447_341"/>
<feBlend mode="normal" in="SourceGraphic" in2="effect1_dropShadow_2447_341" result="shape"/>
</filter>
</defs>
</svg>
