<svg width="187" height="113" viewBox="0 0 187 113" fill="none" xmlns="http://www.w3.org/2000/svg">
<rect width="187" height="113" rx="8" fill="#002C66"/>
<rect x="16" y="81" width="90" height="16" rx="4" fill="#75B0FF"/>
<rect x="114" y="81" width="57" height="16" rx="4" fill="#75B0FF"/>
<rect x="16" y="57" width="155" height="16" rx="4" fill="#75B0FF"/>
<path d="M16.6953 27V19H18.3867V22.3008H21.8203V19H23.5078V27H21.8203V23.6953H18.3867V27H16.6953ZM24.8711 27V21H26.5352V27H24.8711ZM25.707 20.2266C25.4596 20.2266 25.2474 20.1445 25.0703 19.9805C24.8958 19.8138 24.8086 19.6146 24.8086 19.3828C24.8086 19.1536 24.8958 18.957 25.0703 18.793C25.2474 18.6263 25.4596 18.543 25.707 18.543C25.9544 18.543 26.1654 18.6263 26.3398 18.793C26.5169 18.957 26.6055 19.1536 26.6055 19.3828C26.6055 19.6146 26.5169 19.8138 26.3398 19.9805C26.1654 20.1445 25.9544 20.2266 25.707 20.2266ZM29.6768 25.9062L29.6338 26.3359C29.5999 26.6797 29.5348 27.0221 29.4385 27.3633C29.3447 27.707 29.2458 28.0182 29.1416 28.2969C29.04 28.5755 28.958 28.7943 28.8955 28.9531H27.8174C27.8564 28.7995 27.9098 28.5846 27.9775 28.3086C28.0452 28.0352 28.109 27.7279 28.1689 27.3867C28.2288 27.0456 28.2666 26.6979 28.2822 26.3437L28.3018 25.9062H29.6768ZM35.0908 19V27H33.3994V19H35.0908ZM37.8457 19V19.8437C37.8457 20.0833 37.7988 20.3281 37.7051 20.5781C37.6139 20.8255 37.4915 21.0599 37.3379 21.2812C37.1842 21.5 37.0163 21.6862 36.834 21.8398L36.0996 21.4062C36.2298 21.2005 36.3444 20.9727 36.4434 20.7227C36.5449 20.4727 36.5957 20.1823 36.5957 19.8516V19H37.8457ZM38.7178 27V21H40.3037V22.0586H40.374C40.499 21.707 40.7074 21.4297 40.999 21.2266C41.2907 21.0234 41.6396 20.9219 42.0459 20.9219C42.4574 20.9219 42.8076 21.0247 43.0967 21.2305C43.3857 21.4336 43.5785 21.7096 43.6748 22.0586H43.7373C43.8597 21.7148 44.0811 21.4401 44.4014 21.2344C44.7243 21.026 45.1058 20.9219 45.5459 20.9219C46.1058 20.9219 46.5602 21.1003 46.9092 21.457C47.2607 21.8112 47.4365 22.3138 47.4365 22.9648V27H45.7764V23.293C45.7764 22.9596 45.6878 22.7096 45.5107 22.543C45.3337 22.3763 45.1123 22.293 44.8467 22.293C44.5446 22.293 44.3089 22.3893 44.1396 22.582C43.9704 22.7721 43.8857 23.0234 43.8857 23.3359V27H42.2725V23.2578C42.2725 22.9635 42.1878 22.7292 42.0186 22.5547C41.8519 22.3802 41.6318 22.293 41.3584 22.293C41.1735 22.293 41.0068 22.3398 40.8584 22.4336C40.7126 22.5247 40.5967 22.6536 40.5107 22.8203C40.4248 22.9844 40.3818 23.1771 40.3818 23.3984V27H38.7178ZM51.3281 27V19H53.0195V25.6055H56.4492V27H51.3281ZM61.3857 24.4453V21H63.0498V27H61.4521V25.9102H61.3896C61.2542 26.2617 61.029 26.5443 60.7139 26.7578C60.4014 26.9714 60.0199 27.0781 59.5693 27.0781C59.1683 27.0781 58.8154 26.987 58.5107 26.8047C58.2061 26.6224 57.9678 26.3633 57.7959 26.0273C57.6266 25.6914 57.5407 25.2891 57.5381 24.8203V21H59.2021V24.5234C59.2048 24.8776 59.2998 25.1576 59.4873 25.3633C59.6748 25.569 59.9261 25.6719 60.2412 25.6719C60.4417 25.6719 60.6292 25.6263 60.8037 25.5352C60.9782 25.4414 61.1188 25.3034 61.2256 25.1211C61.335 24.9388 61.3883 24.7135 61.3857 24.4453ZM65.8887 25.2734L65.8926 23.2773H66.1348L68.0566 21H69.9668L67.3848 24.0156H66.9902L65.8887 25.2734ZM64.3809 27V19H66.0449V27H64.3809ZM68.1309 27L66.3652 24.3867L67.4746 23.2109L70.0801 27H68.1309ZM73.2705 27.1172C72.6533 27.1172 72.1221 26.9922 71.6768 26.7422C71.234 26.4896 70.8929 26.1328 70.6533 25.6719C70.4137 25.2083 70.2939 24.6602 70.2939 24.0273C70.2939 23.4102 70.4137 22.8685 70.6533 22.4023C70.8929 21.9362 71.2301 21.5729 71.665 21.3125C72.1025 21.0521 72.6156 20.9219 73.2041 20.9219C73.5999 20.9219 73.9684 20.9857 74.3096 21.1133C74.6533 21.2383 74.9528 21.4271 75.208 21.6797C75.4658 21.9323 75.6663 22.25 75.8096 22.6328C75.9528 23.013 76.0244 23.4583 76.0244 23.9687V24.4258H70.958V23.3945H74.458C74.458 23.1549 74.4059 22.9427 74.3018 22.7578C74.1976 22.5729 74.0531 22.4284 73.8682 22.3242C73.6859 22.2174 73.4736 22.1641 73.2314 22.1641C72.9788 22.1641 72.7549 22.2227 72.5596 22.3398C72.3669 22.4544 72.2158 22.6094 72.1064 22.8047C71.9971 22.9974 71.9411 23.2122 71.9385 23.4492V24.4297C71.9385 24.7266 71.9932 24.9831 72.1025 25.1992C72.2145 25.4154 72.3721 25.582 72.5752 25.6992C72.7783 25.8164 73.0192 25.875 73.2979 25.875C73.4827 25.875 73.652 25.849 73.8057 25.7969C73.9593 25.7448 74.0908 25.6667 74.2002 25.5625C74.3096 25.4583 74.3929 25.3307 74.4502 25.1797L75.9893 25.2812C75.9111 25.651 75.751 25.974 75.5088 26.25C75.2692 26.5234 74.9593 26.737 74.5791 26.8906C74.2015 27.0417 73.7653 27.1172 73.2705 27.1172ZM81.3672 27.1133C80.9844 27.1133 80.6432 27.0469 80.3438 26.9141C80.0443 26.7786 79.8073 26.5794 79.6328 26.3164C79.4609 26.0508 79.375 25.7201 79.375 25.3242C79.375 24.9909 79.4362 24.7109 79.5586 24.4844C79.681 24.2578 79.8477 24.0755 80.0586 23.9375C80.2695 23.7995 80.5091 23.6953 80.7773 23.625C81.0482 23.5547 81.332 23.5052 81.6289 23.4766C81.9779 23.4401 82.2591 23.4062 82.4727 23.375C82.6862 23.3411 82.8411 23.2917 82.9375 23.2266C83.0339 23.1615 83.082 23.0651 83.082 22.9375V22.9141C83.082 22.6667 83.0039 22.4753 82.8477 22.3398C82.694 22.2044 82.4753 22.1367 82.1914 22.1367C81.8919 22.1367 81.6536 22.2031 81.4766 22.3359C81.2995 22.4661 81.1823 22.6302 81.125 22.8281L79.5859 22.7031C79.6641 22.3385 79.8177 22.0234 80.0469 21.7578C80.276 21.4896 80.5716 21.2839 80.9336 21.1406C81.2982 20.9948 81.7201 20.9219 82.1992 20.9219C82.5326 20.9219 82.8516 20.9609 83.1563 21.0391C83.4635 21.1172 83.7357 21.2383 83.9727 21.4023C84.2122 21.5664 84.401 21.7773 84.5391 22.0352C84.6771 22.2904 84.7461 22.5964 84.7461 22.9531V27H83.168V26.168H83.1211C83.0247 26.3555 82.8958 26.5208 82.7344 26.6641C82.5729 26.8047 82.3789 26.9154 82.1523 26.9961C81.9258 27.0742 81.6641 27.1133 81.3672 27.1133ZM81.8438 25.9648C82.0885 25.9648 82.3047 25.9167 82.4922 25.8203C82.6797 25.7214 82.8268 25.5885 82.9336 25.4219C83.0404 25.2552 83.0938 25.0664 83.0938 24.8555V24.2188C83.0417 24.2526 82.9701 24.2839 82.8789 24.3125C82.7904 24.3385 82.6901 24.3633 82.5781 24.3867C82.4661 24.4076 82.3542 24.4271 82.2422 24.4453C82.1302 24.4609 82.0286 24.4753 81.9375 24.4883C81.7422 24.5169 81.5716 24.5625 81.4258 24.625C81.2799 24.6875 81.1667 24.7721 81.0859 24.8789C81.0052 24.9831 80.9648 25.1133 80.9648 25.2695C80.9648 25.4961 81.0469 25.6693 81.2109 25.7891C81.3776 25.9062 81.5885 25.9648 81.8438 25.9648ZM87.7012 23.5313V27H86.0371V21H87.623V22.0586H87.6934C87.8262 21.7096 88.0488 21.4336 88.3613 21.2305C88.6738 21.0247 89.0527 20.9219 89.498 20.9219C89.9147 20.9219 90.278 21.013 90.5879 21.1953C90.8978 21.3776 91.1387 21.638 91.3105 21.9766C91.4824 22.3125 91.5684 22.7135 91.5684 23.1797V27H89.9043V23.4766C89.9069 23.1094 89.8132 22.8229 89.623 22.6172C89.4329 22.4089 89.1712 22.3047 88.8379 22.3047C88.6139 22.3047 88.416 22.3529 88.2441 22.4492C88.0749 22.5456 87.9421 22.6862 87.8457 22.8711C87.752 23.0534 87.7038 23.2734 87.7012 23.5313ZM95.0908 27.0977C94.6351 27.0977 94.2223 26.9805 93.8525 26.7461C93.4854 26.5091 93.1937 26.1615 92.9775 25.7031C92.764 25.2422 92.6572 24.6771 92.6572 24.0078C92.6572 23.3203 92.7679 22.7487 92.9893 22.293C93.2106 21.8346 93.5049 21.4922 93.8721 21.2656C94.2419 21.0365 94.6468 20.9219 95.0869 20.9219C95.4229 20.9219 95.7028 20.9792 95.9268 21.0938C96.1533 21.2057 96.3356 21.3464 96.4736 21.5156C96.6143 21.6823 96.721 21.8464 96.7939 22.0078H96.8447V19H98.5049V27H96.8643V26.0391H96.7939C96.7158 26.2057 96.6051 26.3711 96.4619 26.5352C96.3213 26.6966 96.1377 26.8307 95.9111 26.9375C95.6872 27.0443 95.4137 27.0977 95.0908 27.0977ZM95.6182 25.7734C95.8864 25.7734 96.113 25.7005 96.2979 25.5547C96.4854 25.4062 96.6286 25.1992 96.7275 24.9336C96.8291 24.668 96.8799 24.3568 96.8799 24C96.8799 23.6432 96.8304 23.3333 96.7314 23.0703C96.6325 22.8073 96.4893 22.6042 96.3018 22.4609C96.1143 22.3177 95.8864 22.2461 95.6182 22.2461C95.3447 22.2461 95.1143 22.3203 94.9268 22.4687C94.7393 22.6172 94.5973 22.8229 94.501 23.0859C94.4046 23.349 94.3564 23.6536 94.3564 24C94.3564 24.349 94.4046 24.6576 94.501 24.9258C94.5999 25.1914 94.7419 25.3997 94.9268 25.5508C95.1143 25.6992 95.3447 25.7734 95.6182 25.7734ZM104.142 19V27H102.45V19H104.142ZM106.896 19V19.8437C106.896 20.0833 106.85 20.3281 106.756 20.5781C106.665 20.8255 106.542 21.0599 106.389 21.2812C106.235 21.5 106.067 21.6862 105.885 21.8398L105.15 21.4062C105.281 21.2005 105.395 20.9727 105.494 20.7227C105.596 20.4727 105.646 20.1823 105.646 19.8516V19H106.896ZM107.769 27V21H109.354V22.0586H109.425C109.55 21.707 109.758 21.4297 110.05 21.2266C110.341 21.0234 110.69 20.9219 111.097 20.9219C111.508 20.9219 111.858 21.0247 112.147 21.2305C112.437 21.4336 112.629 21.7096 112.726 22.0586H112.788C112.91 21.7148 113.132 21.4401 113.452 21.2344C113.775 21.026 114.157 20.9219 114.597 20.9219C115.157 20.9219 115.611 21.1003 115.96 21.457C116.312 21.8112 116.487 22.3138 116.487 22.9648V27H114.827V23.293C114.827 22.9596 114.739 22.7096 114.562 22.543C114.384 22.3763 114.163 22.293 113.897 22.293C113.595 22.293 113.36 22.3893 113.19 22.582C113.021 22.7721 112.937 23.0234 112.937 23.3359V27H111.323V23.2578C111.323 22.9635 111.239 22.7292 111.069 22.5547C110.903 22.3802 110.683 22.293 110.409 22.293C110.224 22.293 110.058 22.3398 109.909 22.4336C109.763 22.5247 109.647 22.6536 109.562 22.8203C109.476 22.9844 109.433 23.1771 109.433 23.3984V27H107.769ZM16.6641 40V34H18.3281V40H16.6641ZM17.5 33.2266C17.2526 33.2266 17.0404 33.1445 16.8633 32.9805C16.6888 32.8138 16.6016 32.6146 16.6016 32.3828C16.6016 32.1536 16.6888 31.957 16.8633 31.793C17.0404 31.6263 17.2526 31.543 17.5 31.543C17.7474 31.543 17.9583 31.6263 18.1328 31.793C18.3099 31.957 18.3984 32.1536 18.3984 32.3828C18.3984 32.6146 18.3099 32.8138 18.1328 32.9805C17.9583 33.1445 17.7474 33.2266 17.5 33.2266ZM21.3252 36.5313V40H19.6611V34H21.2471V35.0586H21.3174C21.4502 34.7096 21.6729 34.4336 21.9854 34.2305C22.2979 34.0247 22.6768 33.9219 23.1221 33.9219C23.5387 33.9219 23.902 34.013 24.2119 34.1953C24.5218 34.3776 24.7627 34.638 24.9346 34.9766C25.1064 35.3125 25.1924 35.7135 25.1924 36.1797V40H23.5283V36.4766C23.5309 36.1094 23.4372 35.8229 23.2471 35.6172C23.057 35.4089 22.7952 35.3047 22.4619 35.3047C22.238 35.3047 22.04 35.3529 21.8682 35.4492C21.6989 35.5456 21.5661 35.6862 21.4697 35.8711C21.376 36.0534 21.3278 36.2734 21.3252 36.5313ZM29.6953 34V35.25H26.082V34H29.6953ZM26.9023 32.5625H28.5664V38.1562C28.5664 38.3099 28.5898 38.4297 28.6367 38.5156C28.6836 38.599 28.7487 38.6576 28.832 38.6914C28.918 38.7253 29.0169 38.7422 29.1289 38.7422C29.207 38.7422 29.2852 38.7357 29.3633 38.7227C29.4414 38.707 29.5013 38.6953 29.543 38.6875L29.8047 39.9258C29.7214 39.9518 29.6042 39.9818 29.4531 40.0156C29.3021 40.0521 29.1185 40.0742 28.9023 40.082C28.5013 40.0977 28.1497 40.0443 27.8477 39.9219C27.5482 39.7995 27.3151 39.6094 27.1484 39.3516C26.9818 39.0937 26.8997 38.7682 26.9023 38.375V32.5625ZM33.4492 40.1172C32.832 40.1172 32.3008 39.9922 31.8555 39.7422C31.4128 39.4896 31.0716 39.1328 30.832 38.6719C30.5924 38.2083 30.4727 37.6602 30.4727 37.0273C30.4727 36.4102 30.5924 35.8685 30.832 35.4023C31.0716 34.9362 31.4089 34.5729 31.8438 34.3125C32.2813 34.0521 32.7943 33.9219 33.3828 33.9219C33.7786 33.9219 34.1471 33.9857 34.4883 34.1133C34.832 34.2383 35.1315 34.4271 35.3867 34.6797C35.6445 34.9323 35.8451 35.25 35.9883 35.6328C36.1315 36.013 36.2031 36.4583 36.2031 36.9687V37.4258H31.1367V36.3945H34.6367C34.6367 36.1549 34.5846 35.9427 34.4805 35.7578C34.3763 35.5729 34.2318 35.4284 34.0469 35.3242C33.8646 35.2174 33.6523 35.1641 33.4102 35.1641C33.1576 35.1641 32.9336 35.2227 32.7383 35.3398C32.5456 35.4544 32.3945 35.6094 32.2852 35.8047C32.1758 35.9974 32.1198 36.2122 32.1172 36.4492V37.4297C32.1172 37.7266 32.1719 37.9831 32.2813 38.1992C32.3932 38.4154 32.5508 38.582 32.7539 38.6992C32.957 38.8164 33.1979 38.875 33.4766 38.875C33.6615 38.875 33.8307 38.849 33.9844 38.7969C34.138 38.7448 34.2695 38.6667 34.3789 38.5625C34.4883 38.4583 34.5716 38.3307 34.6289 38.1797L36.168 38.2812C36.0898 38.651 35.9297 38.974 35.6875 39.25C35.4479 39.5234 35.138 39.737 34.7578 39.8906C34.3802 40.0417 33.944 40.1172 33.4492 40.1172ZM37.2891 40V34H38.9023V35.0469H38.9648C39.0742 34.6745 39.2578 34.3932 39.5156 34.2031C39.7734 34.0104 40.0703 33.9141 40.4062 33.9141C40.4896 33.9141 40.5794 33.9193 40.6758 33.9297C40.7721 33.9401 40.8568 33.9544 40.9297 33.9727V35.4492C40.8516 35.4258 40.7435 35.4049 40.6055 35.3867C40.4674 35.3685 40.3411 35.3594 40.2266 35.3594C39.9818 35.3594 39.763 35.4128 39.5703 35.5195C39.3802 35.6237 39.2292 35.7695 39.1172 35.957C39.0078 36.1445 38.9531 36.3607 38.9531 36.6055V40H37.2891ZM44.2451 40.1172C43.6279 40.1172 43.0967 39.9922 42.6514 39.7422C42.2087 39.4896 41.8675 39.1328 41.6279 38.6719C41.3883 38.2083 41.2686 37.6602 41.2686 37.0273C41.2686 36.4102 41.3883 35.8685 41.6279 35.4023C41.8675 34.9362 42.2048 34.5729 42.6396 34.3125C43.0771 34.0521 43.5902 33.9219 44.1787 33.9219C44.5745 33.9219 44.943 33.9857 45.2842 34.1133C45.6279 34.2383 45.9274 34.4271 46.1826 34.6797C46.4404 34.9323 46.641 35.25 46.7842 35.6328C46.9274 36.013 46.999 36.4583 46.999 36.9687V37.4258H41.9326V36.3945H45.4326C45.4326 36.1549 45.3805 35.9427 45.2764 35.7578C45.1722 35.5729 45.0277 35.4284 44.8428 35.3242C44.6605 35.2174 44.4482 35.1641 44.2061 35.1641C43.9535 35.1641 43.7295 35.2227 43.5342 35.3398C43.3415 35.4544 43.1904 35.6094 43.0811 35.8047C42.9717 35.9974 42.9157 36.2122 42.9131 36.4492V37.4297C42.9131 37.7266 42.9678 37.9831 43.0771 38.1992C43.1891 38.4154 43.3467 38.582 43.5498 38.6992C43.7529 38.8164 43.9938 38.875 44.2725 38.875C44.4574 38.875 44.6266 38.849 44.7803 38.7969C44.9339 38.7448 45.0654 38.6667 45.1748 38.5625C45.2842 38.4583 45.3675 38.3307 45.4248 38.1797L46.9639 38.2812C46.8857 38.651 46.7256 38.974 46.4834 39.25C46.2438 39.5234 45.9339 39.737 45.5537 39.8906C45.1761 40.0417 44.7399 40.1172 44.2451 40.1172ZM53.0771 35.7109L51.5537 35.8047C51.5277 35.6745 51.4717 35.5573 51.3857 35.4531C51.2998 35.3464 51.1865 35.2617 51.0459 35.1992C50.9079 35.1341 50.7425 35.1016 50.5498 35.1016C50.292 35.1016 50.0745 35.1562 49.8975 35.2656C49.7204 35.3724 49.6318 35.5156 49.6318 35.6953C49.6318 35.8385 49.6891 35.9596 49.8037 36.0586C49.9183 36.1576 50.1149 36.237 50.3936 36.2969L51.4795 36.5156C52.0628 36.6354 52.4977 36.8281 52.7842 37.0937C53.0706 37.3594 53.2139 37.7083 53.2139 38.1406C53.2139 38.5339 53.098 38.8789 52.8662 39.1758C52.637 39.4727 52.3219 39.7044 51.9209 39.8711C51.5225 40.0352 51.0628 40.1172 50.542 40.1172C49.7477 40.1172 49.1149 39.9518 48.6436 39.6211C48.1748 39.2878 47.9001 38.8346 47.8193 38.2617L49.4561 38.1758C49.5055 38.418 49.6253 38.6029 49.8154 38.7305C50.0055 38.8555 50.249 38.918 50.5459 38.918C50.8376 38.918 51.0719 38.862 51.249 38.75C51.4287 38.6354 51.5199 38.4883 51.5225 38.3086C51.5199 38.1576 51.4561 38.0339 51.3311 37.9375C51.2061 37.8385 51.0133 37.763 50.7529 37.7109L49.7139 37.5039C49.1279 37.3867 48.6917 37.1836 48.4053 36.8945C48.1214 36.6055 47.9795 36.237 47.9795 35.7891C47.9795 35.4036 48.0837 35.0716 48.292 34.793C48.5029 34.5143 48.7985 34.2995 49.1787 34.1484C49.5615 33.9974 50.0094 33.9219 50.5225 33.9219C51.2803 33.9219 51.8766 34.082 52.3115 34.4023C52.749 34.7227 53.0042 35.1589 53.0771 35.7109ZM57.4531 34V35.25H53.8398V34H57.4531ZM54.6602 32.5625H56.3242V38.1562C56.3242 38.3099 56.3477 38.4297 56.3945 38.5156C56.4414 38.599 56.5065 38.6576 56.5898 38.6914C56.6758 38.7253 56.7747 38.7422 56.8867 38.7422C56.9648 38.7422 57.043 38.7357 57.1211 38.7227C57.1992 38.707 57.2591 38.6953 57.3008 38.6875L57.5625 39.9258C57.4792 39.9518 57.362 39.9818 57.2109 40.0156C57.0599 40.0521 56.8763 40.0742 56.6602 40.082C56.2591 40.0977 55.9076 40.0443 55.6055 39.9219C55.306 39.7995 55.0729 39.6094 54.9063 39.3516C54.7396 39.0937 54.6576 38.7682 54.6602 38.375V32.5625ZM61.207 40.1172C60.5898 40.1172 60.0586 39.9922 59.6133 39.7422C59.1706 39.4896 58.8294 39.1328 58.5898 38.6719C58.3503 38.2083 58.2305 37.6602 58.2305 37.0273C58.2305 36.4102 58.3503 35.8685 58.5898 35.4023C58.8294 34.9362 59.1667 34.5729 59.6016 34.3125C60.0391 34.0521 60.5521 33.9219 61.1406 33.9219C61.5365 33.9219 61.9049 33.9857 62.2461 34.1133C62.5898 34.2383 62.8893 34.4271 63.1445 34.6797C63.4023 34.9323 63.6029 35.25 63.7461 35.6328C63.8893 36.013 63.9609 36.4583 63.9609 36.9687V37.4258H58.8945V36.3945H62.3945C62.3945 36.1549 62.3424 35.9427 62.2383 35.7578C62.1341 35.5729 61.9896 35.4284 61.8047 35.3242C61.6224 35.2174 61.4102 35.1641 61.168 35.1641C60.9154 35.1641 60.6914 35.2227 60.4961 35.3398C60.3034 35.4544 60.1523 35.6094 60.043 35.8047C59.9336 35.9974 59.8776 36.2122 59.875 36.4492V37.4297C59.875 37.7266 59.9297 37.9831 60.0391 38.1992C60.151 38.4154 60.3086 38.582 60.5117 38.6992C60.7148 38.8164 60.9557 38.875 61.2344 38.875C61.4193 38.875 61.5885 38.849 61.7422 38.7969C61.8958 38.7448 62.0273 38.6667 62.1367 38.5625C62.2461 38.4583 62.3294 38.3307 62.3867 38.1797L63.9258 38.2812C63.8477 38.651 63.6875 38.974 63.4453 39.25C63.2057 39.5234 62.8958 39.737 62.5156 39.8906C62.138 40.0417 61.7018 40.1172 61.207 40.1172ZM67.2578 40.0977C66.8021 40.0977 66.3893 39.9805 66.0195 39.7461C65.6523 39.5091 65.3607 39.1615 65.1445 38.7031C64.931 38.2422 64.8242 37.6771 64.8242 37.0078C64.8242 36.3203 64.9349 35.7487 65.1562 35.293C65.3776 34.8346 65.6719 34.4922 66.0391 34.2656C66.4089 34.0365 66.8138 33.9219 67.2539 33.9219C67.5898 33.9219 67.8698 33.9792 68.0938 34.0938C68.3203 34.2057 68.5026 34.3464 68.6406 34.5156C68.7813 34.6823 68.888 34.8464 68.9609 35.0078H69.0117V32H70.6719V40H69.0313V39.0391H68.9609C68.8828 39.2057 68.7721 39.3711 68.6289 39.5352C68.4883 39.6966 68.3047 39.8307 68.0781 39.9375C67.8542 40.0443 67.5807 40.0977 67.2578 40.0977ZM67.7852 38.7734C68.0534 38.7734 68.2799 38.7005 68.4648 38.5547C68.6523 38.4062 68.7956 38.1992 68.8945 37.9336C68.9961 37.668 69.0469 37.3568 69.0469 37C69.0469 36.6432 68.9974 36.3333 68.8984 36.0703C68.7995 35.8073 68.6563 35.6042 68.4688 35.4609C68.2813 35.3177 68.0534 35.2461 67.7852 35.2461C67.5117 35.2461 67.2813 35.3203 67.0938 35.4687C66.9063 35.6172 66.7643 35.8229 66.668 36.0859C66.5716 36.349 66.5234 36.6536 66.5234 37C66.5234 37.349 66.5716 37.6576 66.668 37.9258C66.7669 38.1914 66.9089 38.3997 67.0938 38.5508C67.2813 38.6992 67.5117 38.7734 67.7852 38.7734ZM74.5859 40V34H76.25V40H74.5859ZM75.4219 33.2266C75.1745 33.2266 74.9622 33.1445 74.7852 32.9805C74.6107 32.8138 74.5234 32.6146 74.5234 32.3828C74.5234 32.1536 74.6107 31.957 74.7852 31.793C74.9622 31.6263 75.1745 31.543 75.4219 31.543C75.6693 31.543 75.8802 31.6263 76.0547 31.793C76.2318 31.957 76.3203 32.1536 76.3203 32.3828C76.3203 32.6146 76.2318 32.8138 76.0547 32.9805C75.8802 33.1445 75.6693 33.2266 75.4219 33.2266ZM79.2471 36.5313V40H77.583V34H79.1689V35.0586H79.2393C79.3721 34.7096 79.5947 34.4336 79.9072 34.2305C80.2197 34.0247 80.5986 33.9219 81.0439 33.9219C81.4606 33.9219 81.8239 34.013 82.1338 34.1953C82.4437 34.3776 82.6846 34.638 82.8564 34.9766C83.0283 35.3125 83.1143 35.7135 83.1143 36.1797V40H81.4502V36.4766C81.4528 36.1094 81.359 35.8229 81.1689 35.6172C80.9788 35.4089 80.7171 35.3047 80.3838 35.3047C80.1598 35.3047 79.9619 35.3529 79.79 35.4492C79.6208 35.5456 79.488 35.6862 79.3916 35.8711C79.2979 36.0534 79.2497 36.2734 79.2471 36.5313ZM86.9717 40V34H88.6357V40H86.9717ZM87.8076 33.2266C87.5602 33.2266 87.348 33.1445 87.1709 32.9805C86.9964 32.8138 86.9092 32.6146 86.9092 32.3828C86.9092 32.1536 86.9964 31.957 87.1709 31.793C87.348 31.6263 87.5602 31.543 87.8076 31.543C88.055 31.543 88.266 31.6263 88.4404 31.793C88.6175 31.957 88.7061 32.1536 88.7061 32.3828C88.7061 32.6146 88.6175 32.8138 88.4404 32.9805C88.266 33.1445 88.055 33.2266 87.8076 33.2266ZM91.6328 36.5313V40H89.9688V34H91.5547V35.0586H91.625C91.7578 34.7096 91.9805 34.4336 92.293 34.2305C92.6055 34.0247 92.9844 33.9219 93.4297 33.9219C93.8464 33.9219 94.2096 34.013 94.5195 34.1953C94.8294 34.3776 95.0703 34.638 95.2422 34.9766C95.4141 35.3125 95.5 35.7135 95.5 36.1797V40H93.8359V36.4766C93.8385 36.1094 93.7448 35.8229 93.5547 35.6172C93.3646 35.4089 93.1029 35.3047 92.7695 35.3047C92.5456 35.3047 92.3477 35.3529 92.1758 35.4492C92.0065 35.5456 91.8737 35.6862 91.7773 35.8711C91.6836 36.0534 91.6354 36.2734 91.6328 36.5313ZM102.19 34L100.093 40H98.2178L96.1201 34H97.8779L99.124 38.293H99.1865L100.429 34H102.19ZM105.583 40.1172C104.966 40.1172 104.435 39.9922 103.989 39.7422C103.547 39.4896 103.205 39.1328 102.966 38.6719C102.726 38.2083 102.606 37.6602 102.606 37.0273C102.606 36.4102 102.726 35.8685 102.966 35.4023C103.205 34.9362 103.543 34.5729 103.978 34.3125C104.415 34.0521 104.928 33.9219 105.517 33.9219C105.912 33.9219 106.281 33.9857 106.622 34.1133C106.966 34.2383 107.265 34.4271 107.521 34.6797C107.778 34.9323 107.979 35.25 108.122 35.6328C108.265 36.013 108.337 36.4583 108.337 36.9687V37.4258H103.271V36.3945H106.771C106.771 36.1549 106.718 35.9427 106.614 35.7578C106.51 35.5729 106.366 35.4284 106.181 35.3242C105.998 35.2174 105.786 35.1641 105.544 35.1641C105.291 35.1641 105.067 35.2227 104.872 35.3398C104.679 35.4544 104.528 35.6094 104.419 35.8047C104.31 35.9974 104.254 36.2122 104.251 36.4492V37.4297C104.251 37.7266 104.306 37.9831 104.415 38.1992C104.527 38.4154 104.685 38.582 104.888 38.6992C105.091 38.8164 105.332 38.875 105.61 38.875C105.795 38.875 105.965 38.849 106.118 38.7969C106.272 38.7448 106.403 38.6667 106.513 38.5625C106.622 38.4583 106.705 38.3307 106.763 38.1797L108.302 38.2812C108.224 38.651 108.063 38.974 107.821 39.25C107.582 39.5234 107.272 39.737 106.892 39.8906C106.514 40.0417 106.078 40.1172 105.583 40.1172ZM114.415 35.7109L112.892 35.8047C112.866 35.6745 112.81 35.5573 112.724 35.4531C112.638 35.3464 112.524 35.2617 112.384 35.1992C112.246 35.1341 112.08 35.1016 111.888 35.1016C111.63 35.1016 111.412 35.1562 111.235 35.2656C111.058 35.3724 110.97 35.5156 110.97 35.6953C110.97 35.8385 111.027 35.9596 111.142 36.0586C111.256 36.1576 111.453 36.237 111.731 36.2969L112.817 36.5156C113.401 36.6354 113.836 36.8281 114.122 37.0937C114.409 37.3594 114.552 37.7083 114.552 38.1406C114.552 38.5339 114.436 38.8789 114.204 39.1758C113.975 39.4727 113.66 39.7044 113.259 39.8711C112.86 40.0352 112.401 40.1172 111.88 40.1172C111.086 40.1172 110.453 39.9518 109.981 39.6211C109.513 39.2878 109.238 38.8346 109.157 38.2617L110.794 38.1758C110.843 38.418 110.963 38.6029 111.153 38.7305C111.343 38.8555 111.587 38.918 111.884 38.918C112.175 38.918 112.41 38.862 112.587 38.75C112.767 38.6354 112.858 38.4883 112.86 38.3086C112.858 38.1576 112.794 38.0339 112.669 37.9375C112.544 37.8385 112.351 37.763 112.091 37.7109L111.052 37.5039C110.466 37.3867 110.03 37.1836 109.743 36.8945C109.459 36.6055 109.317 36.237 109.317 35.7891C109.317 35.4036 109.422 35.0716 109.63 34.793C109.841 34.5143 110.136 34.2995 110.517 34.1484C110.899 33.9974 111.347 33.9219 111.86 33.9219C112.618 33.9219 113.215 34.082 113.649 34.4023C114.087 34.7227 114.342 35.1589 114.415 35.7109ZM118.791 34V35.25H115.178V34H118.791ZM115.998 32.5625H117.662V38.1562C117.662 38.3099 117.686 38.4297 117.732 38.5156C117.779 38.599 117.844 38.6576 117.928 38.6914C118.014 38.7253 118.113 38.7422 118.225 38.7422C118.303 38.7422 118.381 38.7357 118.459 38.7227C118.537 38.707 118.597 38.6953 118.639 38.6875L118.9 39.9258C118.817 39.9518 118.7 39.9818 118.549 40.0156C118.398 40.0521 118.214 40.0742 117.998 40.082C117.597 40.0977 117.245 40.0443 116.943 39.9219C116.644 39.7995 116.411 39.6094 116.244 39.3516C116.077 39.0937 115.995 38.7682 115.998 38.375V32.5625ZM119.875 40V34H121.539V40H119.875ZM120.711 33.2266C120.464 33.2266 120.251 33.1445 120.074 32.9805C119.9 32.8138 119.812 32.6146 119.812 32.3828C119.812 32.1536 119.9 31.957 120.074 31.793C120.251 31.6263 120.464 31.543 120.711 31.543C120.958 31.543 121.169 31.6263 121.344 31.793C121.521 31.957 121.609 32.1536 121.609 32.3828C121.609 32.6146 121.521 32.8138 121.344 32.9805C121.169 33.1445 120.958 33.2266 120.711 33.2266ZM124.536 36.5313V40H122.872V34H124.458V35.0586H124.528C124.661 34.7096 124.884 34.4336 125.196 34.2305C125.509 34.0247 125.888 33.9219 126.333 33.9219C126.75 33.9219 127.113 34.013 127.423 34.1953C127.733 34.3776 127.974 34.638 128.146 34.9766C128.317 35.3125 128.403 35.7135 128.403 36.1797V40H126.739V36.4766C126.742 36.1094 126.648 35.8229 126.458 35.6172C126.268 35.4089 126.006 35.3047 125.673 35.3047C125.449 35.3047 125.251 35.3529 125.079 35.4492C124.91 35.5456 124.777 35.6862 124.681 35.8711C124.587 36.0534 124.539 36.2734 124.536 36.5313ZM132.418 42.375C131.879 42.375 131.417 42.3008 131.031 42.1523C130.648 42.0065 130.344 41.8073 130.117 41.5547C129.891 41.3021 129.743 41.0182 129.676 40.7031L131.215 40.4961C131.262 40.6159 131.336 40.7279 131.438 40.832C131.539 40.9362 131.673 41.0195 131.84 41.082C132.009 41.1471 132.215 41.1797 132.457 41.1797C132.819 41.1797 133.117 41.0911 133.352 40.9141C133.589 40.7396 133.707 40.4466 133.707 40.0352V38.9375H133.637C133.564 39.1042 133.454 39.2617 133.309 39.4102C133.163 39.5586 132.975 39.6797 132.746 39.7734C132.517 39.8672 132.243 39.9141 131.926 39.9141C131.475 39.9141 131.065 39.8099 130.695 39.6016C130.328 39.3906 130.035 39.069 129.816 38.6367C129.6 38.2018 129.492 37.6523 129.492 36.9883C129.492 36.3086 129.603 35.7409 129.824 35.2852C130.046 34.8294 130.34 34.4883 130.707 34.2617C131.077 34.0352 131.482 33.9219 131.922 33.9219C132.258 33.9219 132.539 33.9792 132.766 34.0938C132.992 34.2057 133.174 34.3464 133.313 34.5156C133.453 34.6823 133.561 34.8464 133.637 35.0078H133.699V34H135.352V40.0586C135.352 40.569 135.227 40.9961 134.977 41.3398C134.727 41.6836 134.38 41.9414 133.938 42.1133C133.497 42.2878 132.991 42.375 132.418 42.375ZM132.453 38.6641C132.721 38.6641 132.948 38.5977 133.133 38.4648C133.32 38.3294 133.464 38.1367 133.562 37.8867C133.664 37.6341 133.715 37.332 133.715 36.9805C133.715 36.6289 133.665 36.3242 133.566 36.0664C133.467 35.806 133.324 35.6042 133.137 35.4609C132.949 35.3177 132.721 35.2461 132.453 35.2461C132.18 35.2461 131.949 35.3203 131.762 35.4687C131.574 35.6146 131.432 35.8177 131.336 36.0781C131.24 36.3385 131.191 36.6393 131.191 36.9805C131.191 37.3268 131.24 37.6263 131.336 37.8789C131.435 38.1289 131.577 38.3229 131.762 38.4609C131.949 38.5964 132.18 38.6641 132.453 38.6641ZM138.664 32L138.512 37.6016H137.082L136.926 32H138.664ZM137.797 40.1016C137.539 40.1016 137.318 40.0104 137.133 39.8281C136.948 39.6432 136.857 39.4219 136.859 39.1641C136.857 38.9089 136.948 38.6901 137.133 38.5078C137.318 38.3255 137.539 38.2344 137.797 38.2344C138.044 38.2344 138.262 38.3255 138.449 38.5078C138.637 38.6901 138.732 38.9089 138.734 39.1641C138.732 39.3359 138.686 39.4935 138.598 39.6367C138.512 39.7773 138.398 39.8906 138.258 39.9766C138.117 40.0599 137.964 40.1016 137.797 40.1016Z" fill="white"/>
</svg>
