<svg width="532" height="663" viewBox="0 0 532 663" fill="none" xmlns="http://www.w3.org/2000/svg">
<g filter="url(#filter0_d_2447_342)">
<path d="M16 0H516V611C516 622.046 507.046 631 496 631H36C24.9543 631 16 622.046 16 611V0Z" fill="#002C66"/>
<rect x="56" y="40" width="419" height="142" rx="8" fill="#CCE2FF"/>
<path d="M93.6882 74.4922H90.8885C90.8374 74.13 90.733 73.8082 90.5753 73.527C90.4176 73.2415 90.2152 72.9986 89.968 72.7983C89.7209 72.598 89.4354 72.4446 89.1115 72.3381C88.7919 72.2315 88.4446 72.1783 88.0696 72.1783C87.392 72.1783 86.8018 72.3466 86.299 72.6832C85.7962 73.0156 85.4063 73.5014 85.1293 74.1406C84.8523 74.7756 84.7138 75.5469 84.7138 76.4545C84.7138 77.3878 84.8523 78.1719 85.1293 78.8068C85.4105 79.4418 85.8026 79.9212 86.3054 80.245C86.8082 80.5689 87.3899 80.7308 88.0504 80.7308C88.4212 80.7308 88.7642 80.6818 89.0795 80.5838C89.3991 80.4858 89.6825 80.343 89.9297 80.1555C90.1768 79.9638 90.3814 79.7315 90.5433 79.4588C90.7095 79.1861 90.8246 78.875 90.8885 78.5256L93.6882 78.5384C93.6158 79.1392 93.4347 79.7188 93.1449 80.277C92.8594 80.831 92.4737 81.3274 91.9879 81.7663C91.5064 82.201 90.9311 82.5462 90.2621 82.8018C89.5973 83.0533 88.8452 83.179 88.0057 83.179C86.8381 83.179 85.794 82.9148 84.8736 82.3864C83.9574 81.858 83.233 81.093 82.7003 80.0916C82.1719 79.0902 81.9077 77.8778 81.9077 76.4545C81.9077 75.027 82.1761 73.8125 82.7131 72.8111C83.25 71.8097 83.9787 71.0469 84.8991 70.5227C85.8196 69.9943 86.8551 69.7301 88.0057 69.7301C88.7642 69.7301 89.4673 69.8366 90.1151 70.0497C90.767 70.2628 91.3445 70.5739 91.8473 70.983C92.3501 71.3878 92.7592 71.8842 93.0746 72.4723C93.3942 73.0604 93.5987 73.7337 93.6882 74.4922ZM100.058 83.1918C99.065 83.1918 98.2063 82.9808 97.4819 82.5589C96.7617 82.1328 96.2056 81.5405 95.8136 80.782C95.4215 80.0192 95.2255 79.1349 95.2255 78.1293C95.2255 77.1151 95.4215 76.2287 95.8136 75.4702C96.2056 74.7074 96.7617 74.1151 97.4819 73.6932C98.2063 73.267 99.065 73.054 100.058 73.054C101.051 73.054 101.907 73.267 102.627 73.6932C103.352 74.1151 103.91 74.7074 104.302 75.4702C104.694 76.2287 104.89 77.1151 104.89 78.1293C104.89 79.1349 104.694 80.0192 104.302 80.782C103.91 81.5405 103.352 82.1328 102.627 82.5589C101.907 82.9808 101.051 83.1918 100.058 83.1918ZM100.071 81.0824C100.522 81.0824 100.9 80.9545 101.202 80.6989C101.505 80.4389 101.733 80.0852 101.886 79.6378C102.044 79.1903 102.123 78.6811 102.123 78.1101C102.123 77.5391 102.044 77.0298 101.886 76.5824C101.733 76.1349 101.505 75.7812 101.202 75.5213C100.9 75.2614 100.522 75.1314 100.071 75.1314C99.6147 75.1314 99.2312 75.2614 98.9201 75.5213C98.6133 75.7812 98.381 76.1349 98.2234 76.5824C98.07 77.0298 97.9933 77.5391 97.9933 78.1101C97.9933 78.6811 98.07 79.1903 98.2234 79.6378C98.381 80.0852 98.6133 80.4389 98.9201 80.6989C99.2312 80.9545 99.6147 81.0824 100.071 81.0824ZM106.661 83V73.1818H109.256V74.9141H109.371C109.576 74.3388 109.917 73.8849 110.394 73.5526C110.871 73.2202 111.442 73.054 112.107 73.054C112.78 73.054 113.353 73.2223 113.826 73.5589C114.299 73.8913 114.615 74.343 114.772 74.9141H114.875C115.075 74.3516 115.437 73.902 115.961 73.5653C116.49 73.2244 117.114 73.054 117.834 73.054C118.75 73.054 119.494 73.3459 120.065 73.9297C120.64 74.5092 120.928 75.3317 120.928 76.397V83H118.211V76.9339C118.211 76.3885 118.066 75.9794 117.777 75.7067C117.487 75.4339 117.125 75.2976 116.69 75.2976C116.196 75.2976 115.81 75.4553 115.533 75.7706C115.256 76.0817 115.118 76.4929 115.118 77.0043V83H112.478V76.8764C112.478 76.3949 112.339 76.0114 112.062 75.7259C111.789 75.4403 111.429 75.2976 110.982 75.2976C110.679 75.2976 110.407 75.3743 110.164 75.5277C109.925 75.6768 109.735 75.8878 109.595 76.1605C109.454 76.429 109.384 76.7443 109.384 77.1065V83H106.661ZM123.079 83V73.1818H125.674V74.9141H125.789C125.994 74.3388 126.335 73.8849 126.812 73.5526C127.289 73.2202 127.86 73.054 128.525 73.054C129.198 73.054 129.771 73.2223 130.244 73.5589C130.717 73.8913 131.033 74.343 131.19 74.9141H131.293C131.493 74.3516 131.855 73.902 132.379 73.5653C132.908 73.2244 133.532 73.054 134.252 73.054C135.168 73.054 135.912 73.3459 136.483 73.9297C137.058 74.5092 137.346 75.3317 137.346 76.397V83H134.629V76.9339C134.629 76.3885 134.484 75.9794 134.195 75.7067C133.905 75.4339 133.543 75.2976 133.108 75.2976C132.614 75.2976 132.228 75.4553 131.951 75.7706C131.674 76.0817 131.536 76.4929 131.536 77.0043V83H128.896V76.8764C128.896 76.3949 128.757 76.0114 128.48 75.7259C128.207 75.4403 127.847 75.2976 127.4 75.2976C127.097 75.2976 126.825 75.3743 126.582 75.5277C126.343 75.6768 126.153 75.8878 126.013 76.1605C125.872 76.429 125.802 76.7443 125.802 77.1065V83H123.079ZM143.971 83.1918C142.961 83.1918 142.092 82.9872 141.363 82.5781C140.639 82.1648 140.081 81.581 139.689 80.8267C139.297 80.0682 139.1 79.1712 139.1 78.1357C139.1 77.1257 139.297 76.2393 139.689 75.4766C140.081 74.7138 140.632 74.1193 141.344 73.6932C142.06 73.267 142.9 73.054 143.863 73.054C144.51 73.054 145.113 73.1584 145.672 73.3672C146.234 73.5717 146.724 73.8807 147.142 74.294C147.564 74.7074 147.892 75.2273 148.126 75.8537C148.36 76.4759 148.478 77.2045 148.478 78.0398V78.7876H140.187V77.1001H145.914C145.914 76.7081 145.829 76.3608 145.659 76.0582C145.488 75.7557 145.252 75.5192 144.949 75.3487C144.651 75.174 144.304 75.0866 143.907 75.0866C143.494 75.0866 143.127 75.1825 142.808 75.3743C142.493 75.5618 142.245 75.8153 142.066 76.1349C141.887 76.4503 141.796 76.8018 141.792 77.1896V78.794C141.792 79.2798 141.881 79.6996 142.06 80.0533C142.243 80.407 142.501 80.6797 142.833 80.8714C143.166 81.0632 143.56 81.1591 144.016 81.1591C144.319 81.1591 144.596 81.1165 144.847 81.0312C145.098 80.946 145.314 80.8182 145.493 80.6477C145.672 80.4773 145.808 80.2685 145.902 80.0213L148.42 80.1875C148.292 80.7926 148.03 81.321 147.634 81.7727C147.242 82.2202 146.735 82.5696 146.113 82.821C145.495 83.0682 144.781 83.1918 143.971 83.1918ZM150.255 83V73.1818H152.895V74.8949H152.997C153.176 74.2855 153.476 73.8253 153.898 73.5142C154.32 73.1989 154.806 73.0412 155.355 73.0412C155.492 73.0412 155.639 73.0497 155.797 73.0668C155.954 73.0838 156.093 73.1072 156.212 73.1371V75.5533C156.084 75.5149 155.907 75.4808 155.681 75.451C155.456 75.4212 155.249 75.4062 155.061 75.4062C154.661 75.4062 154.303 75.4936 153.988 75.6683C153.676 75.8388 153.429 76.0774 153.246 76.3842C153.067 76.6911 152.978 77.0447 152.978 77.4453V83H150.255ZM161.599 83.1918C160.593 83.1918 159.728 82.9787 159.004 82.5526C158.284 82.1222 157.73 81.5256 157.342 80.7628C156.958 80 156.767 79.1222 156.767 78.1293C156.767 77.1236 156.96 76.2415 157.348 75.483C157.74 74.7202 158.296 74.1257 159.017 73.6996C159.737 73.2692 160.593 73.054 161.586 73.054C162.443 73.054 163.193 73.2095 163.836 73.5206C164.48 73.8317 164.989 74.2685 165.364 74.831C165.739 75.3935 165.945 76.054 165.984 76.8125H163.414C163.342 76.3224 163.15 75.9283 162.839 75.63C162.532 75.3274 162.129 75.1761 161.631 75.1761C161.209 75.1761 160.84 75.2912 160.525 75.5213C160.214 75.7472 159.971 76.0774 159.796 76.5121C159.622 76.9467 159.534 77.473 159.534 78.0909C159.534 78.7173 159.619 79.25 159.79 79.6889C159.965 80.1278 160.21 80.4624 160.525 80.6925C160.84 80.9226 161.209 81.0376 161.631 81.0376C161.942 81.0376 162.221 80.9737 162.468 80.8459C162.72 80.718 162.926 80.5327 163.088 80.2898C163.254 80.0426 163.363 79.7464 163.414 79.4013H165.984C165.941 80.1513 165.737 80.8118 165.37 81.3828C165.008 81.9496 164.507 82.3928 163.868 82.7124C163.229 83.032 162.472 83.1918 161.599 83.1918ZM167.727 83V73.1818H170.45V83H167.727ZM169.095 71.9162C168.69 71.9162 168.343 71.782 168.053 71.5135C167.768 71.2408 167.625 70.9148 167.625 70.5355C167.625 70.1605 167.768 69.8388 168.053 69.5703C168.343 69.2976 168.69 69.1612 169.095 69.1612C169.5 69.1612 169.845 69.2976 170.131 69.5703C170.42 69.8388 170.565 70.1605 170.565 70.5355C170.565 70.9148 170.42 71.2408 170.131 71.5135C169.845 71.782 169.5 71.9162 169.095 71.9162ZM175.431 83.1854C174.805 83.1854 174.247 83.0767 173.757 82.8594C173.267 82.6378 172.879 82.3118 172.593 81.8814C172.312 81.4467 172.171 80.9055 172.171 80.2578C172.171 79.7124 172.271 79.2543 172.472 78.8835C172.672 78.5128 172.945 78.2145 173.29 77.9886C173.635 77.7628 174.027 77.5923 174.466 77.4773C174.909 77.3622 175.374 77.2812 175.86 77.2344C176.431 77.1747 176.891 77.1193 177.24 77.0682C177.59 77.0128 177.843 76.9318 178.001 76.8253C178.159 76.7187 178.237 76.5611 178.237 76.3523V76.3139C178.237 75.9091 178.11 75.5959 177.854 75.3743C177.602 75.1527 177.244 75.0419 176.78 75.0419C176.29 75.0419 175.9 75.1506 175.61 75.3679C175.32 75.581 175.129 75.8494 175.035 76.1733L172.517 75.9688C172.644 75.3722 172.896 74.8565 173.271 74.4219C173.646 73.983 174.129 73.6463 174.722 73.4119C175.318 73.1733 176.009 73.054 176.793 73.054C177.338 73.054 177.86 73.1179 178.359 73.2457C178.862 73.3736 179.307 73.5717 179.695 73.8402C180.087 74.1087 180.396 74.4538 180.622 74.8757C180.847 75.2933 180.96 75.794 180.96 76.3778V83H178.378V81.6385H178.301C178.144 81.9453 177.933 82.2159 177.669 82.4503C177.404 82.6804 177.087 82.8615 176.716 82.9936C176.345 83.1214 175.917 83.1854 175.431 83.1854ZM176.211 81.3061C176.612 81.3061 176.965 81.2273 177.272 81.0696C177.579 80.9077 177.82 80.6903 177.994 80.4176C178.169 80.1449 178.257 79.8359 178.257 79.4908V78.4489C178.171 78.5043 178.054 78.5554 177.905 78.6023C177.76 78.6449 177.596 78.6854 177.413 78.7237C177.23 78.7578 177.046 78.7898 176.863 78.8196C176.68 78.8452 176.514 78.8686 176.365 78.8899C176.045 78.9368 175.766 79.0114 175.527 79.1136C175.289 79.2159 175.103 79.3544 174.971 79.5291C174.839 79.6996 174.773 79.9126 174.773 80.1683C174.773 80.5391 174.907 80.8224 175.176 81.0185C175.448 81.2102 175.794 81.3061 176.211 81.3061ZM185.796 69.9091V83H183.073V69.9091H185.796ZM192.194 83V69.9091H194.917V74.831H195.001C195.12 74.5668 195.292 74.2983 195.518 74.0256C195.748 73.7486 196.047 73.5185 196.413 73.3352C196.784 73.1477 197.244 73.054 197.794 73.054C198.51 73.054 199.17 73.2415 199.775 73.6165C200.381 73.9872 200.864 74.5476 201.226 75.2976C201.589 76.0433 201.77 76.9787 201.77 78.1037C201.77 79.1989 201.593 80.1236 201.239 80.8778C200.89 81.6278 200.412 82.1967 199.807 82.5845C199.206 82.968 198.533 83.1598 197.787 83.1598C197.259 83.1598 196.809 83.0724 196.439 82.8977C196.072 82.723 195.772 82.5036 195.537 82.2393C195.303 81.9709 195.124 81.7003 195.001 81.4276H194.879V83H192.194ZM194.86 78.0909C194.86 78.6747 194.941 79.1839 195.103 79.6186C195.265 80.0533 195.499 80.392 195.806 80.6349C196.113 80.8736 196.486 80.9929 196.925 80.9929C197.368 80.9929 197.743 80.8714 198.05 80.6286C198.356 80.3814 198.589 80.0405 198.746 79.6058C198.908 79.1669 198.989 78.6619 198.989 78.0909C198.989 77.5241 198.91 77.0256 198.753 76.5952C198.595 76.1648 198.363 75.8281 198.056 75.5852C197.749 75.3423 197.372 75.2209 196.925 75.2209C196.481 75.2209 196.106 75.3381 195.8 75.5724C195.497 75.8068 195.265 76.1392 195.103 76.5696C194.941 77 194.86 77.5071 194.86 78.0909ZM209.883 78.8196V73.1818H212.606V83H209.991V81.2166H209.889C209.668 81.7919 209.299 82.2543 208.783 82.6037C208.272 82.9531 207.648 83.1278 206.911 83.1278C206.254 83.1278 205.677 82.9787 205.178 82.6804C204.68 82.3821 204.29 81.9581 204.009 81.4084C203.732 80.8587 203.591 80.2003 203.587 79.4332V73.1818H206.31V78.9474C206.314 79.527 206.469 79.9851 206.776 80.3217C207.083 80.6584 207.494 80.8267 208.01 80.8267C208.338 80.8267 208.645 80.7521 208.93 80.603C209.216 80.4496 209.446 80.2237 209.621 79.9254C209.8 79.6271 209.887 79.2585 209.883 78.8196ZM214.784 83V73.1818H217.507V83H214.784ZM216.152 71.9162C215.747 71.9162 215.4 71.782 215.11 71.5135C214.824 71.2408 214.682 70.9148 214.682 70.5355C214.682 70.1605 214.824 69.8388 215.11 69.5703C215.4 69.2976 215.747 69.1612 216.152 69.1612C216.557 69.1612 216.902 69.2976 217.187 69.5703C217.477 69.8388 217.622 70.1605 217.622 70.5355C217.622 70.9148 217.477 71.2408 217.187 71.5135C216.902 71.782 216.557 71.9162 216.152 71.9162ZM222.411 69.9091V83H219.688V69.9091H222.411ZM228.21 83.1598C227.465 83.1598 226.789 82.968 226.184 82.5845C225.583 82.1967 225.106 81.6278 224.752 80.8778C224.403 80.1236 224.228 79.1989 224.228 78.1037C224.228 76.9787 224.409 76.0433 224.771 75.2976C225.134 74.5476 225.615 73.9872 226.216 73.6165C226.821 73.2415 227.484 73.054 228.204 73.054C228.754 73.054 229.212 73.1477 229.578 73.3352C229.949 73.5185 230.247 73.7486 230.473 74.0256C230.703 74.2983 230.878 74.5668 230.997 74.831H231.08V69.9091H233.797V83H231.112V81.4276H230.997C230.869 81.7003 230.688 81.9709 230.454 82.2393C230.224 82.5036 229.923 82.723 229.553 82.8977C229.186 83.0724 228.739 83.1598 228.21 83.1598ZM229.073 80.9929C229.512 80.9929 229.883 80.8736 230.186 80.6349C230.492 80.392 230.727 80.0533 230.889 79.6186C231.055 79.1839 231.138 78.6747 231.138 78.0909C231.138 77.5071 231.057 77 230.895 76.5696C230.733 76.1392 230.499 75.8068 230.192 75.5724C229.885 75.3381 229.512 75.2209 229.073 75.2209C228.626 75.2209 228.249 75.3423 227.942 75.5852C227.635 75.8281 227.403 76.1648 227.245 76.5952C227.088 77.0256 227.009 77.5241 227.009 78.0909C227.009 78.6619 227.088 79.1669 227.245 79.6058C227.407 80.0405 227.639 80.3814 227.942 80.6286C228.249 80.8714 228.626 80.9929 229.073 80.9929ZM236.036 83V73.1818H238.759V83H236.036ZM237.404 71.9162C236.999 71.9162 236.652 71.782 236.362 71.5135C236.076 71.2408 235.934 70.9148 235.934 70.5355C235.934 70.1605 236.076 69.8388 236.362 69.5703C236.652 69.2976 236.999 69.1612 237.404 69.1612C237.809 69.1612 238.154 69.2976 238.439 69.5703C238.729 69.8388 238.874 70.1605 238.874 70.5355C238.874 70.9148 238.729 71.2408 238.439 71.5135C238.154 71.782 237.809 71.9162 237.404 71.9162ZM243.663 77.3239V83H240.94V73.1818H243.535V74.9141H243.65C243.868 74.343 244.232 73.8913 244.743 73.5589C245.255 73.2223 245.875 73.054 246.604 73.054C247.285 73.054 247.88 73.2031 248.387 73.5014C248.894 73.7997 249.288 74.2259 249.569 74.7798C249.851 75.3295 249.991 75.9858 249.991 76.7486V83H247.268V77.2344C247.273 76.6335 247.119 76.1648 246.808 75.8281C246.497 75.4872 246.069 75.3168 245.523 75.3168C245.157 75.3168 244.833 75.3956 244.552 75.5533C244.275 75.7109 244.057 75.9411 243.9 76.2436C243.746 76.5419 243.667 76.902 243.663 77.3239ZM256.561 86.8864C255.679 86.8864 254.922 86.7649 254.292 86.522C253.665 86.2834 253.167 85.9574 252.796 85.544C252.425 85.1307 252.184 84.6662 252.074 84.1506L254.592 83.8118C254.669 84.0078 254.79 84.1911 254.956 84.3615C255.123 84.532 255.342 84.6683 255.615 84.7706C255.892 84.8771 256.228 84.9304 256.625 84.9304C257.217 84.9304 257.705 84.7855 258.088 84.4957C258.476 84.2102 258.67 83.7308 258.67 83.0575V81.2614H258.555C258.436 81.5341 258.257 81.7919 258.018 82.0348C257.779 82.2777 257.473 82.4759 257.098 82.6293C256.723 82.7827 256.275 82.8594 255.755 82.8594C255.018 82.8594 254.347 82.6889 253.742 82.348C253.141 82.0028 252.662 81.4766 252.304 80.7692C251.95 80.0575 251.773 79.1584 251.773 78.0717C251.773 76.9595 251.954 76.0305 252.316 75.2848C252.679 74.5391 253.16 73.9808 253.761 73.6101C254.366 73.2393 255.029 73.054 255.749 73.054C256.299 73.054 256.759 73.1477 257.13 73.3352C257.5 73.5185 257.799 73.7486 258.025 74.0256C258.255 74.2983 258.431 74.5668 258.555 74.831H258.657V73.1818H261.361V83.0959C261.361 83.9311 261.157 84.63 260.748 85.1925C260.338 85.755 259.772 86.1768 259.047 86.4581C258.327 86.7436 257.498 86.8864 256.561 86.8864ZM256.618 80.8139C257.057 80.8139 257.428 80.7053 257.73 80.4879C258.037 80.2663 258.272 79.951 258.434 79.5419C258.6 79.1286 258.683 78.6342 258.683 78.0589C258.683 77.4837 258.602 76.9851 258.44 76.5632C258.278 76.1371 258.044 75.8068 257.737 75.5724C257.43 75.3381 257.057 75.2209 256.618 75.2209C256.171 75.2209 255.794 75.3423 255.487 75.5852C255.18 75.8239 254.948 76.1562 254.79 76.5824C254.632 77.0085 254.554 77.5007 254.554 78.0589C254.554 78.6257 254.632 79.1158 254.79 79.5291C254.952 79.9382 255.184 80.2557 255.487 80.4815C255.794 80.7031 256.171 80.8139 256.618 80.8139Z" fill="black"/>
<rect x="81" y="100" width="369" height="21" rx="4" fill="#A9BAD1"/>
<rect x="81" y="136" width="191" height="21" rx="4" fill="#A9BAD1"/>
<rect x="292" y="136" width="158" height="21" rx="4" fill="#A9BAD1"/>
<rect x="56" y="212" width="419" height="142" rx="8" fill="#CCE2FF"/>
<path d="M93.6882 246.492H90.8885C90.8374 246.13 90.733 245.808 90.5753 245.527C90.4176 245.241 90.2152 244.999 89.968 244.798C89.7209 244.598 89.4354 244.445 89.1115 244.338C88.7919 244.232 88.4446 244.178 88.0696 244.178C87.392 244.178 86.8018 244.347 86.299 244.683C85.7962 245.016 85.4063 245.501 85.1293 246.141C84.8523 246.776 84.7138 247.547 84.7138 248.455C84.7138 249.388 84.8523 250.172 85.1293 250.807C85.4105 251.442 85.8026 251.921 86.3054 252.245C86.8082 252.569 87.3899 252.731 88.0504 252.731C88.4212 252.731 88.7642 252.682 89.0795 252.584C89.3991 252.486 89.6825 252.343 89.9297 252.156C90.1768 251.964 90.3814 251.732 90.5433 251.459C90.7095 251.186 90.8246 250.875 90.8885 250.526L93.6882 250.538C93.6158 251.139 93.4347 251.719 93.1449 252.277C92.8594 252.831 92.4737 253.327 91.9879 253.766C91.5064 254.201 90.9311 254.546 90.2621 254.802C89.5973 255.053 88.8452 255.179 88.0057 255.179C86.8381 255.179 85.794 254.915 84.8736 254.386C83.9574 253.858 83.233 253.093 82.7003 252.092C82.1719 251.09 81.9077 249.878 81.9077 248.455C81.9077 247.027 82.1761 245.812 82.7131 244.811C83.25 243.81 83.9787 243.047 84.8991 242.523C85.8196 241.994 86.8551 241.73 88.0057 241.73C88.7642 241.73 89.4673 241.837 90.1151 242.05C90.767 242.263 91.3445 242.574 91.8473 242.983C92.3501 243.388 92.7592 243.884 93.0746 244.472C93.3942 245.06 93.5987 245.734 93.6882 246.492ZM100.058 255.192C99.065 255.192 98.2063 254.981 97.4819 254.559C96.7617 254.133 96.2056 253.54 95.8136 252.782C95.4215 252.019 95.2255 251.135 95.2255 250.129C95.2255 249.115 95.4215 248.229 95.8136 247.47C96.2056 246.707 96.7617 246.115 97.4819 245.693C98.2063 245.267 99.065 245.054 100.058 245.054C101.051 245.054 101.907 245.267 102.627 245.693C103.352 246.115 103.91 246.707 104.302 247.47C104.694 248.229 104.89 249.115 104.89 250.129C104.89 251.135 104.694 252.019 104.302 252.782C103.91 253.54 103.352 254.133 102.627 254.559C101.907 254.981 101.051 255.192 100.058 255.192ZM100.071 253.082C100.522 253.082 100.9 252.955 101.202 252.699C101.505 252.439 101.733 252.085 101.886 251.638C102.044 251.19 102.123 250.681 102.123 250.11C102.123 249.539 102.044 249.03 101.886 248.582C101.733 248.135 101.505 247.781 101.202 247.521C100.9 247.261 100.522 247.131 100.071 247.131C99.6147 247.131 99.2312 247.261 98.9201 247.521C98.6133 247.781 98.381 248.135 98.2234 248.582C98.07 249.03 97.9933 249.539 97.9933 250.11C97.9933 250.681 98.07 251.19 98.2234 251.638C98.381 252.085 98.6133 252.439 98.9201 252.699C99.2312 252.955 99.6147 253.082 100.071 253.082ZM106.661 255V245.182H109.256V246.914H109.371C109.576 246.339 109.917 245.885 110.394 245.553C110.871 245.22 111.442 245.054 112.107 245.054C112.78 245.054 113.353 245.222 113.826 245.559C114.299 245.891 114.615 246.343 114.772 246.914H114.875C115.075 246.352 115.437 245.902 115.961 245.565C116.49 245.224 117.114 245.054 117.834 245.054C118.75 245.054 119.494 245.346 120.065 245.93C120.64 246.509 120.928 247.332 120.928 248.397V255H118.211V248.934C118.211 248.388 118.066 247.979 117.777 247.707C117.487 247.434 117.125 247.298 116.69 247.298C116.196 247.298 115.81 247.455 115.533 247.771C115.256 248.082 115.118 248.493 115.118 249.004V255H112.478V248.876C112.478 248.395 112.339 248.011 112.062 247.726C111.789 247.44 111.429 247.298 110.982 247.298C110.679 247.298 110.407 247.374 110.164 247.528C109.925 247.677 109.735 247.888 109.595 248.161C109.454 248.429 109.384 248.744 109.384 249.107V255H106.661ZM123.079 255V245.182H125.674V246.914H125.789C125.994 246.339 126.335 245.885 126.812 245.553C127.289 245.22 127.86 245.054 128.525 245.054C129.198 245.054 129.771 245.222 130.244 245.559C130.717 245.891 131.033 246.343 131.19 246.914H131.293C131.493 246.352 131.855 245.902 132.379 245.565C132.908 245.224 133.532 245.054 134.252 245.054C135.168 245.054 135.912 245.346 136.483 245.93C137.058 246.509 137.346 247.332 137.346 248.397V255H134.629V248.934C134.629 248.388 134.484 247.979 134.195 247.707C133.905 247.434 133.543 247.298 133.108 247.298C132.614 247.298 132.228 247.455 131.951 247.771C131.674 248.082 131.536 248.493 131.536 249.004V255H128.896V248.876C128.896 248.395 128.757 248.011 128.48 247.726C128.207 247.44 127.847 247.298 127.4 247.298C127.097 247.298 126.825 247.374 126.582 247.528C126.343 247.677 126.153 247.888 126.013 248.161C125.872 248.429 125.802 248.744 125.802 249.107V255H123.079ZM143.971 255.192C142.961 255.192 142.092 254.987 141.363 254.578C140.639 254.165 140.081 253.581 139.689 252.827C139.297 252.068 139.1 251.171 139.1 250.136C139.1 249.126 139.297 248.239 139.689 247.477C140.081 246.714 140.632 246.119 141.344 245.693C142.06 245.267 142.9 245.054 143.863 245.054C144.51 245.054 145.113 245.158 145.672 245.367C146.234 245.572 146.724 245.881 147.142 246.294C147.564 246.707 147.892 247.227 148.126 247.854C148.36 248.476 148.478 249.205 148.478 250.04V250.788H140.187V249.1H145.914C145.914 248.708 145.829 248.361 145.659 248.058C145.488 247.756 145.252 247.519 144.949 247.349C144.651 247.174 144.304 247.087 143.907 247.087C143.494 247.087 143.127 247.183 142.808 247.374C142.493 247.562 142.245 247.815 142.066 248.135C141.887 248.45 141.796 248.802 141.792 249.19V250.794C141.792 251.28 141.881 251.7 142.06 252.053C142.243 252.407 142.501 252.68 142.833 252.871C143.166 253.063 143.56 253.159 144.016 253.159C144.319 253.159 144.596 253.116 144.847 253.031C145.098 252.946 145.314 252.818 145.493 252.648C145.672 252.477 145.808 252.268 145.902 252.021L148.42 252.188C148.292 252.793 148.03 253.321 147.634 253.773C147.242 254.22 146.735 254.57 146.113 254.821C145.495 255.068 144.781 255.192 143.971 255.192ZM150.255 255V245.182H152.895V246.895H152.997C153.176 246.286 153.476 245.825 153.898 245.514C154.32 245.199 154.806 245.041 155.355 245.041C155.492 245.041 155.639 245.05 155.797 245.067C155.954 245.084 156.093 245.107 156.212 245.137V247.553C156.084 247.515 155.907 247.481 155.681 247.451C155.456 247.421 155.249 247.406 155.061 247.406C154.661 247.406 154.303 247.494 153.988 247.668C153.676 247.839 153.429 248.077 153.246 248.384C153.067 248.691 152.978 249.045 152.978 249.445V255H150.255ZM161.599 255.192C160.593 255.192 159.728 254.979 159.004 254.553C158.284 254.122 157.73 253.526 157.342 252.763C156.958 252 156.767 251.122 156.767 250.129C156.767 249.124 156.96 248.241 157.348 247.483C157.74 246.72 158.296 246.126 159.017 245.7C159.737 245.269 160.593 245.054 161.586 245.054C162.443 245.054 163.193 245.21 163.836 245.521C164.48 245.832 164.989 246.268 165.364 246.831C165.739 247.393 165.945 248.054 165.984 248.812H163.414C163.342 248.322 163.15 247.928 162.839 247.63C162.532 247.327 162.129 247.176 161.631 247.176C161.209 247.176 160.84 247.291 160.525 247.521C160.214 247.747 159.971 248.077 159.796 248.512C159.622 248.947 159.534 249.473 159.534 250.091C159.534 250.717 159.619 251.25 159.79 251.689C159.965 252.128 160.21 252.462 160.525 252.692C160.84 252.923 161.209 253.038 161.631 253.038C161.942 253.038 162.221 252.974 162.468 252.846C162.72 252.718 162.926 252.533 163.088 252.29C163.254 252.043 163.363 251.746 163.414 251.401H165.984C165.941 252.151 165.737 252.812 165.37 253.383C165.008 253.95 164.507 254.393 163.868 254.712C163.229 255.032 162.472 255.192 161.599 255.192ZM167.727 255V245.182H170.45V255H167.727ZM169.095 243.916C168.69 243.916 168.343 243.782 168.053 243.513C167.768 243.241 167.625 242.915 167.625 242.536C167.625 242.161 167.768 241.839 168.053 241.57C168.343 241.298 168.69 241.161 169.095 241.161C169.5 241.161 169.845 241.298 170.131 241.57C170.42 241.839 170.565 242.161 170.565 242.536C170.565 242.915 170.42 243.241 170.131 243.513C169.845 243.782 169.5 243.916 169.095 243.916ZM175.431 255.185C174.805 255.185 174.247 255.077 173.757 254.859C173.267 254.638 172.879 254.312 172.593 253.881C172.312 253.447 172.171 252.906 172.171 252.258C172.171 251.712 172.271 251.254 172.472 250.884C172.672 250.513 172.945 250.214 173.29 249.989C173.635 249.763 174.027 249.592 174.466 249.477C174.909 249.362 175.374 249.281 175.86 249.234C176.431 249.175 176.891 249.119 177.24 249.068C177.59 249.013 177.843 248.932 178.001 248.825C178.159 248.719 178.237 248.561 178.237 248.352V248.314C178.237 247.909 178.11 247.596 177.854 247.374C177.602 247.153 177.244 247.042 176.78 247.042C176.29 247.042 175.9 247.151 175.61 247.368C175.32 247.581 175.129 247.849 175.035 248.173L172.517 247.969C172.644 247.372 172.896 246.857 173.271 246.422C173.646 245.983 174.129 245.646 174.722 245.412C175.318 245.173 176.009 245.054 176.793 245.054C177.338 245.054 177.86 245.118 178.359 245.246C178.862 245.374 179.307 245.572 179.695 245.84C180.087 246.109 180.396 246.454 180.622 246.876C180.847 247.293 180.96 247.794 180.96 248.378V255H178.378V253.638H178.301C178.144 253.945 177.933 254.216 177.669 254.45C177.404 254.68 177.087 254.862 176.716 254.994C176.345 255.121 175.917 255.185 175.431 255.185ZM176.211 253.306C176.612 253.306 176.965 253.227 177.272 253.07C177.579 252.908 177.82 252.69 177.994 252.418C178.169 252.145 178.257 251.836 178.257 251.491V250.449C178.171 250.504 178.054 250.555 177.905 250.602C177.76 250.645 177.596 250.685 177.413 250.724C177.23 250.758 177.046 250.79 176.863 250.82C176.68 250.845 176.514 250.869 176.365 250.89C176.045 250.937 175.766 251.011 175.527 251.114C175.289 251.216 175.103 251.354 174.971 251.529C174.839 251.7 174.773 251.913 174.773 252.168C174.773 252.539 174.907 252.822 175.176 253.018C175.448 253.21 175.794 253.306 176.211 253.306ZM185.796 241.909V255H183.073V241.909H185.796ZM192.194 255V241.909H194.917V246.831H195.001C195.12 246.567 195.292 246.298 195.518 246.026C195.748 245.749 196.047 245.518 196.413 245.335C196.784 245.148 197.244 245.054 197.794 245.054C198.51 245.054 199.17 245.241 199.775 245.616C200.381 245.987 200.864 246.548 201.226 247.298C201.589 248.043 201.77 248.979 201.77 250.104C201.77 251.199 201.593 252.124 201.239 252.878C200.89 253.628 200.412 254.197 199.807 254.585C199.206 254.968 198.533 255.16 197.787 255.16C197.259 255.16 196.809 255.072 196.439 254.898C196.072 254.723 195.772 254.504 195.537 254.239C195.303 253.971 195.124 253.7 195.001 253.428H194.879V255H192.194ZM194.86 250.091C194.86 250.675 194.941 251.184 195.103 251.619C195.265 252.053 195.499 252.392 195.806 252.635C196.113 252.874 196.486 252.993 196.925 252.993C197.368 252.993 197.743 252.871 198.05 252.629C198.356 252.381 198.589 252.04 198.746 251.606C198.908 251.167 198.989 250.662 198.989 250.091C198.989 249.524 198.91 249.026 198.753 248.595C198.595 248.165 198.363 247.828 198.056 247.585C197.749 247.342 197.372 247.221 196.925 247.221C196.481 247.221 196.106 247.338 195.8 247.572C195.497 247.807 195.265 248.139 195.103 248.57C194.941 249 194.86 249.507 194.86 250.091ZM209.883 250.82V245.182H212.606V255H209.991V253.217H209.889C209.668 253.792 209.299 254.254 208.783 254.604C208.272 254.953 207.648 255.128 206.911 255.128C206.254 255.128 205.677 254.979 205.178 254.68C204.68 254.382 204.29 253.958 204.009 253.408C203.732 252.859 203.591 252.2 203.587 251.433V245.182H206.31V250.947C206.314 251.527 206.469 251.985 206.776 252.322C207.083 252.658 207.494 252.827 208.01 252.827C208.338 252.827 208.645 252.752 208.93 252.603C209.216 252.45 209.446 252.224 209.621 251.925C209.8 251.627 209.887 251.259 209.883 250.82ZM214.784 255V245.182H217.507V255H214.784ZM216.152 243.916C215.747 243.916 215.4 243.782 215.11 243.513C214.824 243.241 214.682 242.915 214.682 242.536C214.682 242.161 214.824 241.839 215.11 241.57C215.4 241.298 215.747 241.161 216.152 241.161C216.557 241.161 216.902 241.298 217.187 241.57C217.477 241.839 217.622 242.161 217.622 242.536C217.622 242.915 217.477 243.241 217.187 243.513C216.902 243.782 216.557 243.916 216.152 243.916ZM222.411 241.909V255H219.688V241.909H222.411ZM228.21 255.16C227.465 255.16 226.789 254.968 226.184 254.585C225.583 254.197 225.106 253.628 224.752 252.878C224.403 252.124 224.228 251.199 224.228 250.104C224.228 248.979 224.409 248.043 224.771 247.298C225.134 246.548 225.615 245.987 226.216 245.616C226.821 245.241 227.484 245.054 228.204 245.054C228.754 245.054 229.212 245.148 229.578 245.335C229.949 245.518 230.247 245.749 230.473 246.026C230.703 246.298 230.878 246.567 230.997 246.831H231.08V241.909H233.797V255H231.112V253.428H230.997C230.869 253.7 230.688 253.971 230.454 254.239C230.224 254.504 229.923 254.723 229.553 254.898C229.186 255.072 228.739 255.16 228.21 255.16ZM229.073 252.993C229.512 252.993 229.883 252.874 230.186 252.635C230.492 252.392 230.727 252.053 230.889 251.619C231.055 251.184 231.138 250.675 231.138 250.091C231.138 249.507 231.057 249 230.895 248.57C230.733 248.139 230.499 247.807 230.192 247.572C229.885 247.338 229.512 247.221 229.073 247.221C228.626 247.221 228.249 247.342 227.942 247.585C227.635 247.828 227.403 248.165 227.245 248.595C227.088 249.026 227.009 249.524 227.009 250.091C227.009 250.662 227.088 251.167 227.245 251.606C227.407 252.04 227.639 252.381 227.942 252.629C228.249 252.871 228.626 252.993 229.073 252.993ZM236.036 255V245.182H238.759V255H236.036ZM237.404 243.916C236.999 243.916 236.652 243.782 236.362 243.513C236.076 243.241 235.934 242.915 235.934 242.536C235.934 242.161 236.076 241.839 236.362 241.57C236.652 241.298 236.999 241.161 237.404 241.161C237.809 241.161 238.154 241.298 238.439 241.57C238.729 241.839 238.874 242.161 238.874 242.536C238.874 242.915 238.729 243.241 238.439 243.513C238.154 243.782 237.809 243.916 237.404 243.916ZM243.663 249.324V255H240.94V245.182H243.535V246.914H243.65C243.868 246.343 244.232 245.891 244.743 245.559C245.255 245.222 245.875 245.054 246.604 245.054C247.285 245.054 247.88 245.203 248.387 245.501C248.894 245.8 249.288 246.226 249.569 246.78C249.851 247.33 249.991 247.986 249.991 248.749V255H247.268V249.234C247.273 248.634 247.119 248.165 246.808 247.828C246.497 247.487 246.069 247.317 245.523 247.317C245.157 247.317 244.833 247.396 244.552 247.553C244.275 247.711 244.057 247.941 243.9 248.244C243.746 248.542 243.667 248.902 243.663 249.324ZM256.561 258.886C255.679 258.886 254.922 258.765 254.292 258.522C253.665 258.283 253.167 257.957 252.796 257.544C252.425 257.131 252.184 256.666 252.074 256.151L254.592 255.812C254.669 256.008 254.79 256.191 254.956 256.362C255.123 256.532 255.342 256.668 255.615 256.771C255.892 256.877 256.228 256.93 256.625 256.93C257.217 256.93 257.705 256.786 258.088 256.496C258.476 256.21 258.67 255.731 258.67 255.058V253.261H258.555C258.436 253.534 258.257 253.792 258.018 254.035C257.779 254.278 257.473 254.476 257.098 254.629C256.723 254.783 256.275 254.859 255.755 254.859C255.018 254.859 254.347 254.689 253.742 254.348C253.141 254.003 252.662 253.477 252.304 252.769C251.95 252.058 251.773 251.158 251.773 250.072C251.773 248.96 251.954 248.031 252.316 247.285C252.679 246.539 253.16 245.981 253.761 245.61C254.366 245.239 255.029 245.054 255.749 245.054C256.299 245.054 256.759 245.148 257.13 245.335C257.5 245.518 257.799 245.749 258.025 246.026C258.255 246.298 258.431 246.567 258.555 246.831H258.657V245.182H261.361V255.096C261.361 255.931 261.157 256.63 260.748 257.192C260.338 257.755 259.772 258.177 259.047 258.458C258.327 258.744 257.498 258.886 256.561 258.886ZM256.618 252.814C257.057 252.814 257.428 252.705 257.73 252.488C258.037 252.266 258.272 251.951 258.434 251.542C258.6 251.129 258.683 250.634 258.683 250.059C258.683 249.484 258.602 248.985 258.44 248.563C258.278 248.137 258.044 247.807 257.737 247.572C257.43 247.338 257.057 247.221 256.618 247.221C256.171 247.221 255.794 247.342 255.487 247.585C255.18 247.824 254.948 248.156 254.79 248.582C254.632 249.009 254.554 249.501 254.554 250.059C254.554 250.626 254.632 251.116 254.79 251.529C254.952 251.938 255.184 252.256 255.487 252.482C255.794 252.703 256.171 252.814 256.618 252.814Z" fill="black"/>
<rect x="81" y="272" width="369" height="21" rx="4" fill="#A9BAD1"/>
<rect x="81" y="308" width="191" height="21" rx="4" fill="#A9BAD1"/>
<rect x="292" y="308" width="158" height="21" rx="4" fill="#A9BAD1"/>
<rect x="56" y="384" width="419" height="142" rx="8" fill="#CCE2FF"/>
<path d="M93.6882 418.492H90.8885C90.8374 418.13 90.733 417.808 90.5753 417.527C90.4176 417.241 90.2152 416.999 89.968 416.798C89.7209 416.598 89.4354 416.445 89.1115 416.338C88.7919 416.232 88.4446 416.178 88.0696 416.178C87.392 416.178 86.8018 416.347 86.299 416.683C85.7962 417.016 85.4063 417.501 85.1293 418.141C84.8523 418.776 84.7138 419.547 84.7138 420.455C84.7138 421.388 84.8523 422.172 85.1293 422.807C85.4105 423.442 85.8026 423.921 86.3054 424.245C86.8082 424.569 87.3899 424.731 88.0504 424.731C88.4212 424.731 88.7642 424.682 89.0795 424.584C89.3991 424.486 89.6825 424.343 89.9297 424.156C90.1768 423.964 90.3814 423.732 90.5433 423.459C90.7095 423.186 90.8246 422.875 90.8885 422.526L93.6882 422.538C93.6158 423.139 93.4347 423.719 93.1449 424.277C92.8594 424.831 92.4737 425.327 91.9879 425.766C91.5064 426.201 90.9311 426.546 90.2621 426.802C89.5973 427.053 88.8452 427.179 88.0057 427.179C86.8381 427.179 85.794 426.915 84.8736 426.386C83.9574 425.858 83.233 425.093 82.7003 424.092C82.1719 423.09 81.9077 421.878 81.9077 420.455C81.9077 419.027 82.1761 417.812 82.7131 416.811C83.25 415.81 83.9787 415.047 84.8991 414.523C85.8196 413.994 86.8551 413.73 88.0057 413.73C88.7642 413.73 89.4673 413.837 90.1151 414.05C90.767 414.263 91.3445 414.574 91.8473 414.983C92.3501 415.388 92.7592 415.884 93.0746 416.472C93.3942 417.06 93.5987 417.734 93.6882 418.492ZM100.058 427.192C99.065 427.192 98.2063 426.981 97.4819 426.559C96.7617 426.133 96.2056 425.54 95.8136 424.782C95.4215 424.019 95.2255 423.135 95.2255 422.129C95.2255 421.115 95.4215 420.229 95.8136 419.47C96.2056 418.707 96.7617 418.115 97.4819 417.693C98.2063 417.267 99.065 417.054 100.058 417.054C101.051 417.054 101.907 417.267 102.627 417.693C103.352 418.115 103.91 418.707 104.302 419.47C104.694 420.229 104.89 421.115 104.89 422.129C104.89 423.135 104.694 424.019 104.302 424.782C103.91 425.54 103.352 426.133 102.627 426.559C101.907 426.981 101.051 427.192 100.058 427.192ZM100.071 425.082C100.522 425.082 100.9 424.955 101.202 424.699C101.505 424.439 101.733 424.085 101.886 423.638C102.044 423.19 102.123 422.681 102.123 422.11C102.123 421.539 102.044 421.03 101.886 420.582C101.733 420.135 101.505 419.781 101.202 419.521C100.9 419.261 100.522 419.131 100.071 419.131C99.6147 419.131 99.2312 419.261 98.9201 419.521C98.6133 419.781 98.381 420.135 98.2234 420.582C98.07 421.03 97.9933 421.539 97.9933 422.11C97.9933 422.681 98.07 423.19 98.2234 423.638C98.381 424.085 98.6133 424.439 98.9201 424.699C99.2312 424.955 99.6147 425.082 100.071 425.082ZM106.661 427V417.182H109.256V418.914H109.371C109.576 418.339 109.917 417.885 110.394 417.553C110.871 417.22 111.442 417.054 112.107 417.054C112.78 417.054 113.353 417.222 113.826 417.559C114.299 417.891 114.615 418.343 114.772 418.914H114.875C115.075 418.352 115.437 417.902 115.961 417.565C116.49 417.224 117.114 417.054 117.834 417.054C118.75 417.054 119.494 417.346 120.065 417.93C120.64 418.509 120.928 419.332 120.928 420.397V427H118.211V420.934C118.211 420.388 118.066 419.979 117.777 419.707C117.487 419.434 117.125 419.298 116.69 419.298C116.196 419.298 115.81 419.455 115.533 419.771C115.256 420.082 115.118 420.493 115.118 421.004V427H112.478V420.876C112.478 420.395 112.339 420.011 112.062 419.726C111.789 419.44 111.429 419.298 110.982 419.298C110.679 419.298 110.407 419.374 110.164 419.528C109.925 419.677 109.735 419.888 109.595 420.161C109.454 420.429 109.384 420.744 109.384 421.107V427H106.661ZM123.079 427V417.182H125.674V418.914H125.789C125.994 418.339 126.335 417.885 126.812 417.553C127.289 417.22 127.86 417.054 128.525 417.054C129.198 417.054 129.771 417.222 130.244 417.559C130.717 417.891 131.033 418.343 131.19 418.914H131.293C131.493 418.352 131.855 417.902 132.379 417.565C132.908 417.224 133.532 417.054 134.252 417.054C135.168 417.054 135.912 417.346 136.483 417.93C137.058 418.509 137.346 419.332 137.346 420.397V427H134.629V420.934C134.629 420.388 134.484 419.979 134.195 419.707C133.905 419.434 133.543 419.298 133.108 419.298C132.614 419.298 132.228 419.455 131.951 419.771C131.674 420.082 131.536 420.493 131.536 421.004V427H128.896V420.876C128.896 420.395 128.757 420.011 128.48 419.726C128.207 419.44 127.847 419.298 127.4 419.298C127.097 419.298 126.825 419.374 126.582 419.528C126.343 419.677 126.153 419.888 126.013 420.161C125.872 420.429 125.802 420.744 125.802 421.107V427H123.079ZM143.971 427.192C142.961 427.192 142.092 426.987 141.363 426.578C140.639 426.165 140.081 425.581 139.689 424.827C139.297 424.068 139.1 423.171 139.1 422.136C139.1 421.126 139.297 420.239 139.689 419.477C140.081 418.714 140.632 418.119 141.344 417.693C142.06 417.267 142.9 417.054 143.863 417.054C144.51 417.054 145.113 417.158 145.672 417.367C146.234 417.572 146.724 417.881 147.142 418.294C147.564 418.707 147.892 419.227 148.126 419.854C148.36 420.476 148.478 421.205 148.478 422.04V422.788H140.187V421.1H145.914C145.914 420.708 145.829 420.361 145.659 420.058C145.488 419.756 145.252 419.519 144.949 419.349C144.651 419.174 144.304 419.087 143.907 419.087C143.494 419.087 143.127 419.183 142.808 419.374C142.493 419.562 142.245 419.815 142.066 420.135C141.887 420.45 141.796 420.802 141.792 421.19V422.794C141.792 423.28 141.881 423.7 142.06 424.053C142.243 424.407 142.501 424.68 142.833 424.871C143.166 425.063 143.56 425.159 144.016 425.159C144.319 425.159 144.596 425.116 144.847 425.031C145.098 424.946 145.314 424.818 145.493 424.648C145.672 424.477 145.808 424.268 145.902 424.021L148.42 424.188C148.292 424.793 148.03 425.321 147.634 425.773C147.242 426.22 146.735 426.57 146.113 426.821C145.495 427.068 144.781 427.192 143.971 427.192ZM150.255 427V417.182H152.895V418.895H152.997C153.176 418.286 153.476 417.825 153.898 417.514C154.32 417.199 154.806 417.041 155.355 417.041C155.492 417.041 155.639 417.05 155.797 417.067C155.954 417.084 156.093 417.107 156.212 417.137V419.553C156.084 419.515 155.907 419.481 155.681 419.451C155.456 419.421 155.249 419.406 155.061 419.406C154.661 419.406 154.303 419.494 153.988 419.668C153.676 419.839 153.429 420.077 153.246 420.384C153.067 420.691 152.978 421.045 152.978 421.445V427H150.255ZM161.599 427.192C160.593 427.192 159.728 426.979 159.004 426.553C158.284 426.122 157.73 425.526 157.342 424.763C156.958 424 156.767 423.122 156.767 422.129C156.767 421.124 156.96 420.241 157.348 419.483C157.74 418.72 158.296 418.126 159.017 417.7C159.737 417.269 160.593 417.054 161.586 417.054C162.443 417.054 163.193 417.21 163.836 417.521C164.48 417.832 164.989 418.268 165.364 418.831C165.739 419.393 165.945 420.054 165.984 420.812H163.414C163.342 420.322 163.15 419.928 162.839 419.63C162.532 419.327 162.129 419.176 161.631 419.176C161.209 419.176 160.84 419.291 160.525 419.521C160.214 419.747 159.971 420.077 159.796 420.512C159.622 420.947 159.534 421.473 159.534 422.091C159.534 422.717 159.619 423.25 159.79 423.689C159.965 424.128 160.21 424.462 160.525 424.692C160.84 424.923 161.209 425.038 161.631 425.038C161.942 425.038 162.221 424.974 162.468 424.846C162.72 424.718 162.926 424.533 163.088 424.29C163.254 424.043 163.363 423.746 163.414 423.401H165.984C165.941 424.151 165.737 424.812 165.37 425.383C165.008 425.95 164.507 426.393 163.868 426.712C163.229 427.032 162.472 427.192 161.599 427.192ZM167.727 427V417.182H170.45V427H167.727ZM169.095 415.916C168.69 415.916 168.343 415.782 168.053 415.513C167.768 415.241 167.625 414.915 167.625 414.536C167.625 414.161 167.768 413.839 168.053 413.57C168.343 413.298 168.69 413.161 169.095 413.161C169.5 413.161 169.845 413.298 170.131 413.57C170.42 413.839 170.565 414.161 170.565 414.536C170.565 414.915 170.42 415.241 170.131 415.513C169.845 415.782 169.5 415.916 169.095 415.916ZM175.431 427.185C174.805 427.185 174.247 427.077 173.757 426.859C173.267 426.638 172.879 426.312 172.593 425.881C172.312 425.447 172.171 424.906 172.171 424.258C172.171 423.712 172.271 423.254 172.472 422.884C172.672 422.513 172.945 422.214 173.29 421.989C173.635 421.763 174.027 421.592 174.466 421.477C174.909 421.362 175.374 421.281 175.86 421.234C176.431 421.175 176.891 421.119 177.24 421.068C177.59 421.013 177.843 420.932 178.001 420.825C178.159 420.719 178.237 420.561 178.237 420.352V420.314C178.237 419.909 178.11 419.596 177.854 419.374C177.602 419.153 177.244 419.042 176.78 419.042C176.29 419.042 175.9 419.151 175.61 419.368C175.32 419.581 175.129 419.849 175.035 420.173L172.517 419.969C172.644 419.372 172.896 418.857 173.271 418.422C173.646 417.983 174.129 417.646 174.722 417.412C175.318 417.173 176.009 417.054 176.793 417.054C177.338 417.054 177.86 417.118 178.359 417.246C178.862 417.374 179.307 417.572 179.695 417.84C180.087 418.109 180.396 418.454 180.622 418.876C180.847 419.293 180.96 419.794 180.96 420.378V427H178.378V425.638H178.301C178.144 425.945 177.933 426.216 177.669 426.45C177.404 426.68 177.087 426.862 176.716 426.994C176.345 427.121 175.917 427.185 175.431 427.185ZM176.211 425.306C176.612 425.306 176.965 425.227 177.272 425.07C177.579 424.908 177.82 424.69 177.994 424.418C178.169 424.145 178.257 423.836 178.257 423.491V422.449C178.171 422.504 178.054 422.555 177.905 422.602C177.76 422.645 177.596 422.685 177.413 422.724C177.23 422.758 177.046 422.79 176.863 422.82C176.68 422.845 176.514 422.869 176.365 422.89C176.045 422.937 175.766 423.011 175.527 423.114C175.289 423.216 175.103 423.354 174.971 423.529C174.839 423.7 174.773 423.913 174.773 424.168C174.773 424.539 174.907 424.822 175.176 425.018C175.448 425.21 175.794 425.306 176.211 425.306ZM185.796 413.909V427H183.073V413.909H185.796ZM192.194 427V413.909H194.917V418.831H195.001C195.12 418.567 195.292 418.298 195.518 418.026C195.748 417.749 196.047 417.518 196.413 417.335C196.784 417.148 197.244 417.054 197.794 417.054C198.51 417.054 199.17 417.241 199.775 417.616C200.381 417.987 200.864 418.548 201.226 419.298C201.589 420.043 201.77 420.979 201.77 422.104C201.77 423.199 201.593 424.124 201.239 424.878C200.89 425.628 200.412 426.197 199.807 426.585C199.206 426.968 198.533 427.16 197.787 427.16C197.259 427.16 196.809 427.072 196.439 426.898C196.072 426.723 195.772 426.504 195.537 426.239C195.303 425.971 195.124 425.7 195.001 425.428H194.879V427H192.194ZM194.86 422.091C194.86 422.675 194.941 423.184 195.103 423.619C195.265 424.053 195.499 424.392 195.806 424.635C196.113 424.874 196.486 424.993 196.925 424.993C197.368 424.993 197.743 424.871 198.05 424.629C198.356 424.381 198.589 424.04 198.746 423.606C198.908 423.167 198.989 422.662 198.989 422.091C198.989 421.524 198.91 421.026 198.753 420.595C198.595 420.165 198.363 419.828 198.056 419.585C197.749 419.342 197.372 419.221 196.925 419.221C196.481 419.221 196.106 419.338 195.8 419.572C195.497 419.807 195.265 420.139 195.103 420.57C194.941 421 194.86 421.507 194.86 422.091ZM209.883 422.82V417.182H212.606V427H209.991V425.217H209.889C209.668 425.792 209.299 426.254 208.783 426.604C208.272 426.953 207.648 427.128 206.911 427.128C206.254 427.128 205.677 426.979 205.178 426.68C204.68 426.382 204.29 425.958 204.009 425.408C203.732 424.859 203.591 424.2 203.587 423.433V417.182H206.31V422.947C206.314 423.527 206.469 423.985 206.776 424.322C207.083 424.658 207.494 424.827 208.01 424.827C208.338 424.827 208.645 424.752 208.93 424.603C209.216 424.45 209.446 424.224 209.621 423.925C209.8 423.627 209.887 423.259 209.883 422.82ZM214.784 427V417.182H217.507V427H214.784ZM216.152 415.916C215.747 415.916 215.4 415.782 215.11 415.513C214.824 415.241 214.682 414.915 214.682 414.536C214.682 414.161 214.824 413.839 215.11 413.57C215.4 413.298 215.747 413.161 216.152 413.161C216.557 413.161 216.902 413.298 217.187 413.57C217.477 413.839 217.622 414.161 217.622 414.536C217.622 414.915 217.477 415.241 217.187 415.513C216.902 415.782 216.557 415.916 216.152 415.916ZM222.411 413.909V427H219.688V413.909H222.411ZM228.21 427.16C227.465 427.16 226.789 426.968 226.184 426.585C225.583 426.197 225.106 425.628 224.752 424.878C224.403 424.124 224.228 423.199 224.228 422.104C224.228 420.979 224.409 420.043 224.771 419.298C225.134 418.548 225.615 417.987 226.216 417.616C226.821 417.241 227.484 417.054 228.204 417.054C228.754 417.054 229.212 417.148 229.578 417.335C229.949 417.518 230.247 417.749 230.473 418.026C230.703 418.298 230.878 418.567 230.997 418.831H231.08V413.909H233.797V427H231.112V425.428H230.997C230.869 425.7 230.688 425.971 230.454 426.239C230.224 426.504 229.923 426.723 229.553 426.898C229.186 427.072 228.739 427.16 228.21 427.16ZM229.073 424.993C229.512 424.993 229.883 424.874 230.186 424.635C230.492 424.392 230.727 424.053 230.889 423.619C231.055 423.184 231.138 422.675 231.138 422.091C231.138 421.507 231.057 421 230.895 420.57C230.733 420.139 230.499 419.807 230.192 419.572C229.885 419.338 229.512 419.221 229.073 419.221C228.626 419.221 228.249 419.342 227.942 419.585C227.635 419.828 227.403 420.165 227.245 420.595C227.088 421.026 227.009 421.524 227.009 422.091C227.009 422.662 227.088 423.167 227.245 423.606C227.407 424.04 227.639 424.381 227.942 424.629C228.249 424.871 228.626 424.993 229.073 424.993ZM236.036 427V417.182H238.759V427H236.036ZM237.404 415.916C236.999 415.916 236.652 415.782 236.362 415.513C236.076 415.241 235.934 414.915 235.934 414.536C235.934 414.161 236.076 413.839 236.362 413.57C236.652 413.298 236.999 413.161 237.404 413.161C237.809 413.161 238.154 413.298 238.439 413.57C238.729 413.839 238.874 414.161 238.874 414.536C238.874 414.915 238.729 415.241 238.439 415.513C238.154 415.782 237.809 415.916 237.404 415.916ZM243.663 421.324V427H240.94V417.182H243.535V418.914H243.65C243.868 418.343 244.232 417.891 244.743 417.559C245.255 417.222 245.875 417.054 246.604 417.054C247.285 417.054 247.88 417.203 248.387 417.501C248.894 417.8 249.288 418.226 249.569 418.78C249.851 419.33 249.991 419.986 249.991 420.749V427H247.268V421.234C247.273 420.634 247.119 420.165 246.808 419.828C246.497 419.487 246.069 419.317 245.523 419.317C245.157 419.317 244.833 419.396 244.552 419.553C244.275 419.711 244.057 419.941 243.9 420.244C243.746 420.542 243.667 420.902 243.663 421.324ZM256.561 430.886C255.679 430.886 254.922 430.765 254.292 430.522C253.665 430.283 253.167 429.957 252.796 429.544C252.425 429.131 252.184 428.666 252.074 428.151L254.592 427.812C254.669 428.008 254.79 428.191 254.956 428.362C255.123 428.532 255.342 428.668 255.615 428.771C255.892 428.877 256.228 428.93 256.625 428.93C257.217 428.93 257.705 428.786 258.088 428.496C258.476 428.21 258.67 427.731 258.67 427.058V425.261H258.555C258.436 425.534 258.257 425.792 258.018 426.035C257.779 426.278 257.473 426.476 257.098 426.629C256.723 426.783 256.275 426.859 255.755 426.859C255.018 426.859 254.347 426.689 253.742 426.348C253.141 426.003 252.662 425.477 252.304 424.769C251.95 424.058 251.773 423.158 251.773 422.072C251.773 420.96 251.954 420.031 252.316 419.285C252.679 418.539 253.16 417.981 253.761 417.61C254.366 417.239 255.029 417.054 255.749 417.054C256.299 417.054 256.759 417.148 257.13 417.335C257.5 417.518 257.799 417.749 258.025 418.026C258.255 418.298 258.431 418.567 258.555 418.831H258.657V417.182H261.361V427.096C261.361 427.931 261.157 428.63 260.748 429.192C260.338 429.755 259.772 430.177 259.047 430.458C258.327 430.744 257.498 430.886 256.561 430.886ZM256.618 424.814C257.057 424.814 257.428 424.705 257.73 424.488C258.037 424.266 258.272 423.951 258.434 423.542C258.6 423.129 258.683 422.634 258.683 422.059C258.683 421.484 258.602 420.985 258.44 420.563C258.278 420.137 258.044 419.807 257.737 419.572C257.43 419.338 257.057 419.221 256.618 419.221C256.171 419.221 255.794 419.342 255.487 419.585C255.18 419.824 254.948 420.156 254.79 420.582C254.632 421.009 254.554 421.501 254.554 422.059C254.554 422.626 254.632 423.116 254.79 423.529C254.952 423.938 255.184 424.256 255.487 424.482C255.794 424.703 256.171 424.814 256.618 424.814Z" fill="black"/>
<rect x="81" y="444" width="369" height="21" rx="4" fill="#A9BAD1"/>
<rect x="81" y="480" width="191" height="21" rx="4" fill="#A9BAD1"/>
<rect x="292" y="480" width="158" height="21" rx="4" fill="#A9BAD1"/>
<path d="M397.918 562.656H394.185C394.116 562.173 393.977 561.744 393.767 561.369C393.557 560.989 393.287 560.665 392.957 560.398C392.628 560.131 392.247 559.926 391.815 559.784C391.389 559.642 390.926 559.571 390.426 559.571C389.523 559.571 388.736 559.795 388.065 560.244C387.395 560.687 386.875 561.335 386.506 562.188C386.136 563.034 385.952 564.062 385.952 565.273C385.952 566.517 386.136 567.562 386.506 568.409C386.881 569.256 387.403 569.895 388.074 570.327C388.744 570.759 389.52 570.974 390.401 570.974C390.895 570.974 391.352 570.909 391.773 570.778C392.199 570.648 392.577 570.457 392.906 570.207C393.236 569.952 393.509 569.642 393.724 569.278C393.946 568.915 394.099 568.5 394.185 568.034L397.918 568.051C397.821 568.852 397.58 569.625 397.193 570.369C396.813 571.108 396.298 571.77 395.651 572.355C395.009 572.935 394.241 573.395 393.349 573.736C392.463 574.071 391.46 574.239 390.341 574.239C388.784 574.239 387.392 573.886 386.165 573.182C384.943 572.477 383.977 571.457 383.267 570.122C382.562 568.787 382.21 567.17 382.21 565.273C382.21 563.369 382.568 561.75 383.284 560.415C384 559.08 384.972 558.062 386.199 557.364C387.426 556.659 388.807 556.307 390.341 556.307C391.352 556.307 392.29 556.449 393.153 556.733C394.023 557.017 394.793 557.432 395.463 557.977C396.134 558.517 396.679 559.179 397.099 559.963C397.526 560.747 397.798 561.645 397.918 562.656ZM406.411 574.256C405.087 574.256 403.942 573.974 402.976 573.412C402.016 572.844 401.274 572.054 400.751 571.043C400.229 570.026 399.967 568.847 399.967 567.506C399.967 566.153 400.229 564.972 400.751 563.96C401.274 562.943 402.016 562.153 402.976 561.591C403.942 561.023 405.087 560.739 406.411 560.739C407.734 560.739 408.876 561.023 409.837 561.591C410.803 562.153 411.547 562.943 412.07 563.96C412.592 564.972 412.854 566.153 412.854 567.506C412.854 568.847 412.592 570.026 412.07 571.043C411.547 572.054 410.803 572.844 409.837 573.412C408.876 573.974 407.734 574.256 406.411 574.256ZM406.428 571.443C407.03 571.443 407.533 571.273 407.936 570.932C408.339 570.585 408.643 570.114 408.848 569.517C409.058 568.92 409.163 568.241 409.163 567.48C409.163 566.719 409.058 566.04 408.848 565.443C408.643 564.847 408.339 564.375 407.936 564.028C407.533 563.682 407.03 563.509 406.428 563.509C405.82 563.509 405.308 563.682 404.893 564.028C404.484 564.375 404.175 564.847 403.964 565.443C403.76 566.04 403.658 566.719 403.658 567.48C403.658 568.241 403.76 568.92 403.964 569.517C404.175 570.114 404.484 570.585 404.893 570.932C405.308 571.273 405.82 571.443 406.428 571.443ZM418.845 566.432V574H415.214V560.909H418.675V563.219H418.828C419.118 562.457 419.604 561.855 420.286 561.412C420.967 560.963 421.794 560.739 422.766 560.739C423.675 560.739 424.467 560.938 425.143 561.335C425.82 561.733 426.345 562.301 426.72 563.04C427.095 563.773 427.283 564.648 427.283 565.665V574H423.652V566.312C423.658 565.511 423.453 564.886 423.038 564.438C422.624 563.983 422.053 563.756 421.325 563.756C420.837 563.756 420.405 563.861 420.03 564.071C419.661 564.281 419.371 564.588 419.161 564.991C418.956 565.389 418.851 565.869 418.845 566.432ZM437.107 560.909V563.636H429.224V560.909H437.107ZM431.013 557.773H434.644V569.977C434.644 570.312 434.695 570.574 434.798 570.761C434.9 570.943 435.042 571.071 435.224 571.145C435.411 571.219 435.627 571.256 435.871 571.256C436.042 571.256 436.212 571.241 436.383 571.213C436.553 571.179 436.684 571.153 436.775 571.136L437.346 573.838C437.164 573.895 436.908 573.96 436.579 574.034C436.249 574.114 435.849 574.162 435.377 574.179C434.502 574.213 433.735 574.097 433.076 573.83C432.423 573.562 431.914 573.148 431.55 572.585C431.187 572.023 431.008 571.312 431.013 570.455V557.773ZM443.205 574.247C442.37 574.247 441.626 574.102 440.972 573.812C440.319 573.517 439.802 573.082 439.421 572.509C439.046 571.929 438.859 571.207 438.859 570.344C438.859 569.616 438.992 569.006 439.259 568.511C439.526 568.017 439.89 567.619 440.35 567.318C440.81 567.017 441.333 566.79 441.918 566.636C442.509 566.483 443.129 566.375 443.776 566.312C444.538 566.233 445.151 566.159 445.617 566.091C446.083 566.017 446.421 565.909 446.631 565.767C446.842 565.625 446.947 565.415 446.947 565.136V565.085C446.947 564.545 446.776 564.128 446.435 563.832C446.1 563.537 445.623 563.389 445.004 563.389C444.35 563.389 443.83 563.534 443.444 563.824C443.058 564.108 442.802 564.466 442.677 564.898L439.319 564.625C439.489 563.83 439.825 563.142 440.325 562.562C440.825 561.977 441.469 561.528 442.259 561.216C443.055 560.898 443.975 560.739 445.021 560.739C445.748 560.739 446.444 560.824 447.109 560.994C447.779 561.165 448.373 561.429 448.89 561.787C449.413 562.145 449.825 562.605 450.126 563.168C450.427 563.724 450.577 564.392 450.577 565.17V574H447.134V572.185H447.032C446.822 572.594 446.54 572.955 446.188 573.267C445.836 573.574 445.413 573.815 444.918 573.991C444.424 574.162 443.853 574.247 443.205 574.247ZM444.245 571.741C444.779 571.741 445.251 571.636 445.66 571.426C446.069 571.21 446.39 570.92 446.623 570.557C446.856 570.193 446.972 569.781 446.972 569.321V567.932C446.859 568.006 446.702 568.074 446.504 568.136C446.31 568.193 446.092 568.247 445.847 568.298C445.603 568.344 445.359 568.386 445.114 568.426C444.87 568.46 444.648 568.491 444.45 568.52C444.023 568.582 443.651 568.682 443.333 568.818C443.015 568.955 442.768 569.139 442.592 569.372C442.415 569.599 442.327 569.884 442.327 570.224C442.327 570.719 442.506 571.097 442.864 571.358C443.228 571.614 443.688 571.741 444.245 571.741ZM459.309 574.256C457.968 574.256 456.815 573.972 455.849 573.403C454.888 572.83 454.15 572.034 453.633 571.017C453.121 570 452.866 568.83 452.866 567.506C452.866 566.165 453.124 564.989 453.641 563.977C454.164 562.96 454.906 562.168 455.866 561.599C456.826 561.026 457.968 560.739 459.292 560.739C460.434 560.739 461.434 560.946 462.292 561.361C463.15 561.776 463.829 562.358 464.329 563.108C464.829 563.858 465.104 564.739 465.156 565.75H461.729C461.633 565.097 461.377 564.571 460.962 564.173C460.553 563.77 460.016 563.568 459.352 563.568C458.789 563.568 458.298 563.722 457.877 564.028C457.462 564.33 457.138 564.77 456.906 565.349C456.673 565.929 456.556 566.631 456.556 567.455C456.556 568.29 456.67 569 456.897 569.585C457.13 570.17 457.457 570.616 457.877 570.923C458.298 571.23 458.789 571.384 459.352 571.384C459.766 571.384 460.138 571.298 460.468 571.128C460.803 570.957 461.079 570.71 461.295 570.386C461.516 570.057 461.661 569.662 461.729 569.202H465.156C465.099 570.202 464.826 571.082 464.337 571.844C463.854 572.599 463.187 573.19 462.335 573.616C461.482 574.043 460.474 574.256 459.309 574.256ZM474.443 560.909V563.636H466.56V560.909H474.443ZM468.349 557.773H471.98V569.977C471.98 570.312 472.031 570.574 472.134 570.761C472.236 570.943 472.378 571.071 472.56 571.145C472.747 571.219 472.963 571.256 473.207 571.256C473.378 571.256 473.548 571.241 473.719 571.213C473.889 571.179 474.02 571.153 474.111 571.136L474.682 573.838C474.5 573.895 474.244 573.96 473.915 574.034C473.585 574.114 473.185 574.162 472.713 574.179C471.838 574.213 471.071 574.097 470.412 573.83C469.759 573.562 469.25 573.148 468.886 572.585C468.523 572.023 468.344 571.312 468.349 570.455V557.773Z" fill="white"/>
</g>
<defs>
<filter id="filter0_d_2447_342" x="0" y="0" width="532" height="663" filterUnits="userSpaceOnUse" color-interpolation-filters="sRGB">
<feFlood flood-opacity="0" result="BackgroundImageFix"/>
<feColorMatrix in="SourceAlpha" type="matrix" values="0 0 0 0 0 0 0 0 0 0 0 0 0 0 0 0 0 0 127 0" result="hardAlpha"/>
<feOffset dy="16"/>
<feGaussianBlur stdDeviation="8"/>
<feComposite in2="hardAlpha" operator="out"/>
<feColorMatrix type="matrix" values="0 0 0 0 0 0 0 0 0 0 0 0 0 0 0 0 0 0 0.25 0"/>
<feBlend mode="normal" in2="BackgroundImageFix" result="effect1_dropShadow_2447_342"/>
<feBlend mode="normal" in="SourceGraphic" in2="effect1_dropShadow_2447_342" result="shape"/>
</filter>
</defs>
</svg>
