<svg width="360" height="711" viewBox="0 0 360 711" fill="none" xmlns="http://www.w3.org/2000/svg">
<path d="M355.295 168.892V61.915C355.295 27.7203 327.574 8.48475e-09 293.38 8.48475e-09H66.7298C32.5351 -0.000559992 4.81433 27.7193 4.81378 61.914V648.798C4.81378 682.993 32.5341 710.713 66.7288 710.713H293.377C327.571 710.713 355.292 682.993 355.292 648.798V245.04C357.446 245.04 359.192 243.294 359.192 241.14L359.195 172.792C359.195 170.638 357.449 168.892 355.295 168.892Z" fill="#3F3D56"/>
<path d="M342.215 56.951V652.126C306.031 649.903 270.208 691.392 295.273 699.078H63.973C38.0371 699.082 17.0077 678.062 17 652.126V56.951C17.0077 31.0161 38.0361 9.99668 63.971 10H81.029C76.3837 21.4236 113.875 25.1403 116.749 25.1439H235.208C247.54 25.1283 277.292 12.6624 276.209 10H295.264C321.189 10.0044 342.206 31.017 342.215 56.942L342.215 56.951Z" fill="#CCE2FF"/>
<path d="M2.99089 181.996C1.34138 181.996 0 183.337 0 184.986V208.914C0 210.563 1.34137 211.904 2.99089 211.904C4.64041 211.904 5.98178 210.563 5.98178 208.914V184.986C5.98178 183.337 4.64041 181.996 2.99089 181.996Z" fill="#3F3D56"/>
<path d="M2.99089 253.777C1.34138 253.777 0 255.118 0 256.768V303.126C0 304.776 1.34137 306.117 2.99089 306.117C4.64041 306.117 5.98178 304.776 5.98178 303.126V256.768C5.98178 255.118 4.64041 253.777 2.99089 253.777Z" fill="#3F3D56"/>
<path d="M2.99089 319.576C1.34138 319.576 0 320.918 0 322.567V368.926C0 370.576 1.34137 371.917 2.99089 371.917C4.64041 371.917 5.98178 370.576 5.98178 368.926V322.567C5.98178 320.918 4.64041 319.576 2.99089 319.576Z" fill="#3F3D56"/>
</svg>
