<svg width="20" height="32" viewBox="0 0 20 32" fill="none" xmlns="http://www.w3.org/2000/svg">
<path d="M7.7 20.24C6.28667 20.24 5.07333 19.94 4.06 19.34C3.04667 18.7267 2.26667 17.88 1.72 16.8C1.17333 15.7067 0.9 14.4467 0.9 13.02C0.9 11.5933 1.17333 10.3333 1.72 9.24C2.26667 8.14667 3.04667 7.29333 4.06 6.68C5.07333 6.06667 6.28667 5.76 7.7 5.76C9.38 5.76 10.7533 6.18 11.82 7.02C12.9 7.84667 13.5733 9.01333 13.84 10.52H11.02C10.8467 9.76 10.4733 9.16667 9.9 8.74C9.34 8.3 8.59333 8.08 7.66 8.08C6.36667 8.08 5.35333 8.52 4.62 9.4C3.88667 10.28 3.52 11.4867 3.52 13.02C3.52 14.5533 3.88667 15.76 4.62 16.64C5.35333 17.5067 6.36667 17.94 7.66 17.94C8.59333 17.94 9.34 17.74 9.9 17.34C10.4733 16.9267 10.8467 16.36 11.02 15.64H13.84C13.5733 17.08 12.9 18.2067 11.82 19.02C10.7533 19.8333 9.38 20.24 7.7 20.24Z" fill="white"/>
<path d="M12.3 11.76C13.7133 11.76 14.9267 12.06 15.94 12.66C16.9533 13.2733 17.7333 14.12 18.28 15.2C18.8267 16.2933 19.1 17.5533 19.1 18.98C19.1 20.4067 18.8267 21.6667 18.28 22.76C17.7333 23.8533 16.9533 24.7067 15.94 25.32C14.9267 25.9333 13.7133 26.24 12.3 26.24C10.62 26.24 9.24667 25.82 8.18 24.98C7.1 24.1533 6.42667 22.9867 6.16 21.48H8.98C9.15333 22.24 9.52667 22.8333 10.1 23.26C10.66 23.7 11.4067 23.92 12.34 23.92C13.6333 23.92 14.6467 23.48 15.38 22.6C16.1133 21.72 16.48 20.5133 16.48 18.98C16.48 17.4467 16.1133 16.24 15.38 15.36C14.6467 14.4933 13.6333 14.06 12.34 14.06C11.4067 14.06 10.66 14.26 10.1 14.66C9.52667 15.0733 9.15333 15.64 8.98 16.36H6.16C6.42667 14.92 7.1 13.7933 8.18 12.98C9.24667 12.1667 10.62 11.76 12.3 11.76Z" fill="#006EFF"/>
</svg>
