<svg width="419" height="142" viewBox="0 0 419 142" fill="none" xmlns="http://www.w3.org/2000/svg">
<rect width="419" height="142" rx="8" fill="#CCE2FF"/>
<path d="M33.2393 33.674C33.1882 33.1584 32.9688 32.7578 32.581 32.4723C32.1932 32.1868 31.6669 32.044 31.0021 32.044C30.5504 32.044 30.169 32.108 29.858 32.2358C29.5469 32.3594 29.3082 32.532 29.142 32.7536C28.9801 32.9751 28.8991 33.2266 28.8991 33.5078C28.8906 33.7422 28.9396 33.9467 29.0462 34.1214C29.157 34.2962 29.3082 34.4474 29.5 34.5753C29.6918 34.6989 29.9134 34.8075 30.1648 34.9013C30.4162 34.9908 30.6847 35.0675 30.9702 35.1314L32.1463 35.4126C32.7173 35.5405 33.2415 35.7109 33.7188 35.924C34.196 36.1371 34.6094 36.3991 34.9588 36.7102C35.3082 37.0213 35.5788 37.3878 35.7706 37.8097C35.9666 38.2315 36.0668 38.7152 36.071 39.2607C36.0668 40.0618 35.8622 40.7564 35.4574 41.3445C35.0568 41.9283 34.4773 42.3821 33.7188 42.706C32.9645 43.0256 32.0547 43.1854 30.9893 43.1854C29.9325 43.1854 29.0121 43.0234 28.228 42.6996C27.4482 42.3757 26.8388 41.8963 26.3999 41.2614C25.9652 40.6222 25.7372 39.8317 25.7159 38.8899H28.3942C28.424 39.3288 28.5497 39.6953 28.7713 39.9893C28.9972 40.2791 29.2976 40.4986 29.6726 40.6477C30.0518 40.7926 30.4801 40.8651 30.9574 40.8651C31.4261 40.8651 31.8331 40.7969 32.1783 40.6605C32.5277 40.5241 32.7983 40.3345 32.9901 40.0916C33.1818 39.8487 33.2777 39.5696 33.2777 39.2543C33.2777 38.9602 33.1903 38.7131 33.0156 38.5128C32.8452 38.3125 32.5938 38.142 32.2614 38.0014C31.9332 37.8608 31.5305 37.733 31.0533 37.6179L29.6278 37.2599C28.5241 36.9915 27.6527 36.5717 27.0135 36.0007C26.3743 35.4297 26.0568 34.6605 26.0611 33.6932C26.0568 32.9006 26.2678 32.2081 26.6939 31.6158C27.1243 31.0234 27.7145 30.5611 28.4645 30.2287C29.2145 29.8963 30.0668 29.7301 31.0213 29.7301C31.9929 29.7301 32.8409 29.8963 33.5653 30.2287C34.294 30.5611 34.8608 31.0234 35.2656 31.6158C35.6705 32.2081 35.8793 32.8942 35.892 33.674H33.2393ZM40.6046 37.3239V43H37.8816V29.9091H40.5279V34.9141H40.6429C40.8645 34.3345 41.2225 33.8807 41.7168 33.5526C42.2111 33.2202 42.8311 33.054 43.5769 33.054C44.2587 33.054 44.8532 33.2031 45.3603 33.5014C45.8716 33.7955 46.2679 34.2195 46.5492 34.7734C46.8347 35.3232 46.9753 35.9815 46.9711 36.7486V43H44.248V37.2344C44.2523 36.6293 44.0989 36.1584 43.7878 35.8217C43.481 35.4851 43.0506 35.3168 42.4966 35.3168C42.1259 35.3168 41.7978 35.3956 41.5123 35.5533C41.231 35.7109 41.0094 35.9411 40.8475 36.2436C40.6898 36.5419 40.6088 36.902 40.6046 37.3239ZM51.9137 43.1854C51.2873 43.1854 50.729 43.0767 50.239 42.8594C49.7489 42.6378 49.3612 42.3118 49.0756 41.8814C48.7944 41.4467 48.6538 40.9055 48.6538 40.2578C48.6538 39.7124 48.7539 39.2543 48.9542 38.8835C49.1545 38.5128 49.4272 38.2145 49.7724 37.9886C50.1175 37.7628 50.5096 37.5923 50.9485 37.4773C51.3917 37.3622 51.8562 37.2812 52.342 37.2344C52.913 37.1747 53.3732 37.1193 53.7227 37.0682C54.0721 37.0128 54.3256 36.9318 54.4833 36.8253C54.641 36.7187 54.7198 36.5611 54.7198 36.3523V36.3139C54.7198 35.9091 54.592 35.5959 54.3363 35.3743C54.0849 35.1527 53.7269 35.0419 53.2624 35.0419C52.7724 35.0419 52.3825 35.1506 52.0927 35.3679C51.8029 35.581 51.6112 35.8494 51.5174 36.1733L48.9989 35.9688C49.1268 35.3722 49.3782 34.8565 49.7532 34.4219C50.1282 33.983 50.6119 33.6463 51.2042 33.4119C51.8008 33.1733 52.4911 33.054 53.2752 33.054C53.8207 33.054 54.3427 33.1179 54.8413 33.2457C55.3441 33.3736 55.7894 33.5717 56.1772 33.8402C56.5692 34.1087 56.8782 34.4538 57.104 34.8757C57.3299 35.2933 57.4428 35.794 57.4428 36.3778V43H54.8604V41.6385H54.7837C54.6261 41.9453 54.4151 42.2159 54.1509 42.4503C53.8867 42.6804 53.5692 42.8615 53.1985 42.9936C52.8278 43.1214 52.3995 43.1854 51.9137 43.1854ZM52.6935 41.3061C53.0941 41.3061 53.4478 41.2273 53.7546 41.0696C54.0614 40.9077 54.3022 40.6903 54.4769 40.4176C54.6516 40.1449 54.739 39.8359 54.739 39.4908V38.4489C54.6538 38.5043 54.5366 38.5554 54.3874 38.6023C54.2425 38.6449 54.0785 38.6854 53.8952 38.7237C53.712 38.7578 53.5288 38.7898 53.3455 38.8196C53.1623 38.8452 52.9961 38.8686 52.8469 38.8899C52.5273 38.9368 52.2482 39.0114 52.0096 39.1136C51.771 39.2159 51.5856 39.3544 51.4535 39.5291C51.3214 39.6996 51.2553 39.9126 51.2553 40.1683C51.2553 40.5391 51.3896 40.8224 51.658 41.0185C51.9308 41.2102 52.2759 41.3061 52.6935 41.3061ZM59.5554 43V33.1818H62.1953V34.8949H62.2976C62.4766 34.2855 62.777 33.8253 63.1989 33.5142C63.6207 33.1989 64.1065 33.0412 64.6562 33.0412C64.7926 33.0412 64.9396 33.0497 65.0973 33.0668C65.255 33.0838 65.3935 33.1072 65.5128 33.1371V35.5533C65.3849 35.5149 65.2081 35.4808 64.9822 35.451C64.7564 35.4212 64.5497 35.4062 64.3622 35.4062C63.9616 35.4062 63.6037 35.4936 63.2884 35.6683C62.9773 35.8388 62.7301 36.0774 62.5469 36.3842C62.3679 36.6911 62.2784 37.0447 62.2784 37.4453V43H59.5554ZM70.938 43.1918C69.9281 43.1918 69.0588 42.9872 68.3301 42.5781C67.6056 42.1648 67.0474 41.581 66.6554 40.8267C66.2633 40.0682 66.0673 39.1712 66.0673 38.1357C66.0673 37.1257 66.2633 36.2393 66.6554 35.4766C67.0474 34.7138 67.5993 34.1193 68.3109 33.6932C69.0268 33.267 69.8663 33.054 70.8294 33.054C71.4771 33.054 72.0801 33.1584 72.6383 33.3672C73.2008 33.5717 73.6909 33.8807 74.1085 34.294C74.5304 34.7074 74.8585 35.2273 75.0929 35.8537C75.3272 36.4759 75.4444 37.2045 75.4444 38.0398V38.7876H67.1539V37.1001H72.8812C72.8812 36.7081 72.796 36.3608 72.6255 36.0582C72.4551 35.7557 72.2186 35.5192 71.916 35.3487C71.6177 35.174 71.2704 35.0866 70.8741 35.0866C70.4608 35.0866 70.0943 35.1825 69.7747 35.3743C69.4593 35.5618 69.2122 35.8153 69.0332 36.1349C68.8542 36.4503 68.7626 36.8018 68.7583 37.1896V38.794C68.7583 39.2798 68.8478 39.6996 69.0268 40.0533C69.21 40.407 69.4679 40.6797 69.8002 40.8714C70.1326 41.0632 70.5268 41.1591 70.9828 41.1591C71.2853 41.1591 71.5623 41.1165 71.8137 41.0312C72.0652 40.946 72.2804 40.8182 72.4593 40.6477C72.6383 40.4773 72.7747 40.2685 72.8684 40.0213L75.3869 40.1875C75.2591 40.7926 74.997 41.321 74.6007 41.7727C74.2086 42.2202 73.7015 42.5696 73.0794 42.821C72.4615 43.0682 71.7477 43.1918 70.938 43.1918ZM80.8393 43.1598C80.0936 43.1598 79.4181 42.968 78.813 42.5845C78.2122 42.1967 77.7349 41.6278 77.3812 40.8778C77.0318 40.1236 76.8571 39.1989 76.8571 38.1037C76.8571 36.9787 77.0382 36.0433 77.4004 35.2976C77.7626 34.5476 78.2441 33.9872 78.845 33.6165C79.4501 33.2415 80.1127 33.054 80.8329 33.054C81.3826 33.054 81.8407 33.1477 82.2072 33.3352C82.5779 33.5185 82.8762 33.7486 83.1021 34.0256C83.3322 34.2983 83.5069 34.5668 83.6262 34.831H83.7093V29.9091H86.426V43H83.7413V41.4276H83.6262C83.4984 41.7003 83.3173 41.9709 83.0829 42.2393C82.8528 42.5036 82.5524 42.723 82.1816 42.8977C81.8152 43.0724 81.3677 43.1598 80.8393 43.1598ZM81.7022 40.9929C82.1412 40.9929 82.5119 40.8736 82.8145 40.6349C83.1213 40.392 83.3556 40.0533 83.5176 39.6186C83.6838 39.1839 83.7669 38.6747 83.7669 38.0909C83.7669 37.5071 83.6859 37 83.524 36.5696C83.362 36.1392 83.1277 35.8068 82.8208 35.5724C82.514 35.3381 82.1412 35.2209 81.7022 35.2209C81.2548 35.2209 80.8777 35.3423 80.5708 35.5852C80.264 35.8281 80.0318 36.1648 79.8741 36.5952C79.7164 37.0256 79.6376 37.5241 79.6376 38.0909C79.6376 38.6619 79.7164 39.1669 79.8741 39.6058C80.036 40.0405 80.2683 40.3814 80.5708 40.6286C80.8777 40.8714 81.2548 40.9929 81.7022 40.9929ZM97.2669 43.1918C96.274 43.1918 95.4153 42.9808 94.6909 42.5589C93.9707 42.1328 93.4146 41.5405 93.0225 40.782C92.6305 40.0192 92.4345 39.1349 92.4345 38.1293C92.4345 37.1151 92.6305 36.2287 93.0225 35.4702C93.4146 34.7074 93.9707 34.1151 94.6909 33.6932C95.4153 33.267 96.274 33.054 97.2669 33.054C98.2598 33.054 99.1163 33.267 99.8365 33.6932C100.561 34.1151 101.119 34.7074 101.511 35.4702C101.903 36.2287 102.099 37.1151 102.099 38.1293C102.099 39.1349 101.903 40.0192 101.511 40.782C101.119 41.5405 100.561 42.1328 99.8365 42.5589C99.1163 42.9808 98.2598 43.1918 97.2669 43.1918ZM97.2797 41.0824C97.7314 41.0824 98.1085 40.9545 98.411 40.6989C98.7136 40.4389 98.9416 40.0852 99.095 39.6378C99.2527 39.1903 99.3315 38.6811 99.3315 38.1101C99.3315 37.5391 99.2527 37.0298 99.095 36.5824C98.9416 36.1349 98.7136 35.7812 98.411 35.5213C98.1085 35.2614 97.7314 35.1314 97.2797 35.1314C96.8237 35.1314 96.4402 35.2614 96.1291 35.5213C95.8223 35.7812 95.59 36.1349 95.4324 36.5824C95.2789 37.0298 95.2022 37.5391 95.2022 38.1101C95.2022 38.6811 95.2789 39.1903 95.4324 39.6378C95.59 40.0852 95.8223 40.4389 96.1291 40.6989C96.4402 40.9545 96.8237 41.0824 97.2797 41.0824ZM109.15 33.1818V35.2273H103.09V33.1818H109.15ZM104.477 43V32.4723C104.477 31.7607 104.616 31.1705 104.893 30.7017C105.174 30.233 105.557 29.8814 106.043 29.647C106.529 29.4126 107.081 29.2955 107.699 29.2955C108.116 29.2955 108.498 29.3274 108.843 29.3913C109.192 29.4553 109.452 29.5128 109.623 29.5639L109.137 31.6094C109.03 31.5753 108.898 31.5433 108.741 31.5135C108.587 31.4837 108.43 31.4688 108.268 31.4688C107.867 31.4688 107.588 31.5625 107.43 31.75C107.273 31.9332 107.194 32.1911 107.194 32.5234V43H104.477ZM116.093 33.1818V35.2273H110.033V33.1818H116.093ZM111.42 43V32.4723C111.42 31.7607 111.559 31.1705 111.836 30.7017C112.117 30.233 112.501 29.8814 112.987 29.647C113.472 29.4126 114.024 29.2955 114.642 29.2955C115.06 29.2955 115.441 29.3274 115.786 29.3913C116.136 29.4553 116.396 29.5128 116.566 29.5639L116.08 31.6094C115.974 31.5753 115.842 31.5433 115.684 31.5135C115.531 31.4837 115.373 31.4688 115.211 31.4688C114.81 31.4688 114.531 31.5625 114.374 31.75C114.216 31.9332 114.137 32.1911 114.137 32.5234V43H111.42ZM117.757 43V33.1818H120.48V43H117.757ZM119.124 31.9162C118.72 31.9162 118.372 31.782 118.083 31.5135C117.797 31.2408 117.654 30.9148 117.654 30.5355C117.654 30.1605 117.797 29.8388 118.083 29.5703C118.372 29.2976 118.72 29.1612 119.124 29.1612C119.529 29.1612 119.874 29.2976 120.16 29.5703C120.45 29.8388 120.595 30.1605 120.595 30.5355C120.595 30.9148 120.45 31.2408 120.16 31.5135C119.874 31.782 119.529 31.9162 119.124 31.9162ZM127.097 43.1918C126.091 43.1918 125.226 42.9787 124.502 42.5526C123.782 42.1222 123.228 41.5256 122.84 40.7628C122.456 40 122.265 39.1222 122.265 38.1293C122.265 37.1236 122.458 36.2415 122.846 35.483C123.238 34.7202 123.794 34.1257 124.515 33.6996C125.235 33.2692 126.091 33.054 127.084 33.054C127.941 33.054 128.691 33.2095 129.334 33.5206C129.978 33.8317 130.487 34.2685 130.862 34.831C131.237 35.3935 131.444 36.054 131.482 36.8125H128.912C128.84 36.3224 128.648 35.9283 128.337 35.63C128.03 35.3274 127.627 35.1761 127.129 35.1761C126.707 35.1761 126.338 35.2912 126.023 35.5213C125.712 35.7472 125.469 36.0774 125.294 36.5121C125.12 36.9467 125.032 37.473 125.032 38.0909C125.032 38.7173 125.118 39.25 125.288 39.6889C125.463 40.1278 125.708 40.4624 126.023 40.6925C126.338 40.9226 126.707 41.0376 127.129 41.0376C127.44 41.0376 127.719 40.9737 127.966 40.8459C128.218 40.718 128.424 40.5327 128.586 40.2898C128.752 40.0426 128.861 39.7464 128.912 39.4013H131.482C131.439 40.1513 131.235 40.8118 130.868 41.3828C130.506 41.9496 130.005 42.3928 129.366 42.7124C128.727 43.032 127.971 43.1918 127.097 43.1918ZM137.7 43.1918C136.69 43.1918 135.82 42.9872 135.092 42.5781C134.367 42.1648 133.809 41.581 133.417 40.8267C133.025 40.0682 132.829 39.1712 132.829 38.1357C132.829 37.1257 133.025 36.2393 133.417 35.4766C133.809 34.7138 134.361 34.1193 135.073 33.6932C135.789 33.267 136.628 33.054 137.591 33.054C138.239 33.054 138.842 33.1584 139.4 33.3672C139.963 33.5717 140.453 33.8807 140.87 34.294C141.292 34.7074 141.62 35.2273 141.855 35.8537C142.089 36.4759 142.206 37.2045 142.206 38.0398V38.7876H133.916V37.1001H139.643C139.643 36.7081 139.558 36.3608 139.387 36.0582C139.217 35.7557 138.98 35.5192 138.678 35.3487C138.379 35.174 138.032 35.0866 137.636 35.0866C137.222 35.0866 136.856 35.1825 136.536 35.3743C136.221 35.5618 135.974 35.8153 135.795 36.1349C135.616 36.4503 135.524 36.8018 135.52 37.1896V38.794C135.52 39.2798 135.61 39.6996 135.789 40.0533C135.972 40.407 136.23 40.6797 136.562 40.8714C136.894 41.0632 137.289 41.1591 137.744 41.1591C138.047 41.1591 138.324 41.1165 138.575 41.0312C138.827 40.946 139.042 40.8182 139.221 40.6477C139.4 40.4773 139.536 40.2685 139.63 40.0213L142.149 40.1875C142.021 40.7926 141.759 41.321 141.362 41.7727C140.97 42.2202 140.463 42.5696 139.841 42.821C139.223 43.0682 138.509 43.1918 137.7 43.1918ZM156.318 35.9815L153.825 36.1349C153.783 35.9219 153.691 35.7301 153.55 35.5597C153.41 35.3849 153.224 35.2464 152.994 35.1442C152.768 35.0376 152.498 34.9844 152.183 34.9844C151.761 34.9844 151.405 35.0739 151.115 35.2528C150.825 35.4276 150.68 35.6619 150.68 35.956C150.68 36.1903 150.774 36.3885 150.962 36.5504C151.149 36.7124 151.471 36.8423 151.927 36.9403L153.704 37.2983C154.658 37.4943 155.37 37.8097 155.839 38.2443C156.308 38.679 156.542 39.25 156.542 39.9574C156.542 40.6009 156.352 41.1655 155.973 41.6513C155.598 42.1371 155.082 42.5163 154.426 42.7891C153.774 43.0575 153.022 43.1918 152.17 43.1918C150.87 43.1918 149.835 42.9212 149.063 42.38C148.296 41.8345 147.847 41.093 147.714 40.1555L150.393 40.0149C150.474 40.4112 150.67 40.7138 150.981 40.9226C151.292 41.1271 151.69 41.2294 152.176 41.2294C152.653 41.2294 153.037 41.1378 153.327 40.9545C153.621 40.767 153.77 40.5263 153.774 40.2322C153.77 39.9851 153.665 39.7827 153.461 39.625C153.256 39.4631 152.941 39.3395 152.515 39.2543L150.815 38.9155C149.856 38.7237 149.142 38.3913 148.673 37.9183C148.209 37.4453 147.977 36.8423 147.977 36.1094C147.977 35.4787 148.147 34.9354 148.488 34.4794C148.833 34.0234 149.317 33.6719 149.939 33.4247C150.565 33.1776 151.298 33.054 152.138 33.054C153.378 33.054 154.354 33.3161 155.065 33.8402C155.781 34.3643 156.199 35.0781 156.318 35.9815ZM158.257 46.6818V33.1818H160.941V34.831H161.063C161.182 34.5668 161.355 34.2983 161.58 34.0256C161.811 33.7486 162.109 33.5185 162.475 33.3352C162.846 33.1477 163.306 33.054 163.856 33.054C164.572 33.054 165.232 33.2415 165.838 33.6165C166.443 33.9872 166.926 34.5476 167.289 35.2976C167.651 36.0433 167.832 36.9787 167.832 38.1037C167.832 39.1989 167.655 40.1236 167.301 40.8778C166.952 41.6278 166.475 42.1967 165.869 42.5845C165.269 42.968 164.595 43.1598 163.85 43.1598C163.321 43.1598 162.872 43.0724 162.501 42.8977C162.134 42.723 161.834 42.5036 161.6 42.2393C161.365 41.9709 161.186 41.7003 161.063 41.4276H160.98V46.6818H158.257ZM160.922 38.0909C160.922 38.6747 161.003 39.1839 161.165 39.6186C161.327 40.0533 161.561 40.392 161.868 40.6349C162.175 40.8736 162.548 40.9929 162.987 40.9929C163.43 40.9929 163.805 40.8714 164.112 40.6286C164.419 40.3814 164.651 40.0405 164.808 39.6058C164.97 39.1669 165.051 38.6619 165.051 38.0909C165.051 37.5241 164.972 37.0256 164.815 36.5952C164.657 36.1648 164.425 35.8281 164.118 35.5852C163.811 35.3423 163.434 35.2209 162.987 35.2209C162.544 35.2209 162.169 35.3381 161.862 35.5724C161.559 35.8068 161.327 36.1392 161.165 36.5696C161.003 37 160.922 37.5071 160.922 38.0909ZM172.447 43.1854C171.82 43.1854 171.262 43.0767 170.772 42.8594C170.282 42.6378 169.894 42.3118 169.609 41.8814C169.328 41.4467 169.187 40.9055 169.187 40.2578C169.187 39.7124 169.287 39.2543 169.487 38.8835C169.688 38.5128 169.96 38.2145 170.306 37.9886C170.651 37.7628 171.043 37.5923 171.482 37.4773C171.925 37.3622 172.389 37.2812 172.875 37.2344C173.446 37.1747 173.906 37.1193 174.256 37.0682C174.605 37.0128 174.859 36.9318 175.017 36.8253C175.174 36.7187 175.253 36.5611 175.253 36.3523V36.3139C175.253 35.9091 175.125 35.5959 174.869 35.3743C174.618 35.1527 174.26 35.0419 173.796 35.0419C173.306 35.0419 172.916 35.1506 172.626 35.3679C172.336 35.581 172.144 35.8494 172.051 36.1733L169.532 35.9688C169.66 35.3722 169.911 34.8565 170.286 34.4219C170.661 33.983 171.145 33.6463 171.737 33.4119C172.334 33.1733 173.024 33.054 173.808 33.054C174.354 33.054 174.876 33.1179 175.374 33.2457C175.877 33.3736 176.323 33.5717 176.71 33.8402C177.102 34.1087 177.411 34.4538 177.637 34.8757C177.863 35.2933 177.976 35.794 177.976 36.3778V43H175.394V41.6385H175.317C175.159 41.9453 174.948 42.2159 174.684 42.4503C174.42 42.6804 174.102 42.8615 173.732 42.9936C173.361 43.1214 172.933 43.1854 172.447 43.1854ZM173.227 41.3061C173.627 41.3061 173.981 41.2273 174.288 41.0696C174.595 40.9077 174.835 40.6903 175.01 40.4176C175.185 40.1449 175.272 39.8359 175.272 39.4908V38.4489C175.187 38.5043 175.07 38.5554 174.921 38.6023C174.776 38.6449 174.612 38.6854 174.428 38.7237C174.245 38.7578 174.062 38.7898 173.879 38.8196C173.695 38.8452 173.529 38.8686 173.38 38.8899C173.061 38.9368 172.781 39.0114 172.543 39.1136C172.304 39.2159 172.119 39.3544 171.987 39.5291C171.855 39.6996 171.789 39.9126 171.789 40.1683C171.789 40.5391 171.923 40.8224 172.191 41.0185C172.464 41.2102 172.809 41.3061 173.227 41.3061ZM184.525 43.1918C183.519 43.1918 182.654 42.9787 181.93 42.5526C181.209 42.1222 180.655 41.5256 180.268 40.7628C179.884 40 179.692 39.1222 179.692 38.1293C179.692 37.1236 179.886 36.2415 180.274 35.483C180.666 34.7202 181.222 34.1257 181.942 33.6996C182.662 33.2692 183.519 33.054 184.512 33.054C185.368 33.054 186.118 33.2095 186.762 33.5206C187.405 33.8317 187.915 34.2685 188.29 34.831C188.665 35.3935 188.871 36.054 188.91 36.8125H186.34C186.268 36.3224 186.076 35.9283 185.765 35.63C185.458 35.3274 185.055 35.1761 184.557 35.1761C184.135 35.1761 183.766 35.2912 183.451 35.5213C183.14 35.7472 182.897 36.0774 182.722 36.5121C182.547 36.9467 182.46 37.473 182.46 38.0909C182.46 38.7173 182.545 39.25 182.716 39.6889C182.89 40.1278 183.135 40.4624 183.451 40.6925C183.766 40.9226 184.135 41.0376 184.557 41.0376C184.868 41.0376 185.147 40.9737 185.394 40.8459C185.645 40.718 185.852 40.5327 186.014 40.2898C186.18 40.0426 186.289 39.7464 186.34 39.4013H188.91C188.867 40.1513 188.662 40.8118 188.296 41.3828C187.934 41.9496 187.433 42.3928 186.794 42.7124C186.155 43.032 185.398 43.1918 184.525 43.1918ZM195.127 43.1918C194.118 43.1918 193.248 42.9872 192.52 42.5781C191.795 42.1648 191.237 41.581 190.845 40.8267C190.453 40.0682 190.257 39.1712 190.257 38.1357C190.257 37.1257 190.453 36.2393 190.845 35.4766C191.237 34.7138 191.789 34.1193 192.5 33.6932C193.216 33.267 194.056 33.054 195.019 33.054C195.667 33.054 196.27 33.1584 196.828 33.3672C197.39 33.5717 197.88 33.8807 198.298 34.294C198.72 34.7074 199.048 35.2273 199.282 35.8537C199.517 36.4759 199.634 37.2045 199.634 38.0398V38.7876H191.343V37.1001H197.071C197.071 36.7081 196.985 36.3608 196.815 36.0582C196.645 35.7557 196.408 35.5192 196.105 35.3487C195.807 35.174 195.46 35.0866 195.064 35.0866C194.65 35.0866 194.284 35.1825 193.964 35.3743C193.649 35.5618 193.402 35.8153 193.223 36.1349C193.044 36.4503 192.952 36.8018 192.948 37.1896V38.794C192.948 39.2798 193.037 39.6996 193.216 40.0533C193.4 40.407 193.657 40.6797 193.99 40.8714C194.322 41.0632 194.716 41.1591 195.172 41.1591C195.475 41.1591 195.752 41.1165 196.003 41.0312C196.255 40.946 196.47 40.8182 196.649 40.6477C196.828 40.4773 196.964 40.2685 197.058 40.0213L199.576 40.1875C199.449 40.7926 199.186 41.321 198.79 41.7727C198.398 42.2202 197.891 42.5696 197.269 42.821C196.651 43.0682 195.937 43.1918 195.127 43.1918Z" fill="black"/>
<rect x="25" y="60" width="369" height="21" rx="4" fill="#A9BAD1"/>
<rect x="25" y="96" width="191" height="21" rx="4" fill="#A9BAD1"/>
<rect x="236" y="96" width="158" height="21" rx="4" fill="#A9BAD1"/>
</svg>
