<svg width="419" height="142" viewBox="0 0 419 142" fill="none" xmlns="http://www.w3.org/2000/svg">
<rect width="419" height="142" rx="8" fill="#CCE2FF"/>
<path d="M25.6392 32.1911V29.9091H36.3906V32.1911H32.3828V43H29.647V32.1911H25.6392ZM41.1223 43.1918C40.1294 43.1918 39.2708 42.9808 38.5463 42.5589C37.8262 42.1328 37.2701 41.5405 36.878 40.782C36.486 40.0192 36.29 39.1349 36.29 38.1293C36.29 37.1151 36.486 36.2287 36.878 35.4702C37.2701 34.7074 37.8262 34.1151 38.5463 33.6932C39.2708 33.267 40.1294 33.054 41.1223 33.054C42.1152 33.054 42.9718 33.267 43.6919 33.6932C44.4164 34.1151 44.9746 34.7074 45.3667 35.4702C45.7587 36.2287 45.9547 37.1151 45.9547 38.1293C45.9547 39.1349 45.7587 40.0192 45.3667 40.782C44.9746 41.5405 44.4164 42.1328 43.6919 42.5589C42.9718 42.9808 42.1152 43.1918 41.1223 43.1918ZM41.1351 41.0824C41.5868 41.0824 41.964 40.9545 42.2665 40.6989C42.5691 40.4389 42.7971 40.0852 42.9505 39.6378C43.1081 39.1903 43.187 38.6811 43.187 38.1101C43.187 37.5391 43.1081 37.0298 42.9505 36.5824C42.7971 36.1349 42.5691 35.7812 42.2665 35.5213C41.964 35.2614 41.5868 35.1314 41.1351 35.1314C40.6792 35.1314 40.2956 35.2614 39.9846 35.5213C39.6777 35.7812 39.4455 36.1349 39.2878 36.5824C39.1344 37.0298 39.0577 37.5391 39.0577 38.1101C39.0577 38.6811 39.1344 39.1903 39.2878 39.6378C39.4455 40.0852 39.6777 40.4389 39.9846 40.6989C40.2956 40.9545 40.6792 41.0824 41.1351 41.0824ZM49.416 43L46.7441 33.1818H49.4991L51.0204 39.7784H51.1099L52.6951 33.1818H55.399L57.0098 39.7401H57.0929L58.5886 33.1818H61.3372L58.6717 43H55.7889L54.1014 36.8253H53.9799L52.2924 43H49.416ZM65.5128 37.3239V43H62.7898V33.1818H65.3849V34.9141H65.5C65.7173 34.343 66.0817 33.8913 66.593 33.5589C67.1044 33.2223 67.7244 33.054 68.4531 33.054C69.1349 33.054 69.7294 33.2031 70.2365 33.5014C70.7436 33.7997 71.1378 34.2259 71.419 34.7798C71.7003 35.3295 71.8409 35.9858 71.8409 36.7486V43H69.1179V37.2344C69.1222 36.6335 68.9688 36.1648 68.6577 35.8281C68.3466 35.4872 67.9183 35.3168 67.3729 35.3168C67.0064 35.3168 66.6825 35.3956 66.4013 35.5533C66.1243 35.7109 65.907 35.9411 65.7493 36.2436C65.5959 36.5419 65.517 36.902 65.5128 37.3239ZM76.71 37.3239V43H73.987V29.9091H76.6333V34.9141H76.7484C76.97 34.3345 77.3279 33.8807 77.8223 33.5526C78.3166 33.2202 78.9366 33.054 79.6824 33.054C80.3642 33.054 80.9586 33.2031 81.4657 33.5014C81.9771 33.7955 82.3734 34.2195 82.6547 34.7734C82.9402 35.3232 83.0808 35.9815 83.0765 36.7486V43H80.3535V37.2344C80.3578 36.6293 80.2044 36.1584 79.8933 35.8217C79.5865 35.4851 79.1561 35.3168 78.6021 35.3168C78.2314 35.3168 77.9032 35.3956 77.6177 35.5533C77.3365 35.7109 77.1149 35.9411 76.9529 36.2436C76.7953 36.5419 76.7143 36.902 76.71 37.3239ZM89.6555 43.1918C88.6626 43.1918 87.804 42.9808 87.0795 42.5589C86.3594 42.1328 85.8033 41.5405 85.4112 40.782C85.0192 40.0192 84.8232 39.1349 84.8232 38.1293C84.8232 37.1151 85.0192 36.2287 85.4112 35.4702C85.8033 34.7074 86.3594 34.1151 87.0795 33.6932C87.804 33.267 88.6626 33.054 89.6555 33.054C90.6484 33.054 91.505 33.267 92.2251 33.6932C92.9496 34.1151 93.5078 34.7074 93.8999 35.4702C94.2919 36.2287 94.4879 37.1151 94.4879 38.1293C94.4879 39.1349 94.2919 40.0192 93.8999 40.782C93.5078 41.5405 92.9496 42.1328 92.2251 42.5589C91.505 42.9808 90.6484 43.1918 89.6555 43.1918ZM89.6683 41.0824C90.12 41.0824 90.4972 40.9545 90.7997 40.6989C91.1023 40.4389 91.3303 40.0852 91.4837 39.6378C91.6413 39.1903 91.7202 38.6811 91.7202 38.1101C91.7202 37.5391 91.6413 37.0298 91.4837 36.5824C91.3303 36.1349 91.1023 35.7812 90.7997 35.5213C90.4972 35.2614 90.12 35.1314 89.6683 35.1314C89.2124 35.1314 88.8288 35.2614 88.5178 35.5213C88.2109 35.7812 87.9787 36.1349 87.821 36.5824C87.6676 37.0298 87.5909 37.5391 87.5909 38.1101C87.5909 38.6811 87.6676 39.1903 87.821 39.6378C87.9787 40.0852 88.2109 40.4389 88.5178 40.6989C88.8288 40.9545 89.2124 41.0824 89.6683 41.0824ZM102.555 38.8196V33.1818H105.278V43H102.663V41.2166H102.561C102.339 41.7919 101.971 42.2543 101.455 42.6037C100.944 42.9531 100.32 43.1278 99.5824 43.1278C98.9261 43.1278 98.3487 42.9787 97.8501 42.6804C97.3516 42.3821 96.9616 41.9581 96.6804 41.4084C96.4034 40.8587 96.2628 40.2003 96.2585 39.4332V33.1818H98.9815V38.9474C98.9858 39.527 99.1413 39.9851 99.4482 40.3217C99.755 40.6584 100.166 40.8267 100.682 40.8267C101.01 40.8267 101.317 40.7521 101.602 40.603C101.888 40.4496 102.118 40.2237 102.293 39.9254C102.472 39.6271 102.559 39.2585 102.555 38.8196ZM115.625 35.9815L113.132 36.1349C113.089 35.9219 112.998 35.7301 112.857 35.5597C112.716 35.3849 112.531 35.2464 112.301 35.1442C112.075 35.0376 111.805 34.9844 111.489 34.9844C111.067 34.9844 110.711 35.0739 110.422 35.2528C110.132 35.4276 109.987 35.6619 109.987 35.956C109.987 36.1903 110.081 36.3885 110.268 36.5504C110.456 36.7124 110.778 36.8423 111.233 36.9403L113.01 37.2983C113.965 37.4943 114.677 37.8097 115.145 38.2443C115.614 38.679 115.849 39.25 115.849 39.9574C115.849 40.6009 115.659 41.1655 115.28 41.6513C114.905 42.1371 114.389 42.5163 113.733 42.7891C113.081 43.0575 112.329 43.1918 111.476 43.1918C110.177 43.1918 109.141 42.9212 108.37 42.38C107.603 41.8345 107.153 41.093 107.021 40.1555L109.699 40.0149C109.78 40.4112 109.976 40.7138 110.287 40.9226C110.599 41.1271 110.997 41.2294 111.483 41.2294C111.96 41.2294 112.344 41.1378 112.633 40.9545C112.927 40.767 113.077 40.5263 113.081 40.2322C113.077 39.9851 112.972 39.7827 112.768 39.625C112.563 39.4631 112.248 39.3395 111.822 39.2543L110.121 38.9155C109.162 38.7237 108.449 38.3913 107.98 37.9183C107.515 37.4453 107.283 36.8423 107.283 36.1094C107.283 35.4787 107.454 34.9354 107.795 34.4794C108.14 34.0234 108.623 33.6719 109.246 33.4247C109.872 33.1776 110.605 33.054 111.444 33.054C112.684 33.054 113.66 33.3161 114.372 33.8402C115.088 34.3643 115.506 35.0781 115.625 35.9815ZM122.038 43.1918C121.028 43.1918 120.158 42.9872 119.43 42.5781C118.705 42.1648 118.147 41.581 117.755 40.8267C117.363 40.0682 117.167 39.1712 117.167 38.1357C117.167 37.1257 117.363 36.2393 117.755 35.4766C118.147 34.7138 118.699 34.1193 119.411 33.6932C120.126 33.267 120.966 33.054 121.929 33.054C122.577 33.054 123.18 33.1584 123.738 33.3672C124.3 33.5717 124.79 33.8807 125.208 34.294C125.63 34.7074 125.958 35.2273 126.192 35.8537C126.427 36.4759 126.544 37.2045 126.544 38.0398V38.7876H118.254V37.1001H123.981C123.981 36.7081 123.896 36.3608 123.725 36.0582C123.555 35.7557 123.318 35.5192 123.016 35.3487C122.717 35.174 122.37 35.0866 121.974 35.0866C121.56 35.0866 121.194 35.1825 120.874 35.3743C120.559 35.5618 120.312 35.8153 120.133 36.1349C119.954 36.4503 119.862 36.8018 119.858 37.1896V38.794C119.858 39.2798 119.947 39.6996 120.126 40.0533C120.31 40.407 120.567 40.6797 120.9 40.8714C121.232 41.0632 121.626 41.1591 122.082 41.1591C122.385 41.1591 122.662 41.1165 122.913 41.0312C123.165 40.946 123.38 40.8182 123.559 40.6477C123.738 40.4773 123.874 40.2685 123.968 40.0213L126.487 40.1875C126.359 40.7926 126.097 41.321 125.7 41.7727C125.308 42.2202 124.801 42.5696 124.179 42.821C123.561 43.0682 122.847 43.1918 122.038 43.1918ZM136.923 43.1918C135.917 43.1918 135.052 42.9787 134.328 42.5526C133.608 42.1222 133.054 41.5256 132.666 40.7628C132.282 40 132.091 39.1222 132.091 38.1293C132.091 37.1236 132.285 36.2415 132.672 35.483C133.064 34.7202 133.621 34.1257 134.341 33.6996C135.061 33.2692 135.917 33.054 136.91 33.054C137.767 33.054 138.517 33.2095 139.16 33.5206C139.804 33.8317 140.313 34.2685 140.688 34.831C141.063 35.3935 141.27 36.054 141.308 36.8125H138.738C138.666 36.3224 138.474 35.9283 138.163 35.63C137.856 35.3274 137.454 35.1761 136.955 35.1761C136.533 35.1761 136.165 35.2912 135.849 35.5213C135.538 35.7472 135.295 36.0774 135.121 36.5121C134.946 36.9467 134.858 37.473 134.858 38.0909C134.858 38.7173 134.944 39.25 135.114 39.6889C135.289 40.1278 135.534 40.4624 135.849 40.6925C136.165 40.9226 136.533 41.0376 136.955 41.0376C137.266 41.0376 137.545 40.9737 137.792 40.8459C138.044 40.718 138.251 40.5327 138.412 40.2898C138.579 40.0426 138.687 39.7464 138.738 39.4013H141.308C141.265 40.1513 141.061 40.8118 140.694 41.3828C140.332 41.9496 139.831 42.3928 139.192 42.7124C138.553 43.032 137.797 43.1918 136.923 43.1918ZM147.488 43.1918C146.495 43.1918 145.636 42.9808 144.912 42.5589C144.191 42.1328 143.635 41.5405 143.243 40.782C142.851 40.0192 142.655 39.1349 142.655 38.1293C142.655 37.1151 142.851 36.2287 143.243 35.4702C143.635 34.7074 144.191 34.1151 144.912 33.6932C145.636 33.267 146.495 33.054 147.488 33.054C148.48 33.054 149.337 33.267 150.057 33.6932C150.782 34.1151 151.34 34.7074 151.732 35.4702C152.124 36.2287 152.32 37.1151 152.32 38.1293C152.32 39.1349 152.124 40.0192 151.732 40.782C151.34 41.5405 150.782 42.1328 150.057 42.5589C149.337 42.9808 148.48 43.1918 147.488 43.1918ZM147.5 41.0824C147.952 41.0824 148.329 40.9545 148.632 40.6989C148.934 40.4389 149.162 40.0852 149.316 39.6378C149.473 39.1903 149.552 38.6811 149.552 38.1101C149.552 37.5391 149.473 37.0298 149.316 36.5824C149.162 36.1349 148.934 35.7812 148.632 35.5213C148.329 35.2614 147.952 35.1314 147.5 35.1314C147.044 35.1314 146.661 35.2614 146.35 35.5213C146.043 35.7812 145.811 36.1349 145.653 36.5824C145.5 37.0298 145.423 37.5391 145.423 38.1101C145.423 38.6811 145.5 39.1903 145.653 39.6378C145.811 40.0852 146.043 40.4389 146.35 40.6989C146.661 40.9545 147.044 41.0824 147.5 41.0824ZM154.091 43V33.1818H156.686V34.9141H156.801C157.005 34.3388 157.346 33.8849 157.824 33.5526C158.301 33.2202 158.872 33.054 159.537 33.054C160.21 33.054 160.783 33.2223 161.256 33.5589C161.729 33.8913 162.044 34.343 162.202 34.9141H162.304C162.505 34.3516 162.867 33.902 163.391 33.5653C163.919 33.2244 164.544 33.054 165.264 33.054C166.18 33.054 166.924 33.3459 167.495 33.9297C168.07 34.5092 168.358 35.3317 168.358 36.397V43H165.641V36.9339C165.641 36.3885 165.496 35.9794 165.206 35.7067C164.917 35.4339 164.554 35.2976 164.12 35.2976C163.625 35.2976 163.24 35.4553 162.963 35.7706C162.686 36.0817 162.547 36.4929 162.547 37.0043V43H159.907V36.8764C159.907 36.3949 159.769 36.0114 159.492 35.7259C159.219 35.4403 158.859 35.2976 158.412 35.2976C158.109 35.2976 157.836 35.3743 157.593 35.5277C157.355 35.6768 157.165 35.8878 157.025 36.1605C156.884 36.429 156.814 36.7443 156.814 37.1065V43H154.091ZM170.509 46.6818V33.1818H173.193V34.831H173.315C173.434 34.5668 173.607 34.2983 173.832 34.0256C174.063 33.7486 174.361 33.5185 174.727 33.3352C175.098 33.1477 175.558 33.054 176.108 33.054C176.824 33.054 177.484 33.2415 178.089 33.6165C178.695 33.9872 179.178 34.5476 179.54 35.2976C179.903 36.0433 180.084 36.9787 180.084 38.1037C180.084 39.1989 179.907 40.1236 179.553 40.8778C179.204 41.6278 178.727 42.1967 178.121 42.5845C177.521 42.968 176.847 43.1598 176.102 43.1598C175.573 43.1598 175.124 43.0724 174.753 42.8977C174.386 42.723 174.086 42.5036 173.852 42.2393C173.617 41.9709 173.438 41.7003 173.315 41.4276H173.232V46.6818H170.509ZM173.174 38.0909C173.174 38.6747 173.255 39.1839 173.417 39.6186C173.579 40.0533 173.813 40.392 174.12 40.6349C174.427 40.8736 174.8 40.9929 175.239 40.9929C175.682 40.9929 176.057 40.8714 176.364 40.6286C176.67 40.3814 176.903 40.0405 177.06 39.6058C177.222 39.1669 177.303 38.6619 177.303 38.0909C177.303 37.5241 177.224 37.0256 177.067 36.5952C176.909 36.1648 176.677 35.8281 176.37 35.5852C176.063 35.3423 175.686 35.2209 175.239 35.2209C174.795 35.2209 174.42 35.3381 174.114 35.5724C173.811 35.8068 173.579 36.1392 173.417 36.5696C173.255 37 173.174 37.5071 173.174 38.0909ZM184.622 29.9091V43H181.899V29.9091H184.622ZM191.278 43.1918C190.268 43.1918 189.399 42.9872 188.67 42.5781C187.945 42.1648 187.387 41.581 186.995 40.8267C186.603 40.0682 186.407 39.1712 186.407 38.1357C186.407 37.1257 186.603 36.2393 186.995 35.4766C187.387 34.7138 187.939 34.1193 188.651 33.6932C189.367 33.267 190.206 33.054 191.169 33.054C191.817 33.054 192.42 33.1584 192.978 33.3672C193.541 33.5717 194.031 33.8807 194.448 34.294C194.87 34.7074 195.198 35.2273 195.433 35.8537C195.667 36.4759 195.784 37.2045 195.784 38.0398V38.7876H187.494V37.1001H193.221C193.221 36.7081 193.136 36.3608 192.965 36.0582C192.795 35.7557 192.558 35.5192 192.256 35.3487C191.958 35.174 191.61 35.0866 191.214 35.0866C190.801 35.0866 190.434 35.1825 190.115 35.3743C189.799 35.5618 189.552 35.8153 189.373 36.1349C189.194 36.4503 189.102 36.8018 189.098 37.1896V38.794C189.098 39.2798 189.188 39.6996 189.367 40.0533C189.55 40.407 189.808 40.6797 190.14 40.8714C190.472 41.0632 190.867 41.1591 191.323 41.1591C191.625 41.1591 191.902 41.1165 192.154 41.0312C192.405 40.946 192.62 40.8182 192.799 40.6477C192.978 40.4773 193.115 40.2685 193.208 40.0213L195.727 40.1875C195.599 40.7926 195.337 41.321 194.941 41.7727C194.548 42.2202 194.041 42.5696 193.419 42.821C192.801 43.0682 192.088 43.1918 191.278 43.1918ZM199.661 33.1818L201.464 36.6143L203.311 33.1818H206.104L203.26 38.0909L206.181 43H203.4L201.464 39.6058L199.559 43H196.746L199.661 38.0909L196.849 33.1818H199.661Z" fill="black"/>
<rect x="25" y="60" width="369" height="21" rx="4" fill="#A9BAD1"/>
<rect x="25" y="96" width="191" height="21" rx="4" fill="#A9BAD1"/>
<rect x="236" y="96" width="158" height="21" rx="4" fill="#A9BAD1"/>
</svg>
